<svg width="112" height="96" viewBox="0 0 112 96" fill="none" xmlns="http://www.w3.org/2000/svg">
<path d="M13.9984 43.6772C19.3437 43.6772 23.6768 39.344 23.6768 33.9988C23.6768 28.6535 19.3437 24.3203 13.9984 24.3203C8.65314 24.3203 4.31995 28.6535 4.31995 33.9988C4.31995 39.344 8.65314 43.6772 13.9984 43.6772Z" fill="white" stroke="#26CF13" stroke-width="1.16813" stroke-miterlimit="10"/>
<path d="M14.056 28.8373L8.43765 33.8349C8.22009 34.0717 8.38646 34.4524 8.70961 34.4524H15.4061C15.7229 34.4524 15.8925 34.8235 15.6845 35.0603L12.5554 38.6661C12.261 39.0053 12.7122 39.4756 13.0641 39.194L19.5239 34.0365C19.7958 33.8189 19.6455 33.3838 19.2967 33.3806L11.9731 33.3006C11.7043 33.3006 11.5284 33.019 11.6435 32.7759L14.6607 29.2372C14.8398 28.8565 14.3439 28.5206 14.056 28.8309V28.8373Z" fill="#26CF13"/>
<path d="M86.1878 21.3939C90.5482 22.6704 95.1179 20.1704 96.3944 15.8099C97.6709 11.4494 95.1708 6.87978 90.8104 5.60329C86.4499 4.32679 81.8802 6.82685 80.6037 11.1873C79.3272 15.5478 81.8273 20.1175 86.1878 21.3939Z" fill="white" stroke="#26CF13" stroke-width="1.16813" stroke-miterlimit="10"/>
<path d="M89.7785 9.30191L84.0018 12.0371C83.7678 12.1783 83.8126 12.5286 84.0762 12.6058L89.539 14.2049C89.7974 14.2806 89.8471 14.6238 89.6209 14.7673L86.2072 16.9616C85.8861 17.1679 86.1418 17.6593 86.4961 17.5137L92.9974 14.849C93.2712 14.7365 93.2525 14.3456 92.9687 14.2597L87.0135 12.4455C86.7942 12.3813 86.7179 12.1096 86.87 11.9387L90.1763 9.77257C90.4133 9.50477 90.089 9.11228 89.78 9.29669L89.7785 9.30191Z" fill="#26CF13"/>
<g clip-path="url(#clip0_2778_1751)">
<path d="M87.3234 36.646L60.5858 41.7986C59.9643 41.918 59.3635 41.5084 59.2448 40.8807L59.2316 40.8086C59.113 40.1828 59.5198 39.5779 60.1432 39.4584L86.8808 34.3059C87.5023 34.1864 88.1032 34.596 88.2218 35.2237L88.235 35.2958C88.3537 35.9216 87.9468 36.5266 87.3234 36.646Z" fill="url(#paint0_linear_2778_1751)"/>
<path d="M81.4997 32.2634C82.8125 31.8936 86.9975 30.6628 87.685 32.3677C87.0954 33.1547 86.1029 32.9196 85.1404 33.2211C84.4812 33.4278 82.6486 34.7439 82.0911 33.6269C81.8425 33.1263 81.7709 32.728 81.4978 32.2634H81.4997Z" fill="#FEB7A3"/>
<path d="M82.4942 32.1554C76.646 33.0429 70.8054 30.3614 65.1588 31.9809C62.0323 28.575 58.5347 25.7399 54.6962 23.1721C51.7599 20.538 48.1663 22.3529 49.8632 26.286C53.9748 28.6338 58.6383 29.6104 62.1566 32.8666C62.8346 33.9949 64.816 34.6094 66.191 34.3514C71.8545 33.2895 79.1831 37.2814 84.1045 35.8932C89.026 34.5051 83.3436 32.2407 82.4961 32.1535L82.4942 32.1554Z" fill="#FEB7A3"/>
<path d="M86.2761 35.5863C86.5906 35.6394 86.8506 35.5256 87.0069 35.245C87.0935 35.0914 87.0785 34.9491 87.0389 34.7898C87.2913 34.769 87.4928 34.659 87.6096 34.4276C87.6925 34.2645 87.668 34.1109 87.619 33.9497C87.8507 33.9308 88.1238 33.8644 88.201 33.6008C88.2989 33.2689 88.2858 33.0584 87.9543 32.7759C87.6228 32.4933 87.0031 32.1671 86.4889 32.1102C86.1631 32.0742 85.7657 32.2088 85.5905 32.499C85.4945 32.6564 85.2685 32.6791 85.2779 32.865C85.0895 32.8688 85.0763 33.2329 84.9954 33.3429C84.9426 33.413 84.8597 33.707 84.9671 33.7961C84.6978 33.8265 84.5151 33.9365 84.3832 34.164C84.3154 34.2816 84.3154 34.3935 84.3135 34.5205C84.0197 34.4769 83.7221 34.5585 83.579 34.8524C83.4359 35.1464 83.466 35.446 83.8144 35.611C84.2796 35.8291 84.9162 36.0699 85.4022 36.252C85.7657 36.3885 86.0313 36.2311 86.2215 35.9485C86.2968 35.8367 86.278 35.7134 86.2761 35.5882V35.5863Z" fill="#FEB7A3"/>
<path d="M45.9626 19.7116C47.5899 17.4226 53.0708 18.9909 55.4534 20.8646C57.8359 22.7382 61.7535 26.4248 63.8724 29.0646C69.8147 28.949 74.9735 30.7885 80.7859 31.4902C79.7085 33.1438 80.2453 34.0939 80.2321 35.9752C74.6571 36.051 66.4094 35.2583 61.4691 34.1394C56.5269 33.0206 42.0111 25.2794 45.9645 19.7135L45.9626 19.7116Z" fill="#E69B06"/>
<path d="M87.071 34.8774C87.0484 34.8944 86.9693 34.8679 86.9599 34.8489C86.7377 34.4165 85.8487 34.0392 85.5699 34.0107C85.2912 33.9823 85.4324 33.9633 85.4456 33.9102C85.4588 33.859 85.2893 33.8059 85.5963 33.8287C85.9052 33.8514 86.8601 34.261 87.1068 34.7351C87.1181 34.7579 87.1351 34.8432 87.0974 34.8622C87.0616 34.8793 87.0917 34.8622 87.0691 34.8793L87.071 34.8774Z" fill="#A54F3C"/>
<path d="M87.6473 34.0351C87.6228 34.0503 87.5437 34.0218 87.5324 33.9991C87.314 33.5269 86.3666 33.1153 86.0765 33.0641C85.7865 33.0129 85.9409 33.0054 85.956 32.9542C85.971 32.9048 85.7959 32.8347 86.1142 32.884C86.4325 32.9333 87.4458 33.3884 87.6869 33.8986C87.6982 33.9251 87.7095 34.0067 87.6718 34.0218C87.6341 34.037 87.6718 34.018 87.6473 34.0351Z" fill="#A54F3C"/>
<path d="M94.4391 78.3139C95.9779 48.9025 73.2822 36.335 73.2822 36.335L68.8241 37.7724C68.8241 37.7724 89.7192 55.1777 87.6116 78.3139H94.4372H94.4391Z" fill="#C8EBE6"/>
<path d="M68.713 79.4221C73.9678 72.3144 71.7435 39.497 71.7435 39.497L69.457 38.3857C69.457 38.3857 92.0396 52.4097 89.0845 78.3601C89.0845 78.3601 89.448 82.1321 87.2782 82.7314C86.457 82.9589 68.5604 82.7314 68.5604 82.7314L68.7111 79.4221H68.713Z" fill="#82D8DD"/>
<g style="mix-blend-mode:multiply" opacity="0.23">
<path d="M78.2885 42.9274C75.2354 44.1487 72.5157 44.0577 72.1842 51.1294C71.9036 42.3452 71.6888 41.4368 71.6888 41.4368L74.0093 40.866C74.0093 40.866 74.5159 39.7718 75.5725 40.6441" fill="#63BCB8"/>
</g>
<path d="M97.729 92.1823C102.755 87.1219 102.755 78.9172 97.729 73.8567C92.7031 68.7962 84.5545 68.7962 79.5286 73.8567C74.5027 78.9172 74.5027 87.1219 79.5286 92.1823C84.5545 97.2428 92.7031 97.2428 97.729 92.1823Z" fill="#353534"/>
<path d="M93.2802 86.5145C95.201 83.9275 94.6751 80.2624 92.1057 78.3284C89.5363 76.3945 85.8963 76.9239 83.9755 79.511C82.0548 82.0981 82.5806 85.7631 85.15 87.6971C87.7194 89.6311 91.3594 89.1016 93.2802 86.5145Z" fill="#C8EBE6"/>
<path d="M108 83.0193C108 72.644 99.6469 64.2354 89.3444 64.2354C79.04 64.2354 70.6887 72.6459 70.6887 83.0193H108.002H108Z" fill="url(#paint1_linear_2778_1751)"/>
<path d="M65.9009 38.0516L71.0371 36.3467C71.0371 36.3467 70.8431 31.3213 77.4163 31.4844C83.9915 31.6455 84.048 38.1426 84.048 38.1426C84.048 38.1426 84.92 44.8009 77.3146 44.6208C77.3146 44.6208 72.2331 44.9318 71.3422 40.443L66.3812 40.7218L65.9009 38.0516Z" fill="url(#paint2_linear_2778_1751)"/>
<path d="M79.5071 37.9888C79.7463 40.4333 80.7182 42.3392 81.6731 42.2444C82.6299 42.1496 83.21 40.0901 82.9708 37.6437C82.7316 35.1992 81.7597 33.2933 80.8048 33.3882C79.848 33.483 79.2679 35.5425 79.5071 37.9888Z" fill="#C8EBE6"/>
<g style="mix-blend-mode:multiply" opacity="0.25">
<path d="M76.4822 83.0193H70.6887C70.6887 72.644 79.0419 64.2354 89.3444 64.2354C89.3444 64.2354 76.8778 68.1268 76.4822 83.0193Z" fill="#0A94A4"/>
</g>
<path d="M46.3827 83.0439H73.2822V79.4237H46.3827V83.0439Z" fill="#0A94A4"/>
<path d="M16.0703 83.0421C16.0703 90.1992 21.8318 96.0003 28.94 96.0003C36.0482 96.0003 41.8097 90.1992 41.8097 83.0421C41.8097 75.8851 36.0482 70.084 28.94 70.084C21.8318 70.084 16.0703 75.8851 16.0703 83.0421Z" fill="#353534"/>
<path d="M23.1313 83.0419C23.1313 86.2715 25.7324 88.8904 28.9399 88.8904C32.1475 88.8904 34.7485 86.2715 34.7485 83.0419C34.7485 79.8104 32.1475 77.1934 28.9399 77.1934C25.7305 77.1934 23.1313 79.8123 23.1313 83.0419Z" fill="#C8EBE6"/>
<path d="M62.7179 54.7246L19.1384 55.9326C15.9064 57.8347 13.0172 61.7205 11.8231 65.2933C10.629 68.8661 10.7627 72.8713 12.1923 76.355C12.1923 76.355 16.9348 81.2326 28.9419 81.2326C50.8841 81.2326 60.1526 70.0855 60.1526 70.0855C65.6825 64.9576 63.0042 55.578 63.0042 55.578" fill="#82D8DD"/>
<path d="M16.6296 60.2949L60.2675 60.2949C62.6589 60.2949 64.5975 58.343 64.5975 55.9351V55.9332C64.5975 53.5253 62.6589 51.5733 60.2675 51.5733L16.6296 51.5733C14.2382 51.5733 12.2995 53.5253 12.2995 55.9332V55.9351C12.2995 58.343 14.2382 60.2949 16.6296 60.2949Z" fill="#0A94A4"/>
<g style="mix-blend-mode:multiply" opacity="0.5">
<path d="M14.1642 58.7969C14.1642 59.5934 15.234 60.2381 16.5543 60.2381H60.3447C61.665 60.2381 62.7348 59.5934 62.7348 58.7969H14.1642Z" fill="#0A94A4"/>
</g>
<path d="M48.3131 83.0427C48.3131 72.6675 39.96 64.2588 29.6575 64.2588C19.3531 64.2588 11.0018 72.6694 11.0018 83.0427H48.315H48.3131Z" fill="url(#paint3_linear_2778_1751)"/>
<g style="mix-blend-mode:multiply" opacity="0.25">
<path d="M16.7935 83.0427H11C11 72.6675 19.3531 64.2588 29.6557 64.2588C29.6557 64.2588 17.189 68.1502 16.7935 83.0427Z" fill="#0A94A4"/>
</g>
<g style="mix-blend-mode:multiply">
<path d="M101.472 83.0195H75.7589V83.8217H101.472V83.0195Z" fill="#B6B8B8"/>
</g>
<g style="mix-blend-mode:multiply">
<path d="M41.5855 83.8217H16.3415L16.1061 83.0195H41.8209L41.5855 83.8217Z" fill="#B6B8B8"/>
</g>
<path d="M42.2236 10.2922C42.1185 11.1366 41.7984 13.1813 41.0455 14.4575C40.8854 14.7279 41.1756 15.0362 41.4807 14.9248L41.9234 14.7635C42.1535 14.6781 42.4012 14.8394 42.4012 15.0718V15.5367C42.4012 15.8451 42.8039 15.9874 43.0165 15.7526L43.2116 15.5367C43.3791 15.3517 43.6918 15.3968 43.7968 15.6198L43.8819 15.8024C44.0194 16.0942 44.4697 16.0538 44.5422 15.7407C44.6047 15.4822 44.9424 15.392 45.135 15.5842L45.3826 15.8309C45.5752 16.0206 45.9154 15.9329 45.9754 15.6743L46.9909 11.464C47.0334 11.2908 46.9234 11.1177 46.7408 11.0702L42.6613 10.0123C42.4537 9.95774 42.2461 10.0906 42.2211 10.2946L42.2236 10.2922Z" fill="#212121"/>
<path d="M66.0496 69.6738H59.5009V75.2663H66.0496V69.6738Z" fill="#FEB7A3"/>
<path d="M46.2903 24.7743C46.3053 24.7819 46.3242 24.7838 46.343 24.78C46.3901 24.7705 46.4202 24.725 46.4127 24.6776C46.4089 24.6587 46.0285 22.7717 44.2712 21.1958C44.2354 21.1636 44.1808 21.1674 44.1488 21.2034C44.1168 21.2394 44.1205 21.2944 44.1563 21.3267C45.8703 22.8628 46.2394 24.6928 46.2432 24.7118C46.2488 24.7402 46.2677 24.763 46.2922 24.7743H46.2903Z" fill="#595A63"/>
<path d="M37.0237 42.3262C37.0237 42.3262 33.4131 49.1096 37.4154 54.1408C40.4874 58.0038 54.1895 55.4531 54.1895 55.4531L59.2899 72.8072C59.2899 72.8072 62.9721 74.9273 66.2569 72.8072C66.2569 72.8072 67.5753 56.3975 66.6015 49.6861C65.1889 39.9613 50.7955 43.134 47.8366 43.5304C47.8366 43.5304 41.9979 43.1568 37.0256 42.3262H37.0237Z" fill="url(#paint4_linear_2778_1751)"/>
<path d="M58.9189 77.645C58.9584 77.7891 59.0244 77.92 59.1091 78.0357C59.3201 78.322 59.6534 78.5079 60.0301 78.5022L68.6319 78.3827C69.0594 78.377 69.3815 78.1229 69.5397 77.7892C69.5887 77.6867 69.6226 77.5787 69.6376 77.4649C69.6866 77.1254 69.583 76.7613 69.2854 76.4958L66.2568 73.9717C62.2865 74.6392 59.2899 73.9717 59.2899 73.9717L59.2052 74.4022C59.0187 75.3485 58.9095 76.31 58.8756 77.2733C58.8718 77.4023 58.8869 77.5256 58.9189 77.6431V77.645Z" fill="#00EABD"/>
<path d="M58.902 77.5916C59.0414 78.0903 59.4877 78.4545 60.0151 78.4469L68.6169 78.3084C69.1762 78.2989 69.5529 77.8704 69.6207 77.3887L58.902 77.5916Z" fill="#007F67"/>
<path d="M57.7926 69.4961H51.2438V75.0886H57.7926V69.4961Z" fill="#FEB7A3"/>
<path d="M50.7259 77.645C50.7654 77.7891 50.8314 77.92 50.9161 78.0357C51.1271 78.322 51.4604 78.5079 51.8371 78.5022L60.4389 78.3827C60.8664 78.377 61.1885 78.1229 61.3467 77.7892C61.3957 77.6867 61.4296 77.5787 61.4447 77.4649C61.4936 77.1254 61.39 76.7613 61.0924 76.4958L58.0638 73.9717C54.0935 74.6392 51.0969 73.9717 51.0969 73.9717L51.0122 74.4022C50.8257 75.3485 50.7165 76.31 50.6826 77.2733C50.6788 77.4023 50.6939 77.5256 50.7259 77.6431V77.645Z" fill="#00EABD"/>
<path d="M33.0835 42.3262C33.0835 42.3262 29.4729 49.1096 33.4753 54.1408C36.5472 58.0038 51.596 55.8438 51.596 55.8438C50.5771 62.0564 51.0781 72.8621 51.0781 72.8621C51.0781 72.8621 54.8374 74.7775 58.045 73.0252C58.045 73.0252 63.6351 56.3975 62.6595 49.6861C61.2469 39.9613 46.8535 43.134 43.8946 43.5304C43.8946 43.5304 38.0558 43.1568 33.0835 42.3262Z" fill="url(#paint5_linear_2778_1751)"/>
<path d="M46.3954 11.8093L45.286 18.5713L49.5693 19.2837L50.6787 12.5217L46.3954 11.8093Z" fill="#FEB7A3"/>
<path d="M46.6426 15.3252C48.2944 16.5446 50.0083 16.6375 50.0083 16.6375L50.223 15.3271H46.6426V15.3252Z" fill="#CA7860"/>
<path d="M43.4162 42.5744L43.6761 42.618C47.6332 43.2761 51.3719 40.5813 52.0254 36.5969L53.6302 26.8209C54.2837 22.8366 51.8145 17.8035 47.8574 17.1455L47.5974 17.1018C43.6403 16.4438 39.9016 19.1386 39.2481 23.1229L37.4343 34.1695C36.7807 38.1539 39.4571 41.9182 43.4143 42.5763L43.4162 42.5744Z" fill="#FEB7A3"/>
<path d="M49.835 17.5801C49.835 17.5801 49.7577 20.1194 45.5859 16.6546C45.5859 16.6546 40.1107 15.9814 37.6283 22.4709C33.641 32.8955 31.6144 41.069 33.0835 42.3263C34.4603 43.504 38.1895 45.5256 43.8154 44.1677C49.4489 42.808 53.0952 42.7568 53.0952 42.7568C54.0709 36.8116 53.9974 37.9854 54.3703 28.8201C54.5813 23.6372 52.4944 18.8336 49.835 17.5801Z" fill="#F5BC0B"/>
<path d="M42.6232 10.2464C42.6289 10.9216 43.177 11.4639 43.8456 11.4582C44.5161 11.4526 45.0548 10.9007 45.0491 10.2275C45.0435 9.55235 44.4954 9.00998 43.8267 9.01567C43.1562 9.02136 42.6176 9.57321 42.6232 10.2464Z" fill="#F4917A"/>
<path d="M43.806 11.0278C43.806 11.0278 43.8135 11.0278 43.8192 11.0297C43.8587 11.0335 43.8926 11.0032 43.8964 10.9652C43.936 10.4987 43.6327 10.383 43.4331 10.3072C43.3427 10.273 43.2579 10.2408 43.2372 10.1934C43.2259 10.1668 43.2297 10.127 43.2504 10.0739C43.4067 9.66429 43.9152 9.67946 43.936 9.67946C43.9755 9.67946 44.0075 9.65101 44.0094 9.61119C44.0094 9.57137 43.9812 9.53913 43.9416 9.53723C43.9152 9.53723 43.3125 9.51637 43.1167 10.0227C43.0828 10.1137 43.079 10.1877 43.1072 10.2522C43.1524 10.3546 43.2636 10.3963 43.3822 10.4418C43.58 10.5177 43.7853 10.5935 43.7533 10.952C43.7495 10.9861 43.7721 11.0183 43.806 11.0278Z" fill="#A54F3C"/>
<path d="M52.6244 10.3187C52.6301 10.9938 53.1782 11.5362 53.8468 11.5305C54.5173 11.5248 55.056 10.973 55.0503 10.2997C55.0447 9.62462 54.4966 9.08225 53.828 9.08793C53.1593 9.09362 52.6188 9.64548 52.6244 10.3187Z" fill="#F4917A"/>
<path d="M53.9579 11.1C53.9579 11.1 53.9748 11.1038 53.9824 11.1019C54.0219 11.0981 54.0502 11.064 54.0464 11.0242C54.0163 10.6657 54.2197 10.588 54.4174 10.5121C54.5361 10.4666 54.6472 10.4249 54.6924 10.3225C54.7207 10.258 54.7169 10.1841 54.683 10.093C54.489 9.58668 53.8844 9.60754 53.858 9.60754C53.8185 9.60754 53.7884 9.64168 53.7902 9.6815C53.7902 9.72133 53.8241 9.75167 53.8637 9.74977C53.8844 9.74977 54.393 9.7346 54.5493 10.1423C54.57 10.1935 54.5738 10.2353 54.5625 10.2618C54.5417 10.3092 54.457 10.3415 54.3666 10.3756C54.1669 10.4514 53.8637 10.5671 53.9033 11.0336C53.9051 11.064 53.9277 11.0886 53.956 11.0962L53.9579 11.1Z" fill="#A54F3C"/>
<path d="M48.8368 15.5767C51.3587 15.5558 53.3853 13.4812 53.3646 10.9419L53.3458 8.55619C53.325 6.0169 51.2645 3.97637 48.7426 3.99723C46.2206 4.01809 44.194 6.09276 44.2148 8.63205L44.2336 11.0177C44.2543 13.557 46.3148 15.5976 48.8368 15.5767Z" fill="#FEB7A3"/>
<path d="M47.3696 12.1937C47.3809 12.4687 47.5786 12.8385 48.0024 13.104C48.5806 13.4643 49.7107 13.4757 50.2155 13.1741C50.4867 13.0129 50.6637 12.7493 50.7184 12.518C50.7636 12.3189 50.7184 12.1406 50.5658 12.0723C50.2343 11.9225 49.3284 12.1804 48.7162 11.9908C48.057 11.786 47.5843 11.6949 47.4261 11.9472C47.3846 12.0116 47.3639 12.0989 47.3696 12.1956V12.1937Z" fill="#CA7860"/>
<path d="M47.3696 12.1936C48.7332 12.7777 50.5206 12.5445 50.7184 12.516C50.7636 12.3169 50.7184 12.1386 50.5658 12.0704C50.2343 11.9205 49.3284 12.1785 48.7162 11.9888C48.057 11.784 47.5843 11.693 47.4261 11.9452C47.3846 12.0097 47.3639 12.0969 47.3696 12.1936Z" fill="white"/>
<path d="M47.9647 13.1648C47.4881 12.869 47.3073 12.4707 47.2979 12.1976C47.2923 12.0857 47.3168 11.9852 47.3657 11.9075C47.5465 11.6211 48.0249 11.7008 48.7369 11.9207C49.0533 12.0194 49.4582 11.9928 49.8161 11.9682C50.1438 11.9473 50.4263 11.9283 50.5959 12.0061C50.771 12.0857 50.8445 12.2887 50.788 12.5352C50.7239 12.8102 50.5186 13.0795 50.2531 13.2369C49.8255 13.491 49.0364 13.527 48.4318 13.3601C48.2566 13.3127 48.0965 13.2463 47.9665 13.1648H47.9647ZM49.8255 12.1104C49.4564 12.135 49.0364 12.1616 48.6954 12.0573C48.1492 11.8885 47.6256 11.7615 47.4863 11.9833C47.4524 12.0364 47.4373 12.1085 47.4411 12.1919C47.4505 12.4176 47.6125 12.7779 48.0419 13.0434C48.5787 13.3772 49.6786 13.4132 50.1815 13.1136C50.4621 12.9467 50.6072 12.6888 50.6505 12.5029C50.6655 12.4366 50.7032 12.2128 50.5393 12.1369C50.5243 12.1294 50.5073 12.1237 50.4904 12.1199C50.3416 12.0782 50.0911 12.0952 49.8274 12.1123L49.8255 12.1104Z" fill="#A54F3C"/>
<path d="M46.2922 10.4111C46.2564 10.6538 46.4391 10.8833 46.7047 10.9231C46.9684 10.9629 47.2132 10.7998 47.249 10.5571C47.2848 10.3143 47.1021 10.0849 46.8365 10.045C46.5728 10.0052 46.328 10.1683 46.2922 10.4111Z" fill="#CA7860"/>
<path d="M51.2796 10.787C51.2438 11.0298 51.4265 11.2592 51.6921 11.2991C51.9558 11.3389 52.2006 11.1758 52.2364 10.9331C52.2722 10.6903 52.0895 10.4608 51.8239 10.421C51.5603 10.3812 51.3154 10.5443 51.2796 10.787Z" fill="#CA7860"/>
<path d="M49.2699 11.2042C49.2812 11.208 49.2925 11.208 49.3038 11.2042C49.3698 11.1909 49.9404 11.0563 49.9178 10.7509C49.899 10.493 49.5148 9.33052 49.4997 9.28121C49.4865 9.24329 49.447 9.22432 49.4093 9.2357C49.3716 9.24898 49.3528 9.2888 49.3641 9.32673C49.4734 9.6586 49.7615 10.5613 49.7766 10.7623C49.7879 10.9064 49.4432 11.0278 49.2756 11.0657C49.2379 11.0733 49.2134 11.1112 49.221 11.1511C49.2266 11.1776 49.2473 11.1985 49.2718 11.2042H49.2699Z" fill="#A54F3C"/>
<path d="M51.0178 9.29076C50.999 9.63401 50.8446 9.9033 50.6713 9.89381C50.498 9.88433 50.3718 9.59987 50.3907 9.25662C50.4095 8.91337 50.5639 8.64408 50.7372 8.65356C50.9105 8.66305 51.0367 8.94751 51.0178 9.29076Z" fill="#2A2B35"/>
<path d="M48.4619 9.23509C48.4431 9.57834 48.2887 9.84763 48.1154 9.83815C47.9421 9.82867 47.8159 9.54421 47.8347 9.20096C47.8536 8.85771 48.008 8.58842 48.1813 8.5979C48.3546 8.60738 48.4808 8.89184 48.4619 9.23509Z" fill="#2A2B35"/>
<path d="M50.1683 7.81863C50.1853 7.82432 50.2041 7.82432 50.2229 7.81863C50.965 7.66882 51.6657 8.12585 51.6713 8.13154C51.7259 8.16757 51.7994 8.1524 51.8371 8.09741C51.8729 8.04241 51.8578 7.96845 51.8032 7.93052C51.7712 7.90966 51.0121 7.4128 50.1759 7.58348C50.1118 7.59675 50.0704 7.65934 50.0817 7.72571C50.0911 7.77122 50.125 7.80536 50.1664 7.81863H50.1683Z" fill="#A54F3C"/>
<path d="M46.8911 8.0127C46.9213 8.02029 46.9533 8.01839 46.9815 8.00132C47.846 7.49688 48.3753 7.81927 48.3809 7.82306C48.4374 7.8572 48.5109 7.84202 48.5448 7.78513C48.5806 7.72824 48.5636 7.65428 48.5071 7.62014C48.4808 7.60308 47.8498 7.21811 46.861 7.79461C46.8045 7.82875 46.7838 7.90081 46.8177 7.9577C46.8346 7.98615 46.861 8.00512 46.8892 8.0127H46.8911Z" fill="#A54F3C"/>
<path d="M50.739 77.5916C50.8784 78.0903 51.3248 78.4545 51.8521 78.4469L60.4539 78.3084C61.0133 78.2989 61.39 77.8704 61.4578 77.3887L50.739 77.5916Z" fill="#007F67"/>
<path d="M53.5567 40.0562C53.5567 40.0562 53.5549 40.0562 53.553 40.0562C53.5002 40.0543 48.2567 39.7736 45.4899 37.8999C43.7081 36.6938 42.1242 34.0218 40.785 29.9597C39.7906 26.9406 39.3103 24.2401 39.3046 24.2136C39.2971 24.1661 39.3272 24.1225 39.3743 24.1149C39.4214 24.1055 39.4647 24.1377 39.4722 24.1851C39.4911 24.2913 41.4047 34.9302 45.5841 37.7596C48.3113 39.6067 53.5078 39.8836 53.5605 39.8855C53.6076 39.8874 53.6434 39.9272 53.6415 39.9746C53.6396 40.0201 53.602 40.0562 53.5567 40.0562Z" fill="#76798A"/>
<path d="M54.1877 33.2986C54.1877 33.2986 54.1745 33.2986 54.1689 33.2967L50.3699 32.4262C50.3379 32.4186 50.3116 32.3921 50.3059 32.3599C49.722 29.4583 47.9836 22.5687 47.9648 22.4985C47.9535 22.453 47.9798 22.4056 48.0269 22.3942C48.0721 22.3828 48.1192 22.4094 48.1305 22.4568C48.1475 22.5251 49.8652 29.3351 50.4622 32.2707L54.2084 33.1298C54.2536 33.1412 54.2838 33.1867 54.2725 33.2322C54.263 33.272 54.2291 33.2986 54.1896 33.2986H54.1877Z" fill="#76798A"/>
<path d="M54.2234 25.7762C54.1782 25.7762 54.1424 25.7421 54.1387 25.6965C53.9805 23.3564 52.5566 20.6104 52.5434 20.5838C52.5208 20.5421 52.5377 20.4909 52.5792 20.4681C52.6206 20.4454 52.6715 20.4625 52.6941 20.5042C52.7091 20.5326 54.1481 23.309 54.3082 25.6852C54.312 25.7326 54.2762 25.7724 54.2291 25.7762C54.2272 25.7762 54.2253 25.7762 54.2234 25.7762Z" fill="#76798A"/>
<path d="M63.5767 36.3143C66.2249 36.2271 69.7827 37.6627 69.2158 38.6355C68.7543 39.1059 67.9426 38.6166 66.7711 38.4213C65.9687 38.2866 63.9025 38.8404 63.8291 37.7139C63.8253 37.2094 63.5748 36.3162 63.5748 36.3162L63.5767 36.3143Z" fill="#FEB7A3"/>
<path d="M64.5052 36.4868L49.4507 33.6934L46.2564 21.5981C46.7046 17.9399 41.2483 17.3805 40.9507 21.05L45.535 33.9873C45.4277 35.0171 47.1943 37.3667 48.2359 37.545L65.3754 40.5679C67.8182 40.951 66.9386 36.9818 64.5033 36.4868H64.5052Z" fill="#FEB7A3"/>
<path d="M66.9292 40.9054C67.142 41.0761 67.4584 41.0704 67.6618 40.8788C67.773 40.7745 67.8295 40.6342 67.8295 40.4939C68.031 40.5849 68.2758 40.5527 68.4454 40.3934C68.564 40.2815 68.6186 40.1298 68.6111 39.9799C68.8164 40.0842 69.0725 40.0577 69.2477 39.8927C69.4662 39.686 69.47 39.3712 69.3343 39.1019C69.1799 38.7947 68.6977 38.2011 68.2815 37.9754C68.0178 37.8332 67.5714 37.7744 67.353 37.9811C67.2343 38.093 66.9537 38.0191 66.9612 38.167C66.7559 38.0627 66.7258 38.3168 66.5506 38.4818C66.4395 38.5861 66.383 38.7264 66.383 38.8667C66.1814 38.7757 65.9366 38.808 65.7671 38.9673C65.6804 39.0488 65.6277 39.1531 65.6089 39.2612C65.396 39.0905 65.0796 39.0962 64.8762 39.2877C64.6577 39.4945 64.6521 39.8339 64.863 40.0482L65.9912 41.1861C66.204 41.4003 66.5525 41.406 66.771 41.1993C66.8576 41.1178 66.9103 41.0135 66.9292 40.9054Z" fill="#FEB7A3"/>
<path d="M42.2126 17.2614C44.9379 16.5673 47.1209 18.8961 48.1492 22.8463C49.1776 26.7965 50.3906 32.3416 50.3906 32.3416L63.3111 35.3019C63.3111 35.3019 61.7516 37.1983 62.1038 40.756C62.1038 40.756 49.3396 40.3502 45.5369 37.826C41.7361 35.3019 35.5885 18.9454 42.2126 17.2595V17.2614Z" fill="#FFC71A"/>
<path d="M67.8276 40.5797C67.79 40.5797 67.756 40.5551 67.7447 40.5153C67.515 39.6391 66.7785 39.2522 66.771 39.2485C66.7296 39.2276 66.7126 39.1745 66.7333 39.1328C66.754 39.091 66.8068 39.074 66.8482 39.0948C66.8821 39.1119 67.6581 39.5177 67.9086 40.4697C67.9199 40.5153 67.8935 40.5627 67.8483 40.574C67.8408 40.5759 67.8333 40.5759 67.8257 40.5759L67.8276 40.5797Z" fill="#A54F3C"/>
<path d="M68.6092 40.0673C68.5697 40.0673 68.5339 40.0388 68.5264 39.9971C68.3625 39.1475 67.53 38.6241 67.5206 38.6184C67.481 38.5938 67.4679 38.5407 67.4923 38.5008C67.5168 38.461 67.5696 38.4477 67.6091 38.4724C67.6468 38.4952 68.5151 39.0394 68.6921 39.9649C68.7015 40.0123 68.6714 40.0559 68.6243 40.0654C68.6186 40.0654 68.613 40.0654 68.6073 40.0654L68.6092 40.0673Z" fill="#A54F3C"/>
<path d="M49.0515 0C44.8288 0 41.4047 3.18407 41.4047 7.51926C41.4047 9.06483 41.8397 10.5042 42.5912 11.7179C43.0847 12.5144 44.8175 12.1427 44.8175 11.204V7.68046C44.8175 6.97878 45.3825 6.41176 46.0775 6.41176H52.0255C52.7224 6.41176 53.2855 6.98068 53.2855 7.68046V11.204C53.2855 12.1427 55.0183 12.5144 55.5118 11.7179C56.2633 10.5042 56.6983 9.06294 56.6983 7.51926C56.6983 3.18407 53.2742 0 49.0515 0Z" fill="url(#paint6_linear_2778_1751)"/>
<path d="M56 9.21938C56 10.7051 54.8597 12.4141 53.6248 11.9099C52.5208 11.4578 50.7549 10.552 49.58 10.5412C48.3706 10.5304 46.5173 11.456 45.3752 11.9099C44.1367 12.4015 43 10.7051 43 9.21938V7.69047C43 6.20477 44.0639 5 45.3752 5H53.623C54.9342 5 55.9982 6.20477 55.9982 7.69047V9.21938H56Z" fill="url(#paint7_linear_2778_1751)" stroke="#68FF3E" stroke-width="0.5" stroke-miterlimit="10"/>
<path d="M95.5978 56.5273C98.5441 57.9611 102.095 56.735 103.529 53.7887C104.962 50.8424 103.736 47.2917 100.79 45.8579C97.8438 44.424 94.293 45.6502 92.8592 48.5964C91.4254 51.5427 92.6515 55.0935 95.5978 56.5273Z" fill="white" stroke="#26CF13" stroke-width="1.16813" stroke-miterlimit="10"/>
<path d="M99.6099 48.3639L95.1726 49.6116C94.9891 49.6837 94.9787 49.9382 95.1568 50.0249L98.8479 51.8211C99.0225 51.9061 99.0164 52.1562 98.8383 52.2309L96.1463 53.379C95.8931 53.487 96.0156 53.8673 96.2851 53.8065L101.229 52.6964C101.437 52.6494 101.471 52.3693 101.28 52.2739L97.2646 50.2654C97.1165 50.1933 97.095 49.9909 97.2237 49.8878L99.8359 48.7466C100.037 48.5848 99.8536 48.2666 99.6116 48.3604L99.6099 48.3639Z" fill="#26CF13"/>
</g>
<defs>
<linearGradient id="paint0_linear_2778_1751" x1="88.2557" y1="38.0532" x2="59.209" y2="38.0532" gradientUnits="userSpaceOnUse">
<stop stop-color="#A9D6F7"/>
<stop offset="0.31" stop-color="#0085E8"/>
</linearGradient>
<linearGradient id="paint1_linear_2778_1751" x1="89.3218" y1="89.1807" x2="89.4459" y2="56.6649" gradientUnits="userSpaceOnUse">
<stop stop-color="#248AFF"/>
<stop offset="0.1" stop-color="#2F90F7"/>
<stop offset="0.28" stop-color="#4EA0E4"/>
<stop offset="0.51" stop-color="#81BCC4"/>
<stop offset="0.79" stop-color="#C6E099"/>
<stop offset="1" stop-color="#FFFF76"/>
</linearGradient>
<linearGradient id="paint2_linear_2778_1751" x1="74.9905" y1="45.3926" x2="74.9905" y2="26.2427" gradientUnits="userSpaceOnUse">
<stop stop-color="#469BFF"/>
<stop offset="1" stop-color="#FEF066"/>
</linearGradient>
<linearGradient id="paint3_linear_2778_1751" x1="29.6575" y1="92.2915" x2="29.6575" y2="51.9682" gradientUnits="userSpaceOnUse">
<stop stop-color="#248AFF"/>
<stop offset="0.1" stop-color="#2F90F7"/>
<stop offset="0.28" stop-color="#4EA0E4"/>
<stop offset="0.51" stop-color="#81BCC4"/>
<stop offset="0.79" stop-color="#C6E099"/>
<stop offset="1" stop-color="#FFFF76"/>
</linearGradient>
<linearGradient id="paint4_linear_2778_1751" x1="47.4223" y1="58.036" x2="78.6387" y2="58.036" gradientUnits="userSpaceOnUse">
<stop stop-color="#1853AC"/>
<stop offset="0.12" stop-color="#195AAF"/>
<stop offset="0.29" stop-color="#1E6FB8"/>
<stop offset="0.51" stop-color="#2691C8"/>
<stop offset="0.75" stop-color="#31C0DD"/>
<stop offset="0.92" stop-color="#3AE6EF"/>
</linearGradient>
<linearGradient id="paint5_linear_2778_1751" x1="29.3712" y1="58.0436" x2="85.3137" y2="58.0436" gradientUnits="userSpaceOnUse">
<stop stop-color="#1853AC"/>
<stop offset="1" stop-color="#3AE6EF"/>
</linearGradient>
<linearGradient id="paint6_linear_2778_1751" x1="49.0515" y1="12.1522" x2="49.0515" y2="0" gradientUnits="userSpaceOnUse">
<stop stop-color="#16B3FF"/>
<stop offset="1" stop-color="#36B971"/>
</linearGradient>
<linearGradient id="paint7_linear_2778_1751" x1="49.5637" y1="3.89788" x2="49.4674" y2="10.968" gradientUnits="userSpaceOnUse">
<stop stop-color="#1F5C6B"/>
<stop offset="1" stop-color="#76E2EA"/>
</linearGradient>
<clipPath id="clip0_2778_1751">
<rect width="97" height="96" fill="white" transform="translate(11)"/>
</clipPath>
</defs>
</svg>
