<svg width="24" height="24" viewBox="0 0 24 24" fill="none" xmlns="http://www.w3.org/2000/svg">
<path fill-rule="evenodd" clip-rule="evenodd" d="M12.3337 11.1654L21.667 1.83203L12.3337 11.1654Z" />
<path d="M8.33392 4.66536C9.16235 4.66536 9.83392 3.99379 9.83392 3.16536C9.83392 2.33694 9.16235 1.66536 8.33392 1.66536V4.66536ZM21.8337 15.1654C21.8337 14.3369 21.1621 13.6654 20.3337 13.6654C19.5052 13.6654 18.8337 14.3369 18.8337 15.1654H21.8337ZM18.8774 21.5413L18.1964 20.2048L18.8774 21.5413ZM20.0433 20.3761L18.7068 19.6951L20.0433 20.3761ZM1.95764 20.3761L0.621132 21.0571H0.621132L1.95764 20.3761ZM3.12272 21.5413L3.80371 20.2048L3.12272 21.5413ZM3.12272 3.45601L3.80371 4.79252L3.12272 3.45601ZM1.95764 4.62142L3.29415 5.30241L1.95764 4.62142ZM20.167 8.4987C20.167 9.32713 20.8386 9.9987 21.667 9.9987C22.4954 9.9987 23.167 9.32713 23.167 8.4987H20.167ZM21.667 1.83203H23.167C23.167 1.0036 22.4954 0.332031 21.667 0.332031V1.83203ZM15.0003 0.332031C14.1719 0.332031 13.5003 1.0036 13.5003 1.83203C13.5003 2.66046 14.1719 3.33203 15.0003 3.33203V0.332031ZM11.273 10.1047C10.6872 10.6905 10.6872 11.6402 11.273 12.226C11.8588 12.8118 12.8085 12.8118 13.3943 12.226L11.273 10.1047ZM8.33392 3.16536V1.66536H5.93392V3.16536V4.66536H8.33392V3.16536ZM1.66699 7.43197H0.166992V17.5653H1.66699H3.16699V7.43197H1.66699ZM5.93392 21.832V23.332H16.0673V21.832V20.332H5.93392V21.832ZM20.3337 17.5654H21.8337V15.1654H20.3337H18.8337V17.5654H20.3337ZM16.0673 21.832V23.332C16.7892 23.332 17.4208 23.3332 17.9407 23.2907C18.4781 23.2468 19.0265 23.1488 19.5584 22.8779L18.8774 21.5413L18.1964 20.2048C18.1578 20.2245 18.0479 20.2719 17.6962 20.3007C17.327 20.3309 16.8387 20.332 16.0673 20.332V21.832ZM20.3337 17.5654H18.8337C18.8337 18.337 18.8326 18.8254 18.8024 19.195C18.7737 19.547 18.7263 19.6568 18.7068 19.6951L20.0433 20.3761L21.3798 21.0571C21.6509 20.525 21.7487 19.9761 21.7925 19.4388C21.8349 18.9189 21.8337 18.2872 21.8337 17.5654H20.3337ZM18.8774 21.5413L19.5584 22.8779C20.3416 22.4788 20.9799 21.8418 21.3798 21.0571L20.0433 20.3761L18.7068 19.6951C18.5953 19.9138 18.4167 20.0926 18.1964 20.2048L18.8774 21.5413ZM1.66699 17.5653H0.166992C0.166992 18.2873 0.165826 18.919 0.208304 19.439C0.252211 19.9764 0.350096 20.5251 0.621132 21.0571L1.95764 20.3761L3.29415 19.6951C3.27454 19.6566 3.2271 19.5467 3.19834 19.1947C3.16816 18.8252 3.16699 18.3368 3.16699 17.5653H1.66699ZM5.93392 21.832V20.332C5.16247 20.332 4.6739 20.3309 4.30432 20.3007C3.95216 20.2719 3.84216 20.2244 3.80371 20.2048L3.12272 21.5413L2.44174 22.8779C2.97372 23.1489 3.52257 23.2468 4.06004 23.2907C4.58009 23.3332 5.2119 23.332 5.93392 23.332V21.832ZM1.95764 20.3761L0.621132 21.0571C1.02049 21.8408 1.6575 22.4783 2.44174 22.8779L3.12272 21.5413L3.80371 20.2048C3.58441 20.0931 3.40612 19.9148 3.29415 19.6951L1.95764 20.3761ZM5.93392 3.16536V1.66536C5.21192 1.66536 4.58011 1.6642 4.06007 1.70667C3.52262 1.75057 2.97374 1.84843 2.44174 2.1195L3.12272 3.45601L3.80371 4.79252C3.84213 4.77294 3.95212 4.72548 4.30429 4.69672C4.67388 4.66653 5.16245 4.66536 5.93392 4.66536V3.16536ZM1.66699 7.43197H3.16699C3.16699 6.66048 3.16816 6.1721 3.19834 5.80271C3.22709 5.45084 3.27452 5.34093 3.29415 5.30241L1.95764 4.62142L0.621132 3.94043C0.350114 4.47234 0.252218 5.02097 0.208305 5.5584C0.165825 6.0783 0.166992 6.70998 0.166992 7.43197H1.66699ZM3.12272 3.45601L2.44174 2.1195C1.65734 2.51917 1.02041 3.15681 0.621132 3.94043L1.95764 4.62142L3.29415 5.30241C3.4062 5.08249 3.58457 4.90418 3.80371 4.79252L3.12272 3.45601ZM21.667 8.4987H23.167V1.83203H21.667H20.167V8.4987H21.667ZM21.667 1.83203V0.332031H15.0003V1.83203V3.33203H21.667V1.83203ZM12.3337 11.1654L13.3943 12.226L22.7277 2.89269L21.667 1.83203L20.6063 0.771371L11.273 10.1047L12.3337 11.1654Z" fill="#4F4F4F"/>
</svg>
