<svg width="41" height="40" viewBox="0 0 41 40" fill="none" xmlns="http://www.w3.org/2000/svg">
<g clip-path="url(#clip0_144_13617)">
<path d="M33 6.25C33 5.25544 33.3951 4.30161 34.0984 3.59835C34.8016 2.89509 35.7554 2.5 36.75 2.5C37.7446 2.5 38.6984 2.89509 39.4016 3.59835C40.1049 4.30161 40.5 5.25544 40.5 6.25V33.75C40.5 34.7446 40.1049 35.6984 39.4016 36.4016C38.6984 37.1049 37.7446 37.5 36.75 37.5C35.7554 37.5 34.8016 37.1049 34.0984 36.4016C33.3951 35.6984 33 34.7446 33 33.75V6.25ZM30.5 8.06C25.3325 10.435 19.1525 11.7625 13 12.2V27.7925C13.9081 27.8437 14.815 27.9146 15.72 28.005C20.8525 28.515 25.815 29.675 30.5 31.905V8.06ZM10.5 27.6625V12.335C8.8 12.4025 7.0025 12.4425 5.48 12.4675C4.15585 12.4858 2.89189 13.0236 1.96041 13.9649C1.02892 14.9062 0.504462 16.1757 0.5 17.5L0.5 22.5C0.5 25.265 2.74 27.49 5.485 27.5225C5.89836 27.5277 6.31169 27.5343 6.725 27.5425C7.98376 27.5676 9.24218 27.6076 10.5 27.6625ZM13.975 30.365C14.6875 30.4175 15.3975 30.4825 16.1 30.56L16.7325 34.785C16.8013 35.1466 16.7895 35.5189 16.6978 35.8753C16.6061 36.2318 16.4368 36.5636 16.2021 36.847C15.9673 37.1305 15.6729 37.3587 15.3397 37.5152C15.0066 37.6717 14.6431 37.7527 14.275 37.7525H12.905C12.4191 37.7525 11.9437 37.6108 11.5369 37.3448C11.1302 37.0789 10.8099 36.7002 10.615 36.255L7.33 30.055C8.74063 30.0902 10.1507 30.1435 11.56 30.215C12.3775 30.2575 13.185 30.3075 13.975 30.365Z" fill="#1B7183"/>
</g>
<defs>
<clipPath id="clip0_144_13617">
<rect width="40" height="40" fill="white" transform="translate(0.5)"/>
</clipPath>
</defs>
</svg>
