<svg width="41" height="40" viewBox="0 0 41 40" fill="none" xmlns="http://www.w3.org/2000/svg">
<g clip-path="url(#clip0_108_11948)">
<path d="M35.8125 22.3438C33.2278 22.3438 31.125 20.2409 31.125 17.6562C31.125 15.0716 33.2278 12.9688 35.8125 12.9688C38.3972 12.9688 40.5 15.0716 40.5 17.6562C40.5 20.2409 38.3972 22.3438 35.8125 22.3438Z" fill="#1B7183"/>
<path d="M40.5 36.4062H28.7031C26.7646 36.4062 25.1875 34.8291 25.1875 32.8906C25.1875 30.9521 26.7646 29.375 28.7031 29.375H31.125V27.0312C31.125 24.4466 33.2278 22.3438 35.8125 22.3438C38.3972 22.3438 40.5 24.4466 40.5 27.0312V36.4062Z" fill="#1B7183"/>
<path d="M5.1875 22.3438C2.60281 22.3438 0.5 20.2409 0.5 17.6562C0.5 15.0716 2.60281 12.9688 5.1875 12.9688C7.77219 12.9688 9.875 15.0716 9.875 17.6562C9.875 20.2409 7.77219 22.3438 5.1875 22.3438Z" fill="#1B7183"/>
<path d="M12.2969 36.4062H0.5V27.0312C0.5 24.4466 2.60281 22.3438 5.1875 22.3438C7.77219 22.3438 9.875 24.4466 9.875 27.0312V29.375H12.2969C14.2354 29.375 15.8125 30.9521 15.8125 32.8906C15.8125 34.8291 14.2354 36.4062 12.2969 36.4062Z" fill="#1B7183"/>
<path d="M20.5 20C17.9153 20 15.8125 17.8972 15.8125 15.3125C15.8125 12.7278 17.9153 10.625 20.5 10.625C23.0847 10.625 25.1875 12.7278 25.1875 15.3125C25.1875 17.8972 23.0847 20 20.5 20Z" fill="#1B7183"/>
<path d="M12.2969 25.8594V27.0312H19.3281V20H18.1562C14.9258 20 12.2969 22.6281 12.2969 25.8594Z" fill="#1B7183"/>
<path d="M22.8438 20H21.6719V27.0312H28.7031V25.8594C28.7031 22.6281 26.075 20 22.8438 20Z" fill="#1B7183"/>
<path d="M24.0189 29.375H16.9814C17.7189 30.3547 18.1564 31.5727 18.1564 32.8906C18.1564 34.2086 17.7189 35.4266 16.9814 36.4062H24.0189C23.2814 35.4266 22.8439 34.2086 22.8439 32.8906C22.8439 31.5727 23.2814 30.3547 24.0189 29.375Z" fill="#1B7183"/>
<path d="M19.3281 3.59375H21.6719V8.28125H19.3281V3.59375Z" fill="#1B7183"/>
<path d="M11.3828 7.85547L13.0398 6.19844L16.3539 9.5125L14.6969 11.1695L11.3828 7.85547Z" fill="#1B7183"/>
<path d="M24.6396 9.51172L27.9537 6.19766L29.6107 7.85469L26.2967 11.1687L24.6396 9.51172Z" fill="#1B7183"/>
</g>
<defs>
<clipPath id="clip0_108_11948">
<rect width="40" height="40" fill="white" transform="translate(0.5)"/>
</clipPath>
</defs>
</svg>
