<svg width="33" height="24" viewBox="0 0 33 24" fill="none" xmlns="http://www.w3.org/2000/svg">
<path d="M4.5 14C3.43913 14 2.42172 14.4214 1.67157 15.1716C0.921427 15.9217 0.5 16.9391 0.5 18L0.5 20C0.5 21.0609 0.921427 22.0783 1.67157 22.8284C2.42172 23.5786 3.43913 24 4.5 24H28.5C29.5609 24 30.5783 23.5786 31.3284 22.8284C32.0786 22.0783 32.5 21.0609 32.5 20V18C32.5 16.9391 32.0786 15.9217 31.3284 15.1716C30.5783 14.4214 29.5609 14 28.5 14H4.5ZM5.5 20C5.23478 20 4.98043 19.8946 4.79289 19.7071C4.60536 19.5196 4.5 19.2652 4.5 19C4.5 18.7348 4.60536 18.4804 4.79289 18.2929C4.98043 18.1054 5.23478 18 5.5 18C5.76522 18 6.01957 18.1054 6.20711 18.2929C6.39464 18.4804 6.5 18.7348 6.5 19C6.5 19.2652 6.39464 19.5196 6.20711 19.7071C6.01957 19.8946 5.76522 20 5.5 20ZM9.5 20C9.23478 20 8.98043 19.8946 8.79289 19.7071C8.60536 19.5196 8.5 19.2652 8.5 19C8.5 18.7348 8.60536 18.4804 8.79289 18.2929C8.98043 18.1054 9.23478 18 9.5 18C9.76522 18 10.0196 18.1054 10.2071 18.2929C10.3946 18.4804 10.5 18.7348 10.5 19C10.5 19.2652 10.3946 19.5196 10.2071 19.7071C10.0196 19.8946 9.76522 20 9.5 20ZM4.5 0C3.43913 0 2.42172 0.421427 1.67157 1.17157C0.921427 1.92172 0.5 2.93913 0.5 4L0.5 6C0.5 7.06087 0.921427 8.07828 1.67157 8.82843C2.42172 9.57857 3.43913 10 4.5 10H28.5C29.5609 10 30.5783 9.57857 31.3284 8.82843C32.0786 8.07828 32.5 7.06087 32.5 6V4C32.5 2.93913 32.0786 1.92172 31.3284 1.17157C30.5783 0.421427 29.5609 0 28.5 0H4.5ZM5.5 6C5.23478 6 4.98043 5.89464 4.79289 5.70711C4.60536 5.51957 4.5 5.26522 4.5 5C4.5 4.73478 4.60536 4.48043 4.79289 4.29289C4.98043 4.10536 5.23478 4 5.5 4C5.76522 4 6.01957 4.10536 6.20711 4.29289C6.39464 4.48043 6.5 4.73478 6.5 5C6.5 5.26522 6.39464 5.51957 6.20711 5.70711C6.01957 5.89464 5.76522 6 5.5 6ZM9.5 6C9.23478 6 8.98043 5.89464 8.79289 5.70711C8.60536 5.51957 8.5 5.26522 8.5 5C8.5 4.73478 8.60536 4.48043 8.79289 4.29289C8.98043 4.10536 9.23478 4 9.5 4C9.76522 4 10.0196 4.10536 10.2071 4.29289C10.3946 4.48043 10.5 4.73478 10.5 5C10.5 5.26522 10.3946 5.51957 10.2071 5.70711C10.0196 5.89464 9.76522 6 9.5 6Z" fill="#1B7183"/>
</svg>
