<svg width="41" height="40" viewBox="0 0 41 40" fill="none" xmlns="http://www.w3.org/2000/svg">
<path d="M39.3281 12.5H36.9844V30.625C36.9844 31.2722 36.4597 31.7969 35.8125 31.7969H25.1875C23.2527 31.7969 21.678 33.3678 21.6719 35.3011C21.6702 35.824 21.3406 36.2968 20.837 36.4373C20.0453 36.6584 19.3281 36.0692 19.3281 35.3125C19.3281 33.374 17.751 31.7969 15.8125 31.7969H5.1875C4.54031 31.7969 4.01562 31.2722 4.01562 30.625V12.5H1.67188C1.02469 12.5 0.5 13.0247 0.5 13.6719V34.1406C0.5 34.7878 1.02469 35.3125 1.67188 35.3125H14.7584C15.3028 37.9836 17.6704 40 20.5 40C23.3296 40 25.6971 37.9836 26.2416 35.3125H39.3281C39.9753 35.3125 40.5 34.7878 40.5 34.1406V13.6719C40.5 13.0247 39.9753 12.5 39.3281 12.5Z" fill="#1B7183"/>
<path d="M33.4688 9.375H25.1875C23.2459 9.375 21.6719 10.949 21.6719 12.8906V30.6277C22.6518 29.8906 23.8696 29.4531 25.1875 29.4531H34.6406V10.5469C34.6406 9.89969 34.1159 9.375 33.4688 9.375ZM30.5391 25.2734H25.7734C25.1263 25.2734 24.6016 24.7487 24.6016 24.1016C24.6016 23.4544 25.1263 22.9297 25.7734 22.9297H30.5391C31.1862 22.9297 31.7109 23.4544 31.7109 24.1016C31.7109 24.7487 31.1862 25.2734 30.5391 25.2734ZM30.5391 20.5859H25.7734C25.1263 20.5859 24.6016 20.0612 24.6016 19.4141C24.6016 18.7669 25.1263 18.2422 25.7734 18.2422H30.5391C31.1862 18.2422 31.7109 18.7669 31.7109 19.4141C31.7109 20.0612 31.1862 20.5859 30.5391 20.5859ZM30.5391 15.8984H25.7734C25.1263 15.8984 24.6016 15.3738 24.6016 14.7266C24.6016 14.0794 25.1263 13.5547 25.7734 13.5547H30.5391C31.1862 13.5547 31.7109 14.0794 31.7109 14.7266C31.7109 15.3738 31.1862 15.8984 30.5391 15.8984Z" fill="#1B7183"/>
<path d="M6.35938 10.5469V29.4531H15.8125C17.1304 29.4531 18.3482 29.8906 19.3281 30.6277V12.8906C19.3281 10.949 17.7541 9.375 15.8125 9.375H7.53125C6.88406 9.375 6.35938 9.89969 6.35938 10.5469ZM9.28906 24.1016C9.28906 23.4544 9.81375 22.9297 10.4609 22.9297H15.2266C15.8737 22.9297 16.3984 23.4544 16.3984 24.1016C16.3984 24.7487 15.8737 25.2734 15.2266 25.2734H10.4609C9.81375 25.2734 9.28906 24.7487 9.28906 24.1016ZM9.28906 19.4141C9.28906 18.7669 9.81375 18.2422 10.4609 18.2422H15.2266C15.8737 18.2422 16.3984 18.7669 16.3984 19.4141C16.3984 20.0612 15.8737 20.5859 15.2266 20.5859H10.4609C9.81375 20.5859 9.28906 20.0612 9.28906 19.4141ZM9.28906 14.7266C9.28906 14.0794 9.81375 13.5547 10.4609 13.5547H15.2266C15.8737 13.5547 16.3984 14.0794 16.3984 14.7266C16.3984 15.3738 15.8737 15.8984 15.2266 15.8984H10.4609C9.81375 15.8984 9.28906 15.3738 9.28906 14.7266Z" fill="#1B7183"/>
<path d="M9.95312 0H12.2969V5.46875H9.95312V0Z" fill="#1B7183"/>
<path d="M7.60938 0H4.875C3.79633 0 2.92188 0.874453 2.92188 1.95312V3.51562C2.92188 4.5943 3.79633 5.46875 4.875 5.46875H7.60938V0Z" fill="#1B7183"/>
<path d="M37.1605 1.58898L31.0469 0.230469V5.23555L37.1605 3.87695C37.6966 3.75773 38.0781 3.28219 38.0781 2.73297C38.0781 2.18375 37.6966 1.7082 37.1605 1.58898Z" fill="#1B7183"/>
<path d="M14.6406 0H28.7031V5.46875H14.6406V0Z" fill="#1B7183"/>
</svg>
