<svg width="24" height="24" viewBox="0 0 24 24" fill="none" xmlns="http://www.w3.org/2000/svg">
<path d="M7.97006 3C10.3186 3 12.6666 3 15.0151 3C15.2033 3.0317 15.392 3.06142 15.5803 3.09511C18.6649 3.64693 20.9891 6.40455 20.9975 9.53169C21.0029 11.5091 20.9975 13.4866 20.9995 15.464C21 15.7612 20.9737 16.0555 20.9291 16.3492C20.4328 19.6056 17.6652 21.9922 14.3721 21.9982C12.4501 22.0017 10.5286 21.9992 8.6066 21.9987C8.3718 21.9987 8.13799 21.9962 7.90418 21.9645C5.33277 21.6113 3.52769 20.2412 2.47554 17.8754C2.21251 17.2839 2.08966 16.6529 2 16.0153C2 13.6669 2 11.3189 2 8.97046C2.01981 8.8491 2.03814 8.72724 2.05994 8.60588C2.49833 6.1752 3.85561 4.46871 6.11098 3.47504C6.70343 3.21449 7.33303 3.09065 7.97006 3ZM17.265 11.8326C17.2873 11.3848 17.2234 10.8964 17.0539 10.4263C16.5878 9.12996 15.661 8.26062 14.4503 7.67116C13.148 7.03711 11.7695 6.87513 10.3503 7.10249C9.01626 7.31649 7.83632 7.86385 6.89365 8.85752C6.20312 9.58519 5.78206 10.4456 5.7251 11.4556C5.65971 12.6098 6.0664 13.6015 6.84015 14.4446C7.78975 15.4794 8.99595 16.0297 10.3626 16.2625C10.8456 16.3447 11.076 16.6647 10.9982 17.1487C10.9645 17.3577 10.8887 17.5534 10.8268 17.7535C10.7787 17.9096 10.8382 17.9834 10.9987 17.9626C11.0888 17.9512 11.179 17.9195 11.2642 17.8853C11.5847 17.7555 11.9047 17.6247 12.2227 17.488C13.4205 16.9729 14.5618 16.3611 15.5377 15.4823C16.6042 14.5214 17.314 13.3835 17.265 11.8326Z" fill="white"/>
<path d="M12.5891 11.7669C12.5891 11.5098 12.5891 11.2656 12.5891 11.0214C12.5891 10.8421 12.5861 10.6633 12.5911 10.484C12.5965 10.2898 12.6684 10.2229 12.866 10.216C13.2237 10.2036 13.2851 10.263 13.2851 10.6271C13.2856 11.3315 13.2856 12.0354 13.2846 12.7398C13.2846 12.8993 13.3079 13.0722 13.1033 13.1395C12.8863 13.2109 12.6347 13.1366 12.5108 12.9508C12.2438 12.5496 11.9833 12.1444 11.7198 11.7412C11.6871 11.6911 11.6514 11.6436 11.582 11.546C11.582 11.7045 11.582 11.8066 11.582 11.9091C11.582 12.1994 11.5825 12.4896 11.582 12.7799C11.5815 13.1123 11.375 13.252 11.057 13.1366C10.943 13.095 10.891 13.0098 10.8905 12.8948C10.889 12.0854 10.888 11.2765 10.8915 10.4671C10.892 10.3056 10.9861 10.2289 11.1506 10.2145C11.4037 10.1922 11.5865 10.273 11.7227 10.4983C11.9496 10.8733 12.1958 11.2364 12.4365 11.6035C12.4717 11.6575 12.4915 11.7273 12.5891 11.7669Z" fill="white"/>
<path d="M14.5932 10.2159C14.7784 10.2159 14.9637 10.2129 15.1485 10.2169C15.3526 10.2214 15.4279 10.3036 15.4343 10.5186C15.4417 10.7757 15.3694 10.8851 15.1633 10.8985C14.991 10.9099 14.8181 10.904 14.6452 10.904C14.5298 10.904 14.4332 10.9183 14.4376 11.0704C14.4416 11.2131 14.5362 11.221 14.6422 11.221C14.8087 11.221 14.9756 11.217 15.142 11.224C15.355 11.2329 15.4348 11.3295 15.4353 11.5643C15.4353 11.8005 15.3565 11.8981 15.1445 11.9065C14.9657 11.9135 14.7864 11.911 14.6076 11.9095C14.4931 11.909 14.4347 11.96 14.4376 12.0769C14.4391 12.1389 14.4406 12.2008 14.4371 12.2622C14.4292 12.3964 14.4936 12.4539 14.6244 12.4534C14.7973 12.4529 14.9706 12.449 15.1425 12.4603C15.3684 12.4752 15.4373 12.5673 15.4353 12.82C15.4328 13.0563 15.3605 13.1504 15.1381 13.1558C14.774 13.1647 14.4099 13.1647 14.0458 13.1563C13.8269 13.1514 13.7466 13.0632 13.7461 12.8428C13.7436 12.0651 13.7431 11.2874 13.7466 10.5097C13.7476 10.2976 13.8298 10.2199 14.0389 10.2164C14.2227 10.2134 14.4079 10.2159 14.5932 10.2159Z" fill="white"/>
<path d="M7.55164 11.6702C7.55164 11.3001 7.55015 10.9296 7.55213 10.5596C7.55362 10.2817 7.62446 10.2153 7.9078 10.2158C8.18619 10.2158 8.24613 10.2728 8.24712 10.5502C8.24861 11.1119 8.24663 11.6731 8.24811 12.2349C8.24861 12.4563 8.27189 12.4776 8.49282 12.4786C8.73356 12.4801 8.97431 12.4761 9.21456 12.4806C9.43499 12.4845 9.51425 12.5737 9.51871 12.8075C9.52317 13.0418 9.44539 13.1523 9.23437 13.1562C8.77171 13.1651 8.30904 13.1646 7.84638 13.1567C7.63139 13.1528 7.55461 13.0611 7.55263 12.8372C7.54916 12.4479 7.55164 12.059 7.55164 11.6702Z" fill="white"/>
<path d="M9.773 11.6762C9.773 11.2933 9.77151 10.9103 9.77349 10.5274C9.77498 10.2803 9.84334 10.2178 10.1004 10.2159C10.3768 10.2139 10.463 10.2783 10.464 10.5136C10.4675 11.2918 10.4675 12.0695 10.464 12.8477C10.463 13.079 10.3595 13.1627 10.1044 13.1607C9.86315 13.1587 9.77498 13.0765 9.77349 12.8427C9.77151 12.4544 9.773 12.065 9.773 11.6762Z" fill="white"/>
</svg>
