<svg width="32" height="23" viewBox="0 0 32 23" fill="none" xmlns="http://www.w3.org/2000/svg">
<path d="M16.102 -0.00390625H16.28C17.924 0.00209375 26.254 0.0620941 28.5 0.666094C29.179 0.850431 29.7977 1.20974 30.2943 1.70811C30.7909 2.20648 31.1481 2.82646 31.33 3.50609C31.532 4.26609 31.674 5.27209 31.77 6.31009L31.79 6.51809L31.834 7.03809L31.85 7.24609C31.98 9.07409 31.996 10.7861 31.998 11.1601V11.3101C31.996 11.6981 31.978 13.5261 31.834 15.4301L31.818 15.6401L31.8 15.8481C31.7 16.9921 31.552 18.1281 31.33 18.9641C31.1486 19.644 30.7917 20.2643 30.295 20.7627C29.7983 21.2612 29.1793 21.6203 28.5 21.8041C26.18 22.4281 17.362 22.4721 16.14 22.4741H15.856C15.238 22.4741 12.682 22.4621 10.002 22.3701L9.662 22.3581L9.488 22.3501L9.146 22.3361L8.804 22.3221C6.584 22.2241 4.47 22.0661 3.496 21.8021C2.81698 21.6185 2.19813 21.2597 1.70145 20.7616C1.20477 20.2635 0.847694 19.6436 0.666 18.9641C0.444 18.1301 0.296 16.9921 0.196 15.8481L0.18 15.6381L0.164 15.4301C0.0652952 14.0749 0.0105997 12.7168 0 11.3581L0 11.1121C0.004 10.6821 0.02 9.19609 0.128 7.55609L0.142 7.35009L0.148 7.24609L0.164 7.03809L0.208 6.51809L0.228 6.31009C0.324 5.27209 0.466 4.26409 0.668 3.50609C0.849387 2.82619 1.20632 2.20592 1.70303 1.70746C2.19973 1.209 2.81874 0.849878 3.498 0.666094C4.472 0.406094 6.586 0.246094 8.806 0.146094L9.146 0.132094L9.49 0.120094L9.662 0.114094L10.004 0.100094C11.9074 0.0388432 13.8116 0.00483948 15.716 -0.00190616H16.102V-0.00390625ZM12.8 6.41609V16.0521L21.114 11.2361L12.8 6.41609Z" fill="#1B7183"/>
</svg>
