<svg width="33" height="28" viewBox="0 0 33 28" fill="none" xmlns="http://www.w3.org/2000/svg">
<path d="M22.5 2C22.5 1.46957 22.7107 0.960859 23.0858 0.585786C23.4609 0.210714 23.9696 0 24.5 0H28.5C29.0304 0 29.5391 0.210714 29.9142 0.585786C30.2893 0.960859 30.5 1.46957 30.5 2V26H31.5C31.7652 26 32.0196 26.1054 32.2071 26.2929C32.3946 26.4804 32.5 26.7348 32.5 27C32.5 27.2652 32.3946 27.5196 32.2071 27.7071C32.0196 27.8946 31.7652 28 31.5 28H1.5C1.23478 28 0.98043 27.8946 0.792893 27.7071C0.605357 27.5196 0.5 27.2652 0.5 27C0.5 26.7348 0.605357 26.4804 0.792893 26.2929C0.98043 26.1054 1.23478 26 1.5 26H2.5V20C2.5 19.4696 2.71071 18.9609 3.08579 18.5858C3.46086 18.2107 3.96957 18 4.5 18H8.5C9.03043 18 9.53914 18.2107 9.91421 18.5858C10.2893 18.9609 10.5 19.4696 10.5 20V26H12.5V12C12.5 11.4696 12.7107 10.9609 13.0858 10.5858C13.4609 10.2107 13.9696 10 14.5 10H18.5C19.0304 10 19.5391 10.2107 19.9142 10.5858C20.2893 10.9609 20.5 11.4696 20.5 12V26H22.5V2Z" fill="#1B7183"/>
</svg>
