<svg width="25" height="32" viewBox="0 0 25 32" fill="none" xmlns="http://www.w3.org/2000/svg">
<path d="M15.086 0H4.5C3.43913 0 2.42172 0.421427 1.67157 1.17157C0.921427 1.92172 0.5 2.93913 0.5 4V28C0.5 29.0609 0.921427 30.0783 1.67157 30.8284C2.42172 31.5786 3.43913 32 4.5 32H20.5C21.5609 32 22.5783 31.5786 23.3284 30.8284C24.0786 30.0783 24.5 29.0609 24.5 28V9.414C24.4999 8.88361 24.2891 8.37499 23.914 8L16.5 0.586C16.125 0.210901 15.6164 0.000113275 15.086 0V0ZM15.5 7V3L21.5 9H17.5C16.9696 9 16.4609 8.78929 16.0858 8.41421C15.7107 8.03914 15.5 7.53043 15.5 7ZM13.5 15V22.586L15.792 20.292C15.9798 20.1042 16.2344 19.9987 16.5 19.9987C16.7656 19.9987 17.0202 20.1042 17.208 20.292C17.3958 20.4798 17.5013 20.7344 17.5013 21C17.5013 21.2656 17.3958 21.5202 17.208 21.708L13.208 25.708C13.1151 25.8011 13.0048 25.875 12.8833 25.9254C12.7618 25.9758 12.6315 26.0018 12.5 26.0018C12.3685 26.0018 12.2382 25.9758 12.1167 25.9254C11.9952 25.875 11.8849 25.8011 11.792 25.708L7.792 21.708C7.60423 21.5202 7.49874 21.2656 7.49874 21C7.49874 20.7344 7.60423 20.4798 7.792 20.292C7.97977 20.1042 8.23445 19.9987 8.5 19.9987C8.76555 19.9987 9.02023 20.1042 9.208 20.292L11.5 22.586V15C11.5 14.7348 11.6054 14.4804 11.7929 14.2929C11.9804 14.1054 12.2348 14 12.5 14C12.7652 14 13.0196 14.1054 13.2071 14.2929C13.3946 14.4804 13.5 14.7348 13.5 15Z" fill="#1B7183"/>
</svg>
