<svg width="25" height="32" viewBox="0 0 25 32" fill="none" xmlns="http://www.w3.org/2000/svg">
<path fill-rule="evenodd" clip-rule="evenodd" d="M0.5 31V4C0.5 2.93913 0.921427 1.92172 1.67157 1.17157C2.42172 0.421427 3.43913 0 4.5 0L20.5 0C21.5609 0 22.5783 0.421427 23.3284 1.17157C24.0786 1.92172 24.5 2.93913 24.5 4V31C24.5001 31.1737 24.455 31.3443 24.3692 31.4953C24.2833 31.6462 24.1596 31.7722 24.0102 31.8608C23.8609 31.9494 23.691 31.9976 23.5174 32.0006C23.3438 32.0036 23.1723 31.9614 23.02 31.878L12.5 26.138L1.98 31.878C1.82766 31.9614 1.65624 32.0036 1.48261 32.0006C1.30898 31.9976 1.13913 31.9494 0.989784 31.8608C0.840433 31.7722 0.716729 31.6462 0.630849 31.4953C0.544969 31.3443 0.499873 31.1737 0.5 31ZM12.82 8.2C12.7908 8.14003 12.7453 8.08947 12.6887 8.05411C12.6321 8.01875 12.5667 8 12.5 8C12.4333 8 12.3679 8.01875 12.3113 8.05411C12.2547 8.08947 12.2092 8.14003 12.18 8.2L10.912 10.77C10.8866 10.822 10.8489 10.867 10.8022 10.9012C10.7556 10.9353 10.7012 10.9576 10.644 10.966L7.804 11.378C7.73862 11.3879 7.6773 11.4159 7.6269 11.4587C7.57651 11.5015 7.53904 11.5575 7.51869 11.6204C7.49834 11.6833 7.49591 11.7507 7.51169 11.8149C7.52746 11.8791 7.56081 11.9377 7.608 11.984L9.66 13.986C9.744 14.068 9.782 14.186 9.762 14.302L9.28 17.13C9.26913 17.1953 9.27668 17.2623 9.30181 17.3236C9.32694 17.3848 9.36864 17.4379 9.42224 17.4767C9.47584 17.5156 9.53922 17.5387 9.60524 17.5435C9.67126 17.5483 9.73732 17.5347 9.796 17.504L12.336 16.168C12.3869 16.1414 12.4435 16.1275 12.501 16.1275C12.5585 16.1275 12.6151 16.1414 12.666 16.168L15.206 17.504C15.2646 17.5341 15.3304 17.5473 15.3961 17.5423C15.4618 17.5372 15.5248 17.514 15.5781 17.4752C15.6314 17.4364 15.6729 17.3836 15.6979 17.3227C15.723 17.2617 15.7306 17.195 15.72 17.13L15.236 14.3C15.2258 14.2432 15.2296 14.1847 15.247 14.1297C15.2644 14.0746 15.295 14.0246 15.336 13.984L17.392 11.982C17.4392 11.9357 17.4725 11.8771 17.4883 11.8129C17.5041 11.7487 17.5017 11.6813 17.4813 11.6184C17.461 11.5555 17.4235 11.4995 17.3731 11.4567C17.3227 11.4139 17.2614 11.3859 17.196 11.376L14.356 10.964C14.2988 10.9556 14.2444 10.9333 14.1978 10.8992C14.1511 10.865 14.1134 10.82 14.088 10.768L12.82 8.2Z" fill="#1B7183"/>
</svg>
