<svg width="19" height="19" viewBox="0 0 19 19" fill="none" xmlns="http://www.w3.org/2000/svg">
<path d="M5.97006 0C8.31856 0 10.6666 0 13.0151 0C13.2033 0.0317024 13.392 0.0614235 13.5803 0.0951073C16.6649 0.646928 18.9891 3.40455 18.9975 6.53169C19.0029 8.50913 18.9975 10.4866 18.9995 12.464C19 12.7612 18.9737 13.0555 18.9291 13.3492C18.4328 16.6056 15.6652 18.9922 12.3721 18.9982C10.4501 19.0017 8.52859 18.9992 6.6066 18.9987C6.3718 18.9987 6.13799 18.9962 5.90418 18.9645C3.33277 18.6113 1.52769 17.2412 0.475544 14.8754C0.212509 14.2839 0.0896599 13.6529 0 13.0153C0 10.6669 0 8.31892 0 5.97046C0.0198143 5.8491 0.0381426 5.72724 0.0599384 5.60588C0.498331 3.1752 1.85561 1.46871 4.11098 0.475041C4.70343 0.214487 5.33303 0.0906492 5.97006 0ZM15.265 8.8326C15.2873 8.3848 15.2234 7.89638 15.0539 7.4263C14.5878 6.12996 13.661 5.26062 12.4503 4.67116C11.148 4.03711 9.76946 3.87513 8.35026 4.10249C7.01626 4.31649 5.83632 4.86385 4.89365 5.85752C4.20312 6.58519 3.78206 7.44562 3.7251 8.45564C3.65971 9.6098 4.0664 10.6015 4.84015 11.4446C5.78975 12.4794 6.99595 13.0297 8.36264 13.2625C8.84562 13.3447 9.07596 13.6647 8.99819 14.1487C8.9645 14.3577 8.88871 14.5534 8.82679 14.7535C8.77874 14.9096 8.83819 14.9834 8.99868 14.9626C9.08884 14.9512 9.17899 14.9195 9.2642 14.8853C9.58469 14.7555 9.90469 14.6247 10.2227 14.488C11.4205 13.9729 12.5618 13.3611 13.5377 12.4823C14.6042 11.5214 15.314 10.3835 15.265 8.8326Z" fill="#198DA1"/>
</svg>
