<svg width="19" height="19" viewBox="0 0 19 19" fill="none" xmlns="http://www.w3.org/2000/svg">
<path d="M5.97006 0C8.31856 0 10.6666 0 13.0151 0C13.2033 0.0317024 13.392 0.0614235 13.5803 0.0951073C16.6649 0.646928 18.9891 3.40455 18.9975 6.53169C19.0029 8.50913 18.9975 10.4866 18.9995 12.464C19 12.7612 18.9737 13.0555 18.9291 13.3492C18.4328 16.6056 15.6652 18.9922 12.3721 18.9982C10.4501 19.0017 8.52859 18.9992 6.6066 18.9987C6.3718 18.9987 6.13799 18.9962 5.90418 18.9645C3.33277 18.6113 1.52769 17.2412 0.475544 14.8754C0.212509 14.2839 0.0896599 13.6529 0 13.0153C0 10.6669 0 8.31892 0 5.97046C0.0198143 5.8491 0.0381426 5.72724 0.0599384 5.60588C0.498331 3.1752 1.85561 1.46871 4.11098 0.475041C4.70343 0.214487 5.33303 0.0906492 5.97006 0ZM15.265 8.8326C15.2873 8.3848 15.2234 7.89638 15.0539 7.4263C14.5878 6.12996 13.661 5.26062 12.4503 4.67116C11.148 4.03711 9.76946 3.87513 8.35026 4.10249C7.01626 4.31649 5.83632 4.86385 4.89365 5.85752C4.20312 6.58519 3.78206 7.44562 3.7251 8.45564C3.65971 9.6098 4.0664 10.6015 4.84015 11.4446C5.78975 12.4794 6.99595 13.0297 8.36264 13.2625C8.84562 13.3447 9.07596 13.6647 8.99819 14.1487C8.9645 14.3577 8.88871 14.5534 8.82679 14.7535C8.77874 14.9096 8.83819 14.9834 8.99868 14.9626C9.08884 14.9512 9.17899 14.9195 9.2642 14.8853C9.58469 14.7555 9.90469 14.6247 10.2227 14.488C11.4205 13.9729 12.5618 13.3611 13.5377 12.4823C14.6042 11.5214 15.314 10.3835 15.265 8.8326Z" fill="#198DA1"/>
<path d="M10.5891 8.76693C10.5891 8.50985 10.5891 8.26564 10.5891 8.02143C10.5891 7.84211 10.5861 7.66329 10.5911 7.48397C10.5965 7.2898 10.6684 7.22292 10.866 7.21599C11.2237 7.20361 11.2851 7.26305 11.2851 7.62713C11.2856 8.33152 11.2856 9.03541 11.2846 9.7398C11.2846 9.8993 11.3079 10.0722 11.1033 10.1395C10.8863 10.2109 10.6347 10.1366 10.5108 9.95082C10.2438 9.54959 9.98328 9.14439 9.71975 8.74117C9.68706 8.69114 9.65139 8.64359 9.58204 8.54601C9.58204 8.70452 9.58204 8.80656 9.58204 8.9091C9.58204 9.19937 9.58254 9.48965 9.58204 9.77992C9.58155 10.1123 9.37498 10.252 9.05696 10.1366C8.94303 10.095 8.89102 10.0098 8.89052 9.89485C8.88904 9.08544 8.88805 8.27654 8.89151 7.46713C8.89201 7.30565 8.98613 7.22887 9.15059 7.2145C9.40371 7.19221 9.5865 7.27296 9.72272 7.49834C9.9496 7.87332 10.1958 8.23641 10.4365 8.60347C10.4717 8.65746 10.4915 8.7273 10.5891 8.76693Z" fill="#198DA1"/>
<path d="M12.5932 7.21591C12.7784 7.21591 12.9637 7.21294 13.1485 7.2169C13.3526 7.22136 13.4279 7.30359 13.4343 7.51857C13.4417 7.77566 13.3694 7.88513 13.1633 7.89851C12.991 7.9099 12.8181 7.90396 12.6452 7.90396C12.5298 7.90396 12.4332 7.91832 12.4376 8.07039C12.4416 8.21305 12.5362 8.22098 12.6422 8.22098C12.8087 8.22098 12.9756 8.21702 13.142 8.22395C13.355 8.23287 13.4348 8.32946 13.4353 8.56426C13.4353 8.80054 13.3565 8.89812 13.1445 8.90655C12.9657 8.91348 12.7864 8.911 12.6076 8.90952C12.4931 8.90902 12.4347 8.96004 12.4376 9.07695C12.4391 9.13887 12.4406 9.20078 12.4371 9.26221C12.4292 9.39645 12.4936 9.45391 12.6244 9.45341C12.7973 9.45292 12.9706 9.44895 13.1425 9.46035C13.3684 9.47521 13.4373 9.56734 13.4353 9.81997C13.4328 10.0563 13.3605 10.1504 13.1381 10.1558C12.774 10.1647 12.4099 10.1647 12.0458 10.1563C11.8269 10.1514 11.7466 10.0632 11.7461 9.84276C11.7436 9.06506 11.7431 8.28736 11.7466 7.50966C11.7476 7.29765 11.8298 7.21988 12.0389 7.21641C12.2227 7.21344 12.4079 7.21591 12.5932 7.21591Z" fill="#198DA1"/>
<path d="M5.55164 8.67017C5.55164 8.30015 5.55015 7.92962 5.55213 7.5596C5.55362 7.2817 5.62446 7.21533 5.9078 7.21582C6.18619 7.21582 6.24613 7.27279 6.24712 7.55018C6.24861 8.11191 6.24663 8.67315 6.24811 9.23487C6.24861 9.45629 6.27189 9.47759 6.49282 9.47859C6.73356 9.48007 6.97431 9.47611 7.21456 9.48057C7.43499 9.48453 7.51425 9.57369 7.51871 9.8075C7.52317 10.0418 7.44539 10.1523 7.23437 10.1562C6.77171 10.1651 6.30904 10.1646 5.84638 10.1567C5.63139 10.1528 5.55461 10.0611 5.55263 9.83722C5.54916 9.44787 5.55164 9.05902 5.55164 8.67017Z" fill="#198DA1"/>
<path d="M7.773 8.67616C7.773 8.29325 7.77151 7.91035 7.77349 7.52744C7.77498 7.28026 7.84334 7.21785 8.10043 7.21586C8.37684 7.21388 8.46303 7.27828 8.46402 7.51357C8.46749 8.29177 8.46749 9.06947 8.46402 9.84766C8.46303 10.079 8.3595 10.1627 8.10439 10.1607C7.86315 10.1587 7.77498 10.0765 7.77349 9.84271C7.77151 9.45435 7.773 9.06501 7.773 8.67616Z" fill="#198DA1"/>
</svg>
