<svg width="26" height="28" viewBox="0 0 26 28" fill="none" xmlns="http://www.w3.org/2000/svg">
<path d="M2.3335 8.66797C1.50507 8.66797 0.833496 9.33954 0.833496 10.168C0.833496 10.9964 1.50507 11.668 2.3335 11.668V8.66797ZM23.6668 11.668C24.4953 11.668 25.1668 10.9964 25.1668 10.168C25.1668 9.33954 24.4953 8.66797 23.6668 8.66797V11.668ZM3.78923 25.8773L4.47021 24.5408L3.78923 25.8773ZM2.62415 24.712L1.28764 25.393L2.62415 24.712ZM23.3765 24.712L22.04 24.031L23.3765 24.712ZM22.2105 25.8773L21.5296 24.5408L22.2105 25.8773ZM22.2105 5.12528L22.8915 3.78878V3.78878L22.2105 5.12528ZM23.3765 6.29069L22.04 6.97168L23.3765 6.29069ZM3.78923 5.12528L4.47021 6.46179L3.78923 5.12528ZM2.62415 6.29069L3.96066 6.97168L2.62415 6.29069ZM18.3335 17.0013C19.1619 17.0013 19.8335 16.3297 19.8335 15.5013C19.8335 14.6729 19.1619 14.0013 18.3335 14.0013V17.0013ZM7.66683 14.0013C6.8384 14.0013 6.16683 14.6729 6.16683 15.5013C6.16683 16.3297 6.8384 17.0013 7.66683 17.0013V14.0013ZM19.8335 2.16797C19.8335 1.33954 19.1619 0.667969 18.3335 0.667969C17.5051 0.667969 16.8335 1.33954 16.8335 2.16797H19.8335ZM16.8335 4.83464C16.8335 5.66306 17.5051 6.33464 18.3335 6.33464C19.1619 6.33464 19.8335 5.66306 19.8335 4.83464H16.8335ZM9.16683 2.16797C9.16683 1.33954 8.49526 0.667969 7.66683 0.667969C6.8384 0.667969 6.16683 1.33954 6.16683 2.16797H9.16683ZM6.16683 4.83464C6.16683 5.66306 6.8384 6.33464 7.66683 6.33464C8.49526 6.33464 9.16683 5.66306 9.16683 4.83464H6.16683ZM2.3335 10.168V11.668H23.6668V10.168V8.66797H2.3335V10.168ZM6.60042 4.83464V6.33464H19.4004V4.83464V3.33464H6.60042V4.83464ZM23.6668 9.10124H22.1668V21.9012H23.6668H25.1668V9.10124H23.6668ZM19.4004 26.168V24.668H6.60042V26.168V27.668H19.4004V26.168ZM2.3335 21.9012H3.8335V9.10124H2.3335H0.833496V21.9012H2.3335ZM6.60042 26.168V24.668C5.82897 24.668 5.3404 24.6668 4.97083 24.6366C4.61867 24.6078 4.50866 24.5604 4.47021 24.5408L3.78923 25.8773L3.10824 27.2138C3.64022 27.4848 4.18908 27.5827 4.72654 27.6266C5.24659 27.6691 5.8784 27.668 6.60042 27.668V26.168ZM2.3335 21.9012H0.833496C0.833496 22.6232 0.83233 23.255 0.874808 23.7749C0.918715 24.3123 1.0166 24.8611 1.28764 25.393L2.62415 24.712L3.96066 24.031C3.94104 23.9925 3.8936 23.8826 3.86485 23.5306C3.83466 23.1612 3.8335 22.6727 3.8335 21.9012H2.3335ZM3.78923 25.8773L4.47021 24.5408C4.25092 24.429 4.07262 24.2508 3.96066 24.031L2.62415 24.712L1.28764 25.393C1.68699 26.1768 2.324 26.8142 3.10824 27.2138L3.78923 25.8773ZM23.6668 21.9012H22.1668C22.1668 22.6729 22.1657 23.1613 22.1356 23.5309C22.1069 23.8829 22.0595 23.9927 22.04 24.031L23.3765 24.712L24.713 25.393C24.9841 24.8609 25.0819 24.312 25.1257 23.7747C25.1681 23.2548 25.1668 22.6231 25.1668 21.9012H23.6668ZM19.4004 26.168V27.668C20.1224 27.668 20.754 27.6691 21.2738 27.6266C21.8113 27.5827 22.3597 27.4848 22.8915 27.2138L22.2105 25.8773L21.5296 24.5408C21.4909 24.5604 21.3811 24.6079 21.0294 24.6366C20.6602 24.6668 20.1719 24.668 19.4004 24.668V26.168ZM23.3765 24.712L22.04 24.031C21.9285 24.2498 21.7499 24.4285 21.5296 24.5408L22.2105 25.8773L22.8915 27.2138C23.6748 26.8147 24.3131 26.1778 24.713 25.393L23.3765 24.712ZM19.4004 4.83464V6.33464C20.1719 6.33464 20.6602 6.3358 21.0294 6.36598C21.3811 6.39472 21.491 6.44213 21.5296 6.46179L22.2105 5.12528L22.8915 3.78878C22.3597 3.51779 21.8112 3.41987 21.2738 3.37595C20.754 3.33347 20.1224 3.33464 19.4004 3.33464V4.83464ZM23.6668 9.10124H25.1668C25.1668 8.37941 25.1681 7.74771 25.1257 7.22791C25.0819 6.69056 24.9841 6.14178 24.713 5.6097L23.3765 6.29069L22.04 6.97168C22.0595 7.01004 22.1069 7.11979 22.1356 7.47174C22.1657 7.84123 22.1668 8.3296 22.1668 9.10124H23.6668ZM22.2105 5.12528L21.5296 6.46179C21.7497 6.57396 21.9284 6.75277 22.04 6.97168L23.3765 6.29069L24.713 5.6097C24.3132 4.82508 23.6749 4.18793 22.8915 3.78878L22.2105 5.12528ZM6.60042 4.83464V3.33464C5.87842 3.33464 5.24661 3.33347 4.72657 3.37595C4.18912 3.41984 3.64025 3.5177 3.10824 3.78878L3.78923 5.12528L4.47021 6.46179C4.50864 6.44222 4.61862 6.39475 4.97079 6.36599C5.34038 6.3358 5.82895 6.33464 6.60042 6.33464V4.83464ZM2.3335 9.10124H3.8335C3.8335 8.32975 3.83466 7.84137 3.86485 7.47198C3.8936 7.12011 3.94102 7.0102 3.96066 6.97168L2.62415 6.29069L1.28764 5.6097C1.01662 6.14161 0.918722 6.69024 0.874809 7.22767C0.832329 7.74757 0.833496 8.37925 0.833496 9.10124H2.3335ZM3.78923 5.12528L3.10824 3.78878C2.32384 4.18845 1.68691 4.82608 1.28764 5.6097L2.62415 6.29069L3.96066 6.97168C4.07271 6.75177 4.25108 6.57345 4.47021 6.46179L3.78923 5.12528ZM18.3335 15.5013V14.0013H7.66683V15.5013V17.0013H18.3335V15.5013ZM18.3335 2.16797H16.8335V4.83464H18.3335H19.8335V2.16797H18.3335ZM7.66683 2.16797H6.16683V4.83464H7.66683H9.16683V2.16797H7.66683Z" fill="#1B7183"/>
</svg>
