<svg width="371" height="236" viewBox="0 0 371 236" fill="none" xmlns="http://www.w3.org/2000/svg">
<g clip-path="url(#clip0_1_4557)">
<path d="M193.487 63.8359C188.471 66.9233 183.644 70.3054 179.045 73.9641C168.497 82.3543 158.28 92.5934 144.896 94.8013C131.494 97.0124 118.43 90.5904 105.765 85.7839C82.4754 76.946 53.947 73.2408 31.0926 85.3869C9.296 96.9691 1.32736 123.56 7.0471 146.251C12.0829 166.229 25.9598 183.082 41.9909 196.338C54.9271 207.035 70.1016 216.053 86.9221 217.905C115.768 221.081 142.702 202.986 171.613 200.353C192.364 198.463 212.918 204.635 232.595 211.336C252.271 218.037 272.156 225.428 292.981 226.101C313.806 226.773 336.239 219.363 347.603 202.207C355.649 190.06 357.083 174.189 352.336 160.487C347.589 146.785 337.01 135.337 324.072 128.397C316.296 124.226 306.967 120.909 303.26 113.008C298.431 102.72 305.864 91.0697 306.485 79.7526C307.28 65.2476 296.068 51.9749 282.363 46.5116C268.657 41.0484 253.107 42.0906 238.683 45.3692C222.715 48.9994 207.379 55.2841 193.489 63.8338L193.487 63.8359Z" fill="#EEFDFD"/>
<path d="M330.269 38.1292V120.063C330.269 121.472 329.116 122.614 327.695 122.614H264.039C262.612 122.621 261.456 121.446 261.465 120.063V38.1292C261.465 36.7206 262.618 35.5781 264.039 35.5781H327.695C329.117 35.5781 330.269 36.7206 330.269 38.1292Z" fill="#9EDDE3"/>
<path d="M330.269 38.1295V120.063C330.269 121.472 329.116 122.614 327.695 122.614H264.038C262.719 122.614 261.633 121.631 261.481 120.364C261.588 120.182 261.646 120.085 261.646 120.085C261.646 120.085 325.443 117.112 325.443 35.8044L325.709 35.5784C327.774 35.4781 330.129 35.4844 330.269 38.1295Z" fill="#9EDDE3"/>
<path d="M325.442 39.4648H266.29V116.509H325.442V39.4648Z" fill="white"/>
<g opacity="0.27">
<path d="M325.441 39.4648V116.509H277.609C296.079 109.942 324.139 91.4248 325.398 39.4648H325.441Z" fill="#9EDDE3"/>
</g>
<path d="M314.312 71.114C307.24 70.9884 307.242 60.5719 314.312 60.4473C321.384 60.5729 321.383 70.9894 314.312 71.114ZM314.312 61.3057C308.377 61.4113 308.378 70.1521 314.312 70.2577C320.246 70.1521 320.246 61.4113 314.312 61.3057Z" fill="url(#paint0_linear_1_4557)"/>
<path d="M314.89 68.3522C314.374 68.5402 311.763 65.4791 311.387 65.2352C310.592 64.439 311.807 63.2321 312.611 64.022L314.891 66.2816L320.018 61.2006C320.82 60.4118 322.038 61.6155 321.242 62.4138C320.992 62.531 315.164 68.7862 314.891 68.3533L314.89 68.3522Z" fill="#009999"/>
<path d="M314.312 106.637C307.24 106.512 307.242 96.0953 314.312 95.9707C321.384 96.0964 321.383 106.513 314.312 106.637ZM314.312 96.8281C308.377 96.9337 308.378 105.674 314.312 105.779C320.246 105.673 320.246 96.9326 314.312 96.8281Z" fill="url(#paint1_linear_1_4557)"/>
<path d="M314.89 103.719C314.374 103.907 311.763 100.846 311.387 100.602C310.592 99.8062 311.807 98.5993 312.611 99.3891L314.891 101.649L320.018 96.5678C320.82 95.779 322.038 96.9827 321.242 97.781C320.992 97.8982 315.164 104.153 314.891 103.72L314.89 103.719Z" fill="#009999"/>
<path d="M314.312 88.8757C307.24 88.7501 307.242 78.3336 314.312 78.209C321.384 78.3346 321.383 88.7511 314.312 88.8757ZM314.312 79.0664C308.377 79.172 308.378 87.9127 314.312 88.0173C320.246 87.9117 320.246 79.1709 314.312 79.0664Z" fill="url(#paint2_linear_1_4557)"/>
<path d="M314.89 86.0338C314.373 86.2197 311.765 83.1618 311.387 82.9168C310.592 82.1207 311.807 80.9138 312.611 81.7036L314.891 83.9632L320.018 78.8822C320.82 78.0935 322.038 79.2972 321.242 80.0954C321.002 80.2074 315.148 86.4773 314.891 86.0349L314.89 86.0338Z" fill="#009999"/>
<path d="M314.6 34.0053H307.648V30.0055C307.648 29.0383 306.857 28.2559 305.881 28.2559H285.85C284.874 28.2559 284.084 29.0393 284.084 30.0055V34.0053C275.221 34.4086 275.168 31.8111 275.366 40.7937C275.366 41.7609 276.157 42.5444 277.131 42.5444H314.6C315.576 42.5444 316.365 41.7609 316.365 40.7937V35.7559C316.365 34.7887 315.575 34.0053 314.6 34.0053ZM295.866 32.8818C294.351 32.8564 294.352 30.6232 295.866 30.5979C297.38 30.6232 297.38 32.8564 295.866 32.8818Z" fill="url(#paint3_linear_1_4557)"/>
<g opacity="0.27">
<path d="M314.6 34.0053H307.648V30.0055C307.648 29.0383 306.857 28.2559 305.881 28.2559C305.881 42.4588 275.366 40.7947 275.366 40.7947C275.366 41.7619 276.157 42.5454 277.131 42.5454H314.6C315.576 42.5454 316.365 41.7619 316.365 40.7947V35.757C316.365 34.7898 315.575 34.0063 314.6 34.0063V34.0053Z" fill="#009999"/>
</g>
<path d="M273.372 62.0781H272.891C272.842 62.0781 272.798 62.1087 272.782 62.1542C272.722 62.3199 272.609 62.4678 272.445 62.5934C272.275 62.7254 272.117 62.8151 271.975 62.8606C271.929 62.8764 271.896 62.9197 271.896 62.9693V63.5036C271.896 63.5406 271.914 63.5743 271.943 63.5965C271.973 63.6176 272.012 63.624 272.047 63.6124C272.273 63.5384 272.478 63.4339 272.663 63.3009V65.2754C272.663 65.3388 272.714 65.3894 272.778 65.3894H273.371C273.435 65.3894 273.486 65.3388 273.486 65.2754V62.1932C273.486 62.1299 273.435 62.0792 273.371 62.0792L273.372 62.0781Z" fill="url(#paint4_linear_1_4557)"/>
<path d="M273.235 82.0711C273.429 81.8948 273.56 81.7628 273.637 81.6657C273.752 81.521 273.837 81.3795 273.891 81.2444C273.947 81.106 273.974 80.9593 273.974 80.8072C273.974 80.5327 273.874 80.2993 273.676 80.1145C273.48 79.9308 273.212 79.8379 272.877 79.8379C272.573 79.8379 272.316 79.9171 272.11 80.0734C271.899 80.2339 271.772 80.4947 271.734 80.8494C271.731 80.8801 271.739 80.9096 271.76 80.9339C271.779 80.9571 271.807 80.973 271.837 80.9751L272.429 81.0342C272.461 81.0374 272.49 81.0279 272.515 81.0078C272.538 80.9878 272.553 80.9593 272.555 80.9276C272.565 80.7871 272.597 80.6847 272.649 80.6319C272.7 80.5802 272.769 80.5548 272.862 80.5548C272.955 80.5548 273.026 80.5781 273.075 80.6266C273.124 80.6752 273.148 80.7481 273.148 80.8484C273.148 80.9434 273.112 81.0437 273.045 81.144C273.007 81.199 272.894 81.3278 272.57 81.6276C272.227 81.9434 272.001 82.1926 271.882 82.3879C271.761 82.5864 271.687 82.7997 271.664 83.0214C271.66 83.0542 271.671 83.0859 271.692 83.1101C271.715 83.1344 271.746 83.1481 271.779 83.1481H273.859C273.923 83.1481 273.974 83.0975 273.974 83.0341V82.4882C273.974 82.4249 273.923 82.3742 273.859 82.3742H272.913C272.971 82.315 273.079 82.2126 273.236 82.0701L273.235 82.0711Z" fill="url(#paint5_linear_1_4557)"/>
<path d="M273.559 99.0924C273.763 98.9277 273.866 98.7218 273.866 98.4779C273.866 98.2583 273.782 98.0598 273.617 97.8887C273.419 97.6818 273.154 97.5762 272.832 97.5762C272.645 97.5762 272.474 97.6121 272.321 97.6818C272.166 97.7536 272.042 97.8549 271.954 97.9827C271.868 98.1062 271.805 98.2699 271.764 98.4695C271.758 98.5001 271.764 98.5318 271.782 98.5571C271.8 98.5825 271.827 98.6004 271.858 98.6057L272.405 98.6975C272.436 98.7028 272.468 98.6954 272.494 98.6764C272.519 98.6574 272.535 98.6289 272.54 98.5983C272.552 98.4916 272.584 98.4114 272.637 98.3607C272.687 98.3121 272.744 98.2889 272.816 98.2889C272.887 98.2889 272.941 98.3079 272.981 98.348C273.02 98.3871 273.04 98.442 273.04 98.5138C273.04 98.6025 273.013 98.668 272.953 98.7197C272.891 98.7736 272.794 98.7989 272.664 98.7947C272.606 98.7926 272.555 98.8359 272.547 98.8939L272.482 99.3733C272.477 99.4113 272.492 99.4494 272.52 99.4747C272.549 99.5 272.59 99.5085 272.627 99.499C272.722 99.4726 272.803 99.4589 272.869 99.4589C272.952 99.4589 273.019 99.4884 273.078 99.5518C273.138 99.6172 273.167 99.707 273.167 99.8263C273.167 99.9541 273.135 100.051 273.071 100.122C273.009 100.191 272.938 100.222 272.848 100.222C272.763 100.222 272.694 100.195 272.637 100.139C272.576 100.081 272.538 99.9921 272.523 99.8738C272.515 99.8115 272.458 99.7672 272.395 99.7746L271.821 99.8432C271.758 99.8506 271.713 99.9076 271.719 99.9699C271.752 100.256 271.873 100.492 272.079 100.67C272.285 100.847 272.545 100.938 272.853 100.938C273.178 100.938 273.455 100.832 273.674 100.621C273.896 100.41 274.008 100.15 274.008 99.8506C274.008 99.6394 273.946 99.4546 273.822 99.3036C273.75 99.2139 273.663 99.1431 273.561 99.0914L273.559 99.0924Z" fill="url(#paint6_linear_1_4557)"/>
<path d="M286.617 63.3066H276.828C276.589 63.3066 276.396 63.4988 276.396 63.7353C276.396 63.9719 276.589 64.164 276.828 64.164H286.617C286.856 64.164 287.05 63.9719 287.05 63.7353C287.05 63.4988 286.856 63.3066 286.617 63.3066Z" fill="#9EDDE3"/>
<path d="M305.147 63.3066H290.411C290.172 63.3066 289.979 63.4988 289.979 63.7353C289.979 63.9719 290.172 64.164 290.411 64.164H305.147C305.385 64.164 305.579 63.9719 305.579 63.7353C305.579 63.4988 305.385 63.3066 305.147 63.3066Z" fill="#9EDDE3"/>
<path d="M305.147 67.3965H271.718C271.479 67.3965 271.285 67.5887 271.285 67.8252C271.285 68.0617 271.479 68.2539 271.718 68.2539H305.147C305.385 68.2539 305.579 68.0617 305.579 67.8252C305.579 67.5887 305.385 67.3965 305.147 67.3965Z" fill="#9EDDE3"/>
<g opacity="0.52">
<path d="M305.147 81.0664H276.828C276.589 81.0664 276.396 81.2586 276.396 81.4951C276.396 81.7316 276.589 81.9238 276.828 81.9238H305.147C305.385 81.9238 305.579 81.7316 305.579 81.4951C305.579 81.2586 305.385 81.0664 305.147 81.0664Z" fill="url(#paint7_linear_1_4557)"/>
</g>
<g opacity="0.52">
<path d="M281.649 85.1602H271.718C271.479 85.1602 271.285 85.3523 271.285 85.5889C271.285 85.8254 271.479 86.0175 271.718 86.0175H281.649C281.887 86.0175 282.081 85.8254 282.081 85.5889C282.081 85.3523 281.887 85.1602 281.649 85.1602Z" fill="url(#paint8_linear_1_4557)"/>
</g>
<g opacity="0.52">
<path d="M305.146 85.1602H285.736C285.498 85.1602 285.304 85.3523 285.304 85.5889C285.304 85.8254 285.498 86.0175 285.736 86.0175H305.146C305.385 86.0175 305.579 85.8254 305.579 85.5889C305.579 85.3523 305.385 85.1602 305.146 85.1602Z" fill="url(#paint9_linear_1_4557)"/>
</g>
<g opacity="0.58">
<path d="M292.606 98.8281H276.828C276.589 98.8281 276.396 99.0203 276.396 99.2568C276.396 99.4933 276.589 99.6855 276.828 99.6855H292.606C292.844 99.6855 293.038 99.4933 293.038 99.2568C293.038 99.0203 292.844 98.8281 292.606 98.8281Z" fill="#9EDDE3"/>
</g>
<g opacity="0.58">
<path d="M305.146 98.8281H295.875C295.636 98.8281 295.442 99.0203 295.442 99.2568C295.442 99.4933 295.636 99.6855 295.875 99.6855H305.146C305.385 99.6855 305.579 99.4933 305.579 99.2568C305.579 99.0203 305.385 98.8281 305.146 98.8281Z" fill="#9EDDE3"/>
</g>
<g opacity="0.58">
<path d="M280.058 102.922H271.718C271.479 102.922 271.285 103.114 271.285 103.351C271.285 103.587 271.479 103.779 271.718 103.779H280.058C280.297 103.779 280.491 103.587 280.491 103.351C280.491 103.114 280.297 102.922 280.058 102.922Z" fill="#9EDDE3"/>
</g>
<g opacity="0.58">
<path d="M305.146 102.922H282.741C282.502 102.922 282.309 103.114 282.309 103.351C282.309 103.587 282.502 103.779 282.741 103.779H305.146C305.385 103.779 305.579 103.587 305.579 103.351C305.579 103.114 305.385 102.922 305.146 102.922Z" fill="#9EDDE3"/>
</g>
<path d="M190.847 29.1816H72.4239C69.8146 29.1816 67.6992 31.2783 67.6992 33.8646V189.345C67.6992 191.932 69.8146 194.028 72.4239 194.028H190.847C193.456 194.028 195.571 191.932 195.571 189.345V33.8646C195.571 31.2783 193.456 29.1816 190.847 29.1816Z" fill="url(#paint10_linear_1_4557)"/>
<path d="M186.258 33.7285H77.0109C74.4015 33.7285 72.2861 35.8251 72.2861 38.4115V184.798C72.2861 187.384 74.4015 189.481 77.0109 189.481H186.258C188.867 189.481 190.983 187.384 190.983 184.798V38.4115C190.983 35.8251 188.867 33.7285 186.258 33.7285Z" fill="white"/>
<path d="M109.005 90.3524H87.5156V69.0527H109.005V90.3524ZM87.8363 90.0346H108.684V69.3706H87.8363V90.0346Z" fill="black"/>
<path d="M109.005 120.841H87.5156V99.541H109.005V120.841ZM87.8363 120.522H108.684V99.8578H87.8363V120.522Z" fill="black"/>
<path d="M109.005 151.327H87.5156V130.027H109.005V151.327ZM87.8363 151.008H108.684V130.344H87.8363V151.008Z" fill="black"/>
<path d="M109.005 181.813H87.5156V160.514H109.005V181.813ZM87.8363 181.496H108.684V160.832H87.8363V181.496Z" fill="black"/>
<path d="M106.954 69.4643C105.65 71.6078 104.414 73.785 103.248 75.994C102.665 77.0974 102.095 78.2093 101.537 79.3254C100.982 80.4425 100.441 81.567 99.9096 82.6958C99.1756 84.2659 98.465 85.8466 97.7832 87.44C97.6298 87.2753 97.4764 87.1105 97.3219 86.9469C96.964 86.5625 96.6049 86.1792 96.2374 85.8023C95.8731 85.4232 95.5087 85.0441 95.1348 84.6714L94.5776 84.1107L94.0119 83.5564C93.6369 83.1847 93.2502 82.8236 92.8678 82.4582C92.0922 81.736 91.3113 81.018 90.4814 80.338C90.9481 81.2999 91.4626 82.2249 91.9836 83.1446C92.2488 83.6007 92.5109 84.06 92.7847 84.5088L93.1916 85.1867L93.6071 85.8572C93.882 86.3059 94.1653 86.7484 94.4487 87.1897C94.7289 87.6343 95.0187 88.0714 95.3084 88.5086C95.8827 89.3871 96.476 90.2508 97.0747 91.1103L98.4053 93.0225L99.6198 90.8305C100.831 88.6427 101.975 86.4242 103.073 84.1825C103.618 83.0601 104.154 81.9334 104.676 80.8005C105.196 79.6664 105.703 78.526 106.196 77.3793C107.184 75.087 108.103 72.7619 108.952 70.404C109.378 69.2256 109.78 68.0356 110.158 66.8351C110.534 65.6334 110.892 64.4234 111.184 63.1816C110.399 64.1911 109.68 65.2322 108.979 66.2807C108.28 67.3313 107.604 68.3915 106.954 69.4643Z" fill="#009999"/>
<path d="M106.954 129.423C105.65 131.567 104.414 133.744 103.248 135.953C102.665 137.057 102.095 138.168 101.537 139.284C100.982 140.401 100.441 141.526 99.9096 142.655C99.1756 144.225 98.465 145.806 97.7832 147.399C97.6298 147.234 97.4764 147.07 97.3219 146.906C96.964 146.522 96.6049 146.138 96.2374 145.761C95.8731 145.382 95.5087 145.003 95.1348 144.63L94.5776 144.07L94.0119 143.515C93.6369 143.144 93.2502 142.783 92.8678 142.417C92.0922 141.695 91.3113 140.977 90.4814 140.297C90.9481 141.259 91.4626 142.184 91.9836 143.104C92.2488 143.56 92.5109 144.019 92.7847 144.468L93.1916 145.146L93.6071 145.816C93.882 146.265 94.1653 146.707 94.4487 147.149C94.7289 147.593 95.0187 148.03 95.3084 148.468C95.8827 149.346 96.476 150.21 97.0747 151.069L98.4053 152.982L99.6198 150.789C100.831 148.602 101.975 146.383 103.073 144.142C103.618 143.019 104.154 141.892 104.676 140.759C105.196 139.625 105.703 138.485 106.196 137.338C107.184 135.046 108.103 132.721 108.952 130.363C109.378 129.185 109.78 127.995 110.158 126.794C110.534 125.592 110.892 124.382 111.184 123.141C110.399 124.15 109.68 125.191 108.979 126.24C108.28 127.29 107.604 128.35 106.954 129.423Z" fill="#009999"/>
<path d="M167.223 69.2109H117.918C117.411 69.2109 117.001 69.6185 117.001 70.1201C117.001 70.6216 117.412 71.0292 117.918 71.0292H167.223C167.73 71.0292 168.14 70.6216 168.14 70.1201C168.14 69.6185 167.729 69.2109 167.223 69.2109Z" fill="#9EDDE3"/>
<path d="M175.796 74.002H117.918C117.411 74.002 117.001 74.4095 117.001 74.9111C117.001 75.4137 117.412 75.8202 117.918 75.8202H175.796C176.303 75.8202 176.714 75.4126 176.714 74.9111C176.714 74.4085 176.302 74.002 175.796 74.002Z" fill="#9EDDE3"/>
<path d="M171.708 78.791H117V80.6103H171.708V78.791Z" fill="#9EDDE3"/>
<path d="M167.223 83.584H117.918C117.411 83.584 117.001 83.9916 117.001 84.4931C117.001 84.9947 117.412 85.4022 117.918 85.4022H167.223C167.73 85.4022 168.14 84.9947 168.14 84.4931C168.14 83.9916 167.729 83.584 167.223 83.584Z" fill="#9EDDE3"/>
<path d="M180.63 88.373H117.918C117.411 88.373 117.001 88.7806 117.001 89.2822C117.001 89.7848 117.412 90.1913 117.918 90.1913H180.63C181.137 90.1913 181.547 89.7837 181.547 89.2822C181.547 88.7796 181.136 88.373 180.63 88.373Z" fill="#9EDDE3"/>
<path d="M167.223 99.6973H117.918C117.411 99.6973 117.001 100.105 117.001 100.606C117.001 101.108 117.412 101.516 117.918 101.516H167.223C167.73 101.516 168.14 101.108 168.14 100.606C168.14 100.105 167.729 99.6973 167.223 99.6973Z" fill="#B9EFEB"/>
<path d="M150.568 104.488H117.918C117.411 104.488 117.001 104.896 117.001 105.397C117.001 105.899 117.412 106.307 117.918 106.307H150.568C151.075 106.307 151.486 105.899 151.486 105.397C151.486 104.896 151.074 104.488 150.568 104.488Z" fill="#B9EFEB"/>
<path d="M170.79 109.277H117.918C117.411 109.277 117.001 109.685 117.001 110.186C117.001 110.688 117.412 111.096 117.918 111.096H170.79C171.297 111.096 171.708 110.688 171.708 110.186C171.708 109.685 171.296 109.277 170.79 109.277Z" fill="#B9EFEB"/>
<path d="M167.223 114.07H117.918C117.411 114.07 117.001 114.478 117.001 114.979C117.001 115.481 117.412 115.889 117.918 115.889H167.223C167.73 115.889 168.14 115.481 168.14 114.979C168.14 114.478 167.729 114.07 167.223 114.07Z" fill="#B9EFEB"/>
<path d="M137.929 118.859H117.917C117.41 118.859 117 119.267 117 119.769C117 120.27 117.411 120.678 117.917 120.678H137.929C138.437 120.678 138.847 120.27 138.847 119.769C138.847 119.267 138.435 118.859 137.929 118.859Z" fill="#B9EFEB"/>
<path d="M167.223 130.186H117.918C117.411 130.186 117.001 130.593 117.001 131.095C117.001 131.596 117.412 132.004 117.918 132.004H167.223C167.73 132.004 168.14 131.596 168.14 131.095C168.14 130.593 167.729 130.186 167.223 130.186Z" fill="#9EDDE3"/>
<path d="M175.796 134.977H117.918C117.411 134.977 117.001 135.384 117.001 135.886C117.001 136.388 117.412 136.795 117.918 136.795H175.796C176.303 136.795 176.714 136.387 176.714 135.886C176.714 135.383 176.302 134.977 175.796 134.977Z" fill="#9EDDE3"/>
<path d="M145.29 139.766H117.918C117.411 139.766 117.001 140.173 117.001 140.675C117.001 141.176 117.412 141.584 117.918 141.584H145.29C145.797 141.584 146.207 141.176 146.207 140.675C146.207 140.173 145.796 139.766 145.29 139.766Z" fill="#9EDDE3"/>
<path d="M167.223 144.559H117.918C117.411 144.559 117.001 144.966 117.001 145.468C117.001 145.969 117.412 146.377 117.918 146.377H167.223C167.73 146.377 168.14 145.969 168.14 145.468C168.14 144.966 167.729 144.559 167.223 144.559Z" fill="#9EDDE3"/>
<path d="M180.63 149.348H117.918C117.411 149.348 117.001 149.755 117.001 150.257C117.001 150.758 117.412 151.166 117.918 151.166H180.63C181.137 151.166 181.547 150.758 181.547 150.257C181.547 149.755 181.136 149.348 180.63 149.348Z" fill="#9EDDE3"/>
<path d="M167.223 160.674H117.918C117.411 160.674 117.001 161.081 117.001 161.583C117.001 162.085 117.412 162.492 117.918 162.492H167.223C167.73 162.492 168.14 162.085 168.14 161.583C168.14 161.081 167.729 160.674 167.223 160.674Z" fill="#B9EFEB"/>
<path d="M175.796 165.465H117.918C117.411 165.465 117.001 165.872 117.001 166.374C117.001 166.877 117.412 167.283 117.918 167.283H175.796C176.303 167.283 176.714 166.876 176.714 166.374C176.714 165.871 176.302 165.465 175.796 165.465Z" fill="#B9EFEB"/>
<path d="M147.368 170.254H117.918C117.411 170.254 117.001 170.661 117.001 171.163C117.001 171.666 117.412 172.072 117.918 172.072H147.368C147.875 172.072 148.285 171.665 148.285 171.163C148.285 170.66 147.874 170.254 147.368 170.254Z" fill="#B9EFEB"/>
<path d="M117.918 175.047H167.223C167.729 175.047 168.14 175.454 168.14 175.956C168.14 176.458 167.729 176.865 167.223 176.865H117.918C117.412 176.865 117.001 176.458 117.001 175.956C117.001 175.454 117.412 175.047 117.918 175.047Z" fill="#B9EFEB"/>
<path d="M180.63 179.838H117.918C117.411 179.838 117.001 180.245 117.001 180.747C117.001 181.25 117.412 181.656 117.918 181.656H180.63C181.137 181.656 181.547 181.249 181.547 180.747C181.547 180.244 181.136 179.838 180.63 179.838Z" fill="#B9EFEB"/>
<path d="M166.233 24.5H97.0374C95.6371 24.5 94.502 25.6251 94.502 27.0131V35.9566C94.502 37.3445 95.6371 38.4696 97.0374 38.4696H166.233C167.633 38.4696 168.768 37.3445 168.768 35.9566V27.0131C168.768 25.6251 167.633 24.5 166.233 24.5Z" fill="#009999"/>
<path d="M344.606 201.861C342.887 201.782 341.203 202.308 339.591 202.904C326.914 207.593 313.015 225.207 310.249 229.291L322.792 231.045C330.787 223.116 345.226 220.45 349.072 208.752C349.557 207.274 349.693 205.581 348.932 204.222C348.098 202.732 346.324 201.941 344.606 201.861Z" fill="url(#paint11_linear_1_4557)"/>
<path d="M343.302 177.307C336.208 171.308 326.995 181.173 322.713 186.114C316.239 193.585 311.044 202.126 306.716 210.964C306.09 212.243 299.828 227.761 299.749 227.749C299.752 227.749 302.436 228.125 302.436 228.125L310.26 229.219C310.26 229.219 324.426 209.087 337.083 197.685C343.075 192.287 348.204 181.453 343.303 177.307H343.302Z" fill="url(#paint12_linear_1_4557)"/>
<path d="M320.792 203.539C315.782 211.034 310.86 219.668 306.556 228.508L307.693 229.052C313.135 217.874 324.424 197.082 338.89 183.414L338.019 182.508C332.31 187.901 326.515 194.978 320.792 203.539Z" fill="url(#paint13_linear_1_4557)"/>
<path d="M261.633 162.79C254.836 160.272 252.848 168.179 253.365 173.655C254.034 180.751 260.101 186.122 263.455 191.806C269.629 202.267 271.88 208.904 275.282 224.315L285.526 225.758C285.526 225.758 288.986 192.219 276.288 174.715C272.858 169.985 266.877 164.732 261.633 162.789V162.79Z" fill="#166311"/>
<path d="M285.573 225.821L285.517 225.814L275.236 224.365L275.227 224.329C271.93 209.388 269.759 202.597 263.407 191.835C262.383 190.099 261.13 188.425 259.803 186.653C256.84 182.695 253.776 178.602 253.309 173.661C253.123 171.683 253.27 169.598 253.724 167.794C254.252 165.695 255.168 164.102 256.372 163.189C257.784 162.118 259.56 161.968 261.649 162.742C267.301 164.837 273.22 170.402 276.329 174.687C279.229 178.684 281.52 183.858 283.137 190.065C284.431 195.028 285.3 200.659 285.719 206.801C286.432 217.258 285.584 225.684 285.576 225.767L285.571 225.822L285.573 225.821ZM275.325 224.27L285.478 225.701C285.55 224.956 286.299 216.811 285.615 206.805C285.197 200.67 284.328 195.047 283.036 190.09C281.422 183.897 279.137 178.735 276.245 174.748C273.146 170.476 267.246 164.928 261.615 162.842C259.562 162.081 257.821 162.226 256.44 163.273C255.256 164.172 254.352 165.744 253.83 167.82C253.378 169.613 253.233 171.685 253.418 173.652C253.881 178.563 256.937 182.644 259.891 186.591C261.219 188.365 262.473 190.041 263.501 191.782C269.856 202.549 272.029 209.343 275.325 224.271V224.27Z" fill="black"/>
<path d="M293.425 158.47C290.56 153.061 281.452 140.747 274.559 144.27C270.573 146.308 274.758 156.239 275.815 159.193C279.242 168.771 281.608 178.83 283.122 189.048C284.874 200.868 285.722 213.151 284.934 225.215C284.925 225.368 284.913 225.52 284.902 225.673L291.501 226.596C296.559 219.867 299.582 188.494 298.955 178.447C298.519 171.464 296.587 164.439 293.426 158.47H293.425Z" fill="url(#paint14_linear_1_4557)"/>
<path d="M308.148 168.362C298.055 182.385 293.394 209.057 292.235 226.698L301.672 228.017C308.139 222.589 335.389 173.192 333.208 153.105C332.456 146.179 319.593 152.461 308.148 168.362Z" fill="url(#paint15_linear_1_4557)"/>
<path d="M259.241 167.692L258.504 168.478C272.454 181.332 280.873 203.531 279.948 225.032L281.029 225.078C281.484 214.503 279.726 203.566 275.946 193.448C272.085 183.11 266.307 174.203 259.24 167.691L259.241 167.692Z" fill="url(#paint16_linear_1_4557)"/>
<path d="M281.082 225.135L279.893 225.085L279.895 225.032C280.819 203.545 272.408 181.362 258.468 168.519L258.429 168.483L259.238 167.619L259.278 167.655C266.352 174.172 272.133 183.086 275.998 193.432C279.78 203.556 281.539 214.5 281.084 225.081L281.082 225.134V225.135ZM280.005 224.983L280.98 225.024C281.426 214.473 279.669 203.563 275.898 193.469C272.046 183.157 266.288 174.271 259.245 167.769L258.58 168.478C272.508 181.336 280.912 203.503 280.005 224.983Z" fill="black"/>
<path d="M287.572 164.627C285.823 158.86 283.305 154.023 280.087 150.25L279.122 151.058C284.775 157.687 288.08 167.522 289.228 181.129C290.401 195.046 290.122 209.782 288.373 226.181L289.629 226.313C291.386 209.835 291.666 195.021 290.487 181.025C289.953 174.697 289.001 169.333 287.572 164.626V164.627Z" fill="url(#paint17_linear_1_4557)"/>
<path d="M308.992 192.039C303.419 204.386 299.6 215.945 297.318 227.378L298.38 227.586C302.492 206.998 311.765 185.528 327.568 160.019L326.646 159.457C319.339 171.253 313.564 181.91 308.992 192.038V192.039Z" fill="url(#paint18_linear_1_4557)"/>
<path d="M334.222 211.341C329.237 214.937 321.938 221.037 315.465 229.685L316.334 230.325C322.718 221.796 329.918 215.775 334.835 212.227C340.167 208.378 344.038 206.525 344.076 206.507L343.609 205.539C343.449 205.615 339.629 207.442 334.221 211.341H334.222Z" fill="url(#paint19_linear_1_4557)"/>
<g opacity="0.18">
<path d="M234.523 2.88867L212.156 3.16426C208.952 3.20333 206.384 5.81353 206.423 8.98863L207.052 59.105C207.092 62.2991 209.725 64.8449 212.928 64.8058L247.169 64.3845C250.372 64.3455 252.941 61.7353 252.901 58.5412L252.421 20.1738L234.523 2.88867Z" fill="url(#paint20_linear_1_4557)"/>
</g>
<path d="M237.294 0L214.926 0.275591C211.723 0.314659 209.154 2.92485 209.194 6.09996L209.822 56.2163C209.863 59.4104 212.495 61.9562 215.699 61.9172L249.939 61.4948C253.143 61.4557 255.711 58.8455 255.672 55.6514L255.19 17.2841L237.294 0Z" fill="#9BD8DD"/>
<path d="M237.512 17.5027L255.19 17.2851L237.294 0L237.512 17.5027Z" fill="#B9EFEB"/>
<path d="M231.467 18.128L215.173 18.3281L215.295 28.0955L231.589 27.8954L231.467 18.128Z" fill="white"/>
<path d="M249.537 31.1796L215.34 31.5996L215.382 34.9856L249.58 34.5656L249.537 31.1796Z" fill="white"/>
<path d="M249.617 37.6053L215.419 38.0254L215.461 41.4114L249.659 40.9914L249.617 37.6053Z" fill="white"/>
<path d="M249.699 44.0214L215.501 44.4414L215.543 47.8274L249.741 47.4074L249.699 44.0214Z" fill="white"/>
<path d="M249.778 50.4491L215.58 50.8691L215.622 54.2552L249.82 53.8351L249.778 50.4491Z" fill="white"/>
<path d="M216.666 12.0802C215.799 12.0908 215.105 12.7961 215.115 13.6567C215.126 14.5162 215.838 15.2046 216.706 15.1941C217.573 15.1835 218.268 14.4782 218.257 13.6176C218.246 12.7581 217.535 12.0696 216.668 12.0802H216.666Z" fill="url(#paint21_linear_1_4557)"/>
<path d="M222.478 12.0079C221.611 12.0185 220.916 12.7238 220.927 13.5833C220.938 14.4428 221.649 15.1313 222.517 15.1207C223.385 15.1102 224.079 14.4048 224.069 13.5453C224.058 12.6858 223.346 11.9974 222.479 12.0079H222.478Z" fill="url(#paint22_linear_1_4557)"/>
<g opacity="0.24">
<path d="M35.267 100.08C21.7852 112.268 23.07 123.248 23.07 123.248C23.07 123.248 30.6722 127.197 40.7598 131.095C40.7598 116.847 51.1819 110.678 51.1819 110.678C51.1819 110.678 38.6994 103.629 35.267 100.08Z" fill="#E2A047"/>
</g>
<path d="M33.9017 97.8496C20.42 110.038 21.7048 121.017 21.7048 121.017C21.7048 121.017 29.307 124.966 39.3945 128.865C39.3945 114.616 49.8166 108.448 49.8166 108.448C49.8166 108.448 37.3342 101.399 33.9017 97.8496Z" fill="#FFD394"/>
<path d="M41.908 107.464C40.9619 106.849 40.017 106.231 39.0667 105.622C37.1459 104.391 35.2209 103.167 33.2916 101.95C33.0114 101.774 32.7866 102.227 33.0583 102.403C34.9524 103.63 36.8508 104.85 38.7535 106.063C39.7038 106.669 40.6594 107.267 41.615 107.866C42.5631 108.462 43.4996 109.118 44.5169 109.591C44.6586 109.656 44.7971 109.468 44.6735 109.364C43.8234 108.644 42.8412 108.071 41.908 107.465V107.464Z" fill="white"/>
<path d="M41.6405 110.551C41.1611 110.258 40.6742 109.977 40.1895 109.691C39.2435 109.132 38.2996 108.569 37.3514 108.015C35.4339 106.894 33.5205 105.761 31.588 104.666C31.3036 104.504 31.0831 104.947 31.359 105.112C33.2649 106.254 35.1931 107.361 37.1149 108.478C38.0642 109.029 39.0187 109.574 39.97 110.121C40.4569 110.4 40.9416 110.685 41.4327 110.958C41.8823 111.207 42.3382 111.509 42.8336 111.657C42.97 111.698 43.0403 111.513 42.9508 111.427C42.5801 111.07 42.0794 110.819 41.6415 110.551H41.6405Z" fill="white"/>
<path d="M39.826 112.889C39.3625 112.615 38.8938 112.348 38.4272 112.08C37.4481 111.52 36.468 110.96 35.4869 110.403C33.5235 109.291 31.5622 108.177 29.5956 107.069C29.2973 106.901 29.0598 107.37 29.3549 107.538C31.314 108.658 33.2763 109.771 35.2387 110.886C36.2198 111.444 37.2021 111.998 38.1854 112.551C38.6765 112.828 39.1676 113.106 39.663 113.375C40.1232 113.625 40.5791 113.896 41.0905 114.028C41.2151 114.061 41.278 113.901 41.197 113.82C40.8039 113.431 40.3 113.169 39.827 112.888L39.826 112.889Z" fill="white"/>
<path d="M37.0581 114.678C35.9864 114.185 34.9104 113.698 33.8345 113.211C32.735 112.714 31.6367 112.217 30.5373 111.719C29.9993 111.476 29.4624 111.231 28.9244 110.99C28.6431 110.863 28.3619 110.738 28.0806 110.613C27.9784 110.567 27.8484 110.487 27.7344 110.464C27.6289 110.443 27.5298 110.499 27.4212 110.485C27.3136 110.471 27.2337 110.599 27.3221 110.677C27.4127 110.757 27.4393 110.862 27.5288 110.936C27.6097 111.003 27.7387 111.038 27.8367 111.083C28.1168 111.21 28.396 111.339 28.6772 111.467C29.2386 111.721 29.8001 111.974 30.3615 112.227C31.4375 112.713 32.5134 113.199 33.5894 113.684C34.6888 114.181 35.7883 114.677 36.8909 115.167C37.9381 115.631 39.0173 116.217 40.1465 116.455C40.2328 116.473 40.3042 116.354 40.2275 116.297C39.2889 115.597 38.116 115.165 37.056 114.677L37.0581 114.678Z" fill="white"/>
<path d="M34.9984 117.887C34.0236 117.436 33.0499 116.984 32.0751 116.535C30.0798 115.616 28.0983 114.651 26.0816 113.78C25.8046 113.66 25.5926 114.063 25.8675 114.197C27.8405 115.161 29.8635 116.037 31.8589 116.955C32.8581 117.414 33.8585 117.87 34.8588 118.326C35.808 118.76 36.7775 119.306 37.7927 119.567C37.9174 119.599 38.0218 119.415 37.9099 119.337C37.0332 118.723 35.9668 118.334 34.9994 117.886L34.9984 117.887Z" fill="white"/>
<path d="M35.0536 122.197C34.5667 121.96 34.0746 121.735 33.5834 121.505C32.6257 121.057 31.6616 120.621 30.7007 120.179C28.7309 119.276 26.76 118.375 24.7881 117.475C24.4802 117.335 24.2405 117.801 24.5484 117.941C26.5203 118.84 28.4933 119.738 30.4674 120.632C31.4549 121.079 32.4393 121.533 33.43 121.972C33.9254 122.192 34.4187 122.418 34.9194 122.628C35.3711 122.818 35.8483 123.071 36.3394 123.132C36.43 123.143 36.4961 123.037 36.4225 122.97C36.0401 122.625 35.5149 122.422 35.0547 122.197H35.0536Z" fill="white"/>
<path d="M33.3572 104.978C36.1458 104.824 38.2805 102.459 38.1251 99.6948C37.9696 96.9308 35.583 94.8151 32.7944 94.9691C30.0058 95.1232 27.8711 97.4887 28.0265 100.253C28.182 103.017 30.5686 105.132 33.3572 104.978Z" fill="white"/>
<path d="M33.0704 105.042C30.2526 105.042 27.959 102.77 27.959 99.9773C27.959 97.1844 30.2516 94.9121 33.0704 94.9121C35.8893 94.9121 38.1819 97.1844 38.1819 99.9773C38.1819 102.77 35.8893 105.042 33.0704 105.042ZM33.0704 95.0166C30.3112 95.0166 28.0666 97.2414 28.0666 99.9762C28.0666 102.711 30.3112 104.936 33.0704 104.936C35.8296 104.936 38.0743 102.711 38.0743 99.9762C38.0743 97.2414 35.8296 95.0166 33.0704 95.0166Z" fill="black"/>
<path d="M33.071 94.5781C30.0679 94.5781 27.624 97.0004 27.624 99.977C27.624 102.954 30.0668 105.376 33.071 105.376C36.0753 105.376 38.517 102.954 38.517 99.977C38.517 97.0004 36.0742 94.5781 33.071 94.5781ZM33.071 104.603C30.4972 104.603 28.4028 102.527 28.4028 99.9759C28.4028 97.4248 30.4972 95.3489 33.071 95.3489C35.6449 95.3489 37.7393 97.4248 37.7393 99.9759C37.7393 102.527 35.6449 104.603 33.071 104.603Z" fill="#F19A6D"/>
<path d="M32.7116 101.723L30.0131 98.9884L29.3281 99.6537L32.849 103.219L39.1089 94.0341L38.3152 93.502L32.7116 101.723Z" fill="#EF7C59"/>
<g opacity="0.24">
<path d="M22.5934 146.56C17.8293 152.09 0 163.557 0 163.557C0 163.557 15.9245 171.785 17.1496 192.83C31.7126 186.22 42.6013 179.745 42.6013 179.745C42.6013 179.745 43.5537 163.421 22.5934 146.559V146.56Z" fill="#E2A047"/>
</g>
<path d="M24.737 142.311C19.9729 147.841 2.14355 159.308 2.14355 159.308C2.14355 159.308 18.0681 167.537 19.2932 188.582C33.8562 181.972 44.7449 175.497 44.7449 175.497C44.7449 175.497 45.6973 159.173 24.737 142.311Z" fill="#FFD394"/>
<path d="M25.9909 148.315C23.2455 150.275 20.5087 152.247 17.7772 154.225C16.4253 155.204 15.0841 156.197 13.7396 157.186C12.4144 158.162 11.0113 159.09 9.81816 160.225C9.64558 160.39 9.86503 160.657 10.0696 160.547C11.5323 159.763 12.8586 158.715 14.2073 157.755C15.5656 156.789 16.926 155.826 18.2779 154.85C20.9838 152.897 23.6823 150.935 26.3744 148.964C26.7611 148.681 26.3904 148.03 25.9919 148.314L25.9909 148.315Z" fill="white"/>
<path d="M28.7425 152.18C25.9822 153.962 23.2539 155.795 20.5181 157.614C19.1652 158.514 17.8197 159.424 16.4699 160.329C15.7796 160.793 15.085 161.249 14.401 161.723C13.7778 162.155 13.0598 162.568 12.5431 163.127C12.4185 163.261 12.5378 163.528 12.737 163.457C13.4561 163.196 14.1038 162.712 14.7451 162.306C15.4472 161.861 16.1375 161.4 16.8332 160.945C18.1915 160.056 19.554 159.172 20.9091 158.276C23.6502 156.466 26.4041 154.666 29.1207 152.82C29.5138 152.552 29.1505 151.917 28.7435 152.18H28.7425Z" fill="white"/>
<path d="M31.8906 155.564C29.0824 157.365 26.2805 159.176 23.4766 160.986C22.0746 161.891 20.6759 162.8 19.2782 163.711C18.6113 164.146 17.9422 164.579 17.2807 165.023C16.6052 165.477 15.884 165.907 15.3364 166.515C15.2235 166.641 15.3301 166.872 15.5122 166.814C16.2558 166.576 16.9057 166.135 17.564 165.728C18.2725 165.288 18.9735 164.836 19.6766 164.387C21.0817 163.487 22.4848 162.585 23.8857 161.679C26.6875 159.866 29.4904 158.057 32.2869 156.236C32.7077 155.963 32.3167 155.29 31.8906 155.565V155.564Z" fill="white"/>
<path d="M35.3932 160.425C35.2355 160.455 35.0832 160.381 34.9298 160.42C34.7636 160.462 34.5793 160.592 34.4312 160.668C34.0264 160.877 33.6215 161.085 33.2178 161.296C32.4444 161.701 31.6709 162.106 30.8975 162.511C29.3176 163.338 27.7367 164.165 26.1568 164.993C24.6099 165.803 23.0631 166.612 21.5226 167.431C19.9992 168.241 18.3043 168.977 16.979 170.091C16.8714 170.182 16.9875 170.352 17.1122 170.318C18.7581 169.871 20.3028 168.916 21.8092 168.141C23.3955 167.324 24.9764 166.499 26.5574 165.672C28.1042 164.863 29.6521 164.055 31.199 163.247C32.0065 162.825 32.814 162.404 33.6205 161.982C34.0242 161.77 34.4259 161.557 34.8286 161.344C34.9692 161.27 35.1567 161.207 35.2707 161.1C35.3974 160.982 35.4273 160.825 35.554 160.7C35.6787 160.576 35.5487 160.393 35.3921 160.423L35.3932 160.425Z" fill="white"/>
<path d="M37.6587 165.179C34.7546 166.636 31.9123 168.229 29.0434 169.754C27.6414 170.5 26.2416 171.249 24.8417 171.998C23.4504 172.743 21.9089 173.408 20.6667 174.387C20.5091 174.511 20.6795 174.774 20.8606 174.716C22.3382 174.245 23.7232 173.357 25.0868 172.636C26.5239 171.877 27.9632 171.119 29.3992 170.356C32.2681 168.833 35.1797 167.368 38.0113 165.777C38.4055 165.555 38.0582 164.978 37.6587 165.178V165.179Z" fill="white"/>
<path d="M39.886 170.526C37.0522 172.022 34.2174 173.517 31.3857 175.02C30.004 175.752 28.618 176.478 27.2416 177.22C26.5374 177.6 25.829 177.975 25.1301 178.367C24.4696 178.737 23.7111 179.082 23.1753 179.624C23.0719 179.729 23.1785 179.88 23.3116 179.856C24.0318 179.724 24.7157 179.31 25.3656 178.992C26.0857 178.639 26.7952 178.264 27.5079 177.898C28.9333 177.166 30.3492 176.412 31.7682 175.669C34.6073 174.181 37.4421 172.687 40.278 171.193C40.7212 170.96 40.3281 170.291 39.8849 170.526H39.886Z" fill="white"/>
<path d="M25.9205 152.548C30.0464 152.042 32.9768 148.316 32.4659 144.227C31.9549 140.137 28.196 137.233 24.0701 137.739C19.9443 138.246 17.0138 141.971 17.5248 146.061C18.0358 150.15 21.7947 153.055 25.9205 152.548Z" fill="white"/>
<path d="M24.991 152.66C20.8107 152.66 17.4102 149.29 17.4102 145.147C17.4102 141.003 20.8107 137.633 24.991 137.633C29.1714 137.633 32.5719 141.003 32.5719 145.147C32.5719 149.29 29.1714 152.66 24.991 152.66ZM24.991 137.738C20.8703 137.738 17.5167 141.061 17.5167 145.147C17.5167 149.232 20.8693 152.555 24.991 152.555C29.1128 152.555 32.4654 149.232 32.4654 145.147C32.4654 141.061 29.1128 137.738 24.991 137.738Z" fill="black"/>
<path d="M24.9908 137.109C20.5207 137.109 16.8848 140.714 16.8848 145.145C16.8848 149.575 20.5218 153.179 24.9908 153.179C29.4599 153.179 33.0969 149.574 33.0969 145.145C33.0969 140.715 29.4599 137.109 24.9908 137.109ZM24.9908 152.031C21.1599 152.031 18.0428 148.942 18.0428 145.145C18.0428 141.348 21.1599 138.258 24.9908 138.258C28.8217 138.258 31.9389 141.348 31.9389 145.145C31.9389 148.942 28.8217 152.031 24.9908 152.031Z" fill="#F19A6D"/>
<path d="M24.4579 147.743L20.4405 143.673L19.4199 144.663L24.6603 149.971L33.9787 136.299L32.7962 135.508L24.4579 147.743Z" fill="#EF7C59"/>
<path d="M354.776 146.904C354.776 146.904 343.788 156.332 339.218 158.383C346.41 175.233 357.407 177.716 357.407 177.716C357.407 177.716 363.767 171.857 370.916 163.633C357.202 158.836 354.775 146.905 354.775 146.905L354.776 146.904Z" fill="#FFEBD7"/>
<path d="M354.776 144.766C354.776 144.766 343.788 154.194 339.218 156.244C346.41 173.094 357.407 175.577 357.407 175.577C357.407 175.577 363.767 169.719 370.916 161.494C357.202 156.697 354.775 144.767 354.775 144.767L354.776 144.766Z" fill="white"/>
<path d="M357.422 175.63L357.397 175.625C357.369 175.619 354.595 174.972 350.98 172.27C347.647 169.779 342.892 164.98 339.173 156.265L339.155 156.222L339.199 156.203C341.555 155.146 345.656 152.084 348.681 149.701C351.96 147.118 354.718 144.755 354.745 144.732L354.808 144.678L354.824 144.759C354.83 144.789 355.457 147.777 357.747 151.311C359.861 154.572 363.864 158.978 370.933 161.451L371 161.474L370.953 161.528C363.885 169.66 357.504 175.557 357.441 175.615L357.421 175.632L357.422 175.63ZM339.281 156.27C342.987 164.934 347.716 169.708 351.034 172.188C354.451 174.744 357.11 175.454 357.394 175.525C357.785 175.163 363.979 169.396 370.833 161.516C363.778 159.03 359.777 154.622 357.662 151.357C355.571 148.131 354.861 145.355 354.745 144.855C354.319 145.218 351.75 147.404 348.74 149.775C345.728 152.146 341.652 155.19 339.28 156.269L339.281 156.27Z" fill="black"/>
<path d="M353.925 149.938C352.946 150.499 352.064 151.236 351.166 151.914C350.255 152.601 349.342 153.286 348.437 153.979C346.606 155.382 344.779 156.789 342.959 158.203C342.694 158.409 343.054 158.773 343.315 158.576C345.134 157.198 346.946 155.813 348.755 154.424C349.658 153.729 350.555 153.027 351.454 152.326C352.345 151.63 353.292 150.966 354.09 150.162C354.201 150.05 354.067 149.856 353.924 149.937L353.925 149.938Z" fill="#F2D6AF"/>
<path d="M355.33 152.263C354.861 152.493 354.451 152.882 354.047 153.206C353.603 153.561 353.168 153.926 352.73 154.288C351.873 154.995 351.015 155.698 350.161 156.407C348.436 157.842 346.702 159.271 344.997 160.729C344.745 160.945 345.098 161.302 345.349 161.097C347.09 159.679 348.805 158.229 350.527 156.788C351.377 156.076 352.222 155.357 353.07 154.641C353.503 154.275 353.94 153.912 354.368 153.541C354.759 153.2 355.203 152.87 355.512 152.452C355.598 152.337 355.443 152.208 355.33 152.263Z" fill="#F2D6AF"/>
<path d="M357.044 154.726C356.537 154.967 356.115 155.354 355.686 155.708C355.266 156.053 354.852 156.407 354.437 156.759C353.568 157.496 352.7 158.234 351.834 158.974C350.102 160.455 348.369 161.935 346.641 163.421C346.379 163.647 346.75 164.028 347.011 163.807C348.749 162.332 350.481 160.851 352.215 159.372C353.082 158.632 353.946 157.89 354.809 157.146C355.241 156.774 355.673 156.404 356.099 156.026C356.495 155.675 356.91 155.335 357.209 154.896C357.283 154.789 357.15 154.675 357.045 154.725L357.044 154.726Z" fill="#F2D6AF"/>
<path d="M359.103 156.473C358.113 157.125 357.303 158.088 356.477 158.926C355.641 159.774 354.811 160.627 353.981 161.48C353.132 162.351 352.284 163.223 351.435 164.095C351.019 164.521 350.604 164.947 350.189 165.374C349.973 165.597 349.758 165.821 349.543 166.045C349.464 166.126 349.344 166.222 349.284 166.323C349.229 166.415 349.249 166.528 349.199 166.626C349.15 166.722 349.246 166.841 349.351 166.784C349.459 166.725 349.568 166.735 349.67 166.675C349.761 166.621 349.839 166.51 349.915 166.433C350.132 166.212 350.35 165.991 350.567 165.768C351 165.324 351.433 164.877 351.865 164.431C352.695 163.577 353.525 162.724 354.355 161.87C355.203 160.998 356.051 160.125 356.894 159.247C357.694 158.414 358.62 157.589 359.229 156.603C359.275 156.528 359.184 156.42 359.103 156.473Z" fill="#F2D6AF"/>
<path d="M361.248 159.693C360.363 160.315 359.629 161.192 358.871 161.957C358.11 162.727 357.346 163.494 356.586 164.266C355.031 165.844 353.435 167.392 351.917 169.005C351.708 169.227 352.024 169.563 352.246 169.348C353.839 167.808 355.363 166.19 356.918 164.611C357.696 163.822 358.472 163.029 359.247 162.238C359.985 161.487 360.836 160.754 361.429 159.882C361.502 159.775 361.36 159.614 361.247 159.693H361.248Z" fill="#F2D6AF"/>
<path d="M364.242 162.321C363.781 162.566 363.409 162.995 363.037 163.355C362.645 163.735 362.262 164.125 361.876 164.511C361.122 165.266 360.378 166.031 359.631 166.791C358.098 168.349 356.568 169.91 355.037 171.471C354.797 171.715 355.166 172.098 355.404 171.854C356.933 170.291 358.463 168.73 359.987 167.165C360.75 166.382 361.518 165.604 362.275 164.816C362.653 164.421 363.036 164.03 363.406 163.629C363.741 163.265 364.145 162.899 364.369 162.456C364.411 162.374 364.331 162.276 364.241 162.323L364.242 162.321Z" fill="#F2D6AF"/>
<path d="M354.647 152.484C356.964 152.111 358.537 149.948 358.161 147.652C357.785 145.355 355.602 143.796 353.286 144.169C350.969 144.542 349.396 146.705 349.772 149.001C350.148 151.298 352.331 152.857 354.647 152.484Z" fill="white"/>
<path d="M353.963 152.603C351.592 152.603 349.664 150.692 349.664 148.343C349.664 145.993 351.592 144.082 353.963 144.082C356.333 144.082 358.261 145.993 358.261 148.343C358.261 150.692 356.333 152.603 353.963 152.603ZM353.963 144.178C351.646 144.178 349.761 146.046 349.761 148.343C349.761 150.639 351.646 152.507 353.963 152.507C356.28 152.507 358.164 150.639 358.164 148.343C358.164 146.046 356.28 144.178 353.963 144.178Z" fill="black"/>
<path d="M353.962 143.807C351.439 143.807 349.386 145.841 349.386 148.343C349.386 150.844 351.439 152.879 353.962 152.879C356.486 152.879 358.539 150.844 358.539 148.343C358.539 145.841 356.486 143.807 353.962 143.807ZM353.962 152.232C351.799 152.232 350.04 150.487 350.04 148.344C350.04 146.2 351.8 144.456 353.962 144.456C356.125 144.456 357.885 146.2 357.885 148.344C357.885 150.487 356.125 152.232 353.962 152.232Z" fill="#F19A6D"/>
<path d="M353.663 149.811L351.395 147.513L350.818 148.071L353.777 151.069L359.038 143.349L358.37 142.902L353.663 149.811Z" fill="#EF7C59"/>
<path d="M258.877 83.2678C252.855 59.7097 249.266 56.8496 249.266 56.8496L219.749 63.1926C219.749 63.1926 214.793 86.4735 215.501 95.0035C216.21 103.534 260.381 134.406 267.468 123.934C274.555 113.462 287.311 114.335 282.823 105.749C278.336 97.1631 262.701 98.2321 258.877 83.2678Z" fill="black"/>
<path d="M262.44 126.139C261.09 126.139 259.52 125.909 257.733 125.449C250.823 123.669 240.602 118.222 231.058 111.234C221.832 104.479 215.702 98.1099 215.445 95.0103C214.744 86.5693 219.645 63.4161 219.694 63.1823L219.702 63.1458L219.739 63.1378L249.282 56.7891L249.304 56.8062C249.341 56.8358 250.23 57.5717 251.867 61.2018C253.374 64.5433 255.822 71.0814 258.934 83.254C261.183 92.0544 267.613 95.3366 273.286 98.2331C277.267 100.265 281.027 102.185 282.877 105.724C285.469 110.683 282.301 112.554 277.917 115.144C274.632 117.083 270.543 119.497 267.519 123.968C266.539 125.415 264.839 126.14 262.443 126.14L262.44 126.139ZM219.799 63.2416C219.577 64.2912 214.873 86.7324 215.56 95C215.814 98.0689 221.925 104.405 231.126 111.142C240.66 118.121 250.866 123.561 257.761 125.338C262.671 126.602 265.921 126.121 267.421 123.903C270.461 119.412 274.562 116.99 277.856 115.044C280.045 113.752 281.936 112.635 282.932 111.25C283.999 109.765 283.948 108.025 282.773 105.776C280.941 102.271 277.196 100.359 273.232 98.3358C267.538 95.429 261.084 92.1331 258.822 83.2837C255.72 71.151 253.279 64.6243 251.777 61.2862C250.279 57.955 249.391 57.0446 249.25 56.9134L219.799 63.2427V63.2416Z" fill="black"/>
<path d="M204.115 125.871L203.982 126.218L204.077 126.793L204.115 125.871Z" fill="#DEDEDE"/>
<path d="M204.111 127.361L203.924 126.212L204.189 125.518L204.111 127.361Z" fill="black"/>
<path d="M203.927 125.934C203.908 125.813 203.89 125.692 203.872 125.57C203.81 125.521 203.748 125.472 203.686 125.422C203.727 125.696 203.767 125.968 203.81 126.24L203.927 125.934Z" fill="#DEDEDE"/>
<path d="M203.786 126.463L203.753 126.25C203.71 125.978 203.669 125.706 203.628 125.432L203.606 125.287L203.722 125.38C203.784 125.43 203.846 125.479 203.908 125.528L203.926 125.542L203.947 125.681C203.96 125.763 203.971 125.845 203.985 125.927L203.987 125.942L203.786 126.464V126.463ZM203.764 125.56C203.787 125.713 203.81 125.866 203.833 126.018L203.868 125.929C203.855 125.852 203.844 125.774 203.832 125.697L203.818 125.603C203.8 125.589 203.783 125.575 203.764 125.561V125.56Z" fill="black"/>
<path d="M207.933 130.538L209.002 116.24C208.25 119.386 207.639 122.959 207.287 126.332C207.135 127.788 207.387 129.324 207.931 130.538H207.933Z" fill="#DEDEDE"/>
<path d="M207.973 130.77L207.88 130.561C207.317 129.305 207.08 127.761 207.231 126.326C207.58 122.983 208.19 119.396 208.947 116.227L209.061 116.244L207.975 130.77H207.973ZM208.89 116.982C208.212 119.96 207.668 123.253 207.346 126.339C207.207 127.674 207.406 129.102 207.893 130.299L208.89 116.982Z" fill="black"/>
<path d="M173.843 87.0897C173.794 87.0863 173.744 87.084 173.695 87.084C172.65 87.084 171.767 87.886 171.69 88.9344C171.609 90.0307 172.445 90.9879 173.55 91.0678C173.601 91.07 173.649 91.0735 173.698 91.0735C174.741 91.0735 175.626 90.2715 175.705 89.223C175.784 88.1267 174.948 87.1696 173.843 87.0897Z" fill="#DEDEDE"/>
<path d="M173.7 91.1329C173.652 91.1329 173.606 91.1306 173.558 91.1283C172.997 91.0884 172.495 90.8374 172.133 90.4221C171.771 90.0069 171.593 89.4775 171.634 88.9322C171.712 87.8644 172.618 87.0293 173.696 87.0293C173.747 87.0293 173.799 87.0304 173.849 87.035C174.986 87.1171 175.846 88.1017 175.765 89.23C175.685 90.2978 174.778 91.134 173.701 91.134L173.7 91.1329ZM173.696 87.1434C172.679 87.1434 171.823 87.9328 171.749 88.9402C171.711 89.4547 171.878 89.9544 172.219 90.3468C172.561 90.7393 173.035 90.9754 173.555 91.0131C173.609 91.0153 173.654 91.0176 173.698 91.0176C174.716 91.0176 175.571 90.2282 175.647 89.2208C175.724 88.1564 174.913 87.2267 173.839 87.1479C173.792 87.1445 173.742 87.1434 173.695 87.1434H173.696Z" fill="black"/>
<path d="M201.537 149.674C198.58 152.544 194.805 153.921 191.072 153.937C194.858 153.96 198.701 152.586 201.702 149.674L204.118 147.327L204.053 147.23L201.537 149.674Z" fill="#DEDEDE"/>
<path d="M191.163 153.996C191.132 153.996 191.102 153.996 191.071 153.996V153.881C194.99 153.863 198.693 152.355 201.496 149.634L204.062 147.143L204.192 147.338L201.741 149.717C198.895 152.479 195.141 153.998 191.163 153.998V153.996Z" fill="black"/>
<path d="M205.44 175.133L203.778 183.893L196.716 236.019H238.855L245.367 183.309L230.312 180.225L205.44 175.133Z" fill="url(#paint23_linear_1_4557)"/>
<g opacity="0.39">
<path d="M205.44 175.133L203.778 183.894C208.655 184.353 222.506 187.09 223.674 203.322C224.055 208.62 224.616 220.946 225.234 236.02H238.855L245.367 183.31L230.311 180.227L205.44 175.133Z" fill="#1F5C6B"/>
</g>
<path d="M272.143 176.709L230.312 179.663V236.021H273.636L272.402 185.985L272.143 176.709Z" fill="url(#paint24_linear_1_4557)"/>
<g opacity="0.39">
<path d="M230.312 179.326V193.707C239.376 187.984 254.004 191.266 272.403 185.181L272.144 176.592L230.312 179.328V179.326Z" fill="#1F5C6B"/>
</g>
<path d="M225.454 95.004C222.981 98.4082 232.908 115.794 232.908 115.794C232.908 115.794 244.844 99.8719 246.275 95.0074C233.705 90.8091 225.454 95.004 225.454 95.004Z" fill="#FEB7A3"/>
<path d="M289.605 131.306L270.13 103.167C269.047 101.148 267.551 99.4025 265.753 98.07C263.368 96.304 260.463 95.2556 257.32 95.2305L256.724 95.2248L255.7 95.2168L255.168 96.3508L234.728 139.938H232.746L221.243 95.8739L221.189 95.6674C221.137 95.6777 221.085 95.6902 221.034 95.7016C219.798 95.9686 218.657 96.32 217.613 96.7638C216.582 97.2018 215.643 97.7278 214.796 98.3541C213.604 98.9576 212.012 99.9524 210.1 101.585L209.004 116.241L207.935 130.539L206.438 150.571L206.591 150.804L204.091 181.255L273.476 181.274H273.641L272.658 166.539C278.627 166.025 283.056 165.641 283.445 165.601C286.618 165.264 289.938 164.011 292.434 161.83C299.544 155.613 300.681 145.219 294.975 138.613L289.607 131.306H289.605Z" fill="white"/>
<path d="M232.878 112.197L225.455 95.0039H220.85L221.023 95.669L232.581 139.94H234.563L255.535 95.2184L255.633 95.0085L246.274 95.0073L232.878 112.197Z" fill="white"/>
<path d="M249.442 97.5544C249.339 97.4768 249.19 97.4962 249.111 97.5978L233.06 118.306L223.843 97.3479C223.791 97.2293 223.653 97.1745 223.532 97.227C223.412 97.2783 223.357 97.4164 223.41 97.535L232.947 119.222L249.487 97.8841C249.566 97.7814 249.547 97.6343 249.443 97.5555L249.442 97.5544Z" fill="#858585"/>
<g opacity="0.34">
<path d="M259.875 138.136L239.442 143.496C237.536 143.996 236.355 145.882 236.748 147.797L237.766 152.741V147.679C237.764 146.262 238.757 145.036 240.152 144.73L263.148 139.683L255.632 125.918L259.873 138.136H259.875Z" fill="#858585"/>
</g>
<g opacity="0.34">
<path d="M252.514 169.487L272.845 171.847L272.491 166.539L252.514 169.487Z" fill="url(#paint25_linear_1_4557)"/>
</g>
<path d="M248.888 146.372L248.268 146.484L252.518 169.481L253.138 169.368L248.888 146.372Z" fill="#858585"/>
<path d="M217.648 77.45C217.908 83.0903 226.343 81.6505 226.343 81.6505L223.626 72.4475C223.626 72.4475 217.387 71.8098 217.648 77.45Z" fill="#FEB7A3"/>
<path d="M219.662 75.7031L219.45 76.8622C219.45 76.8622 220.213 77.2946 220.468 77.7406C220.88 76.3682 219.662 75.7043 219.662 75.7043V75.7031Z" fill="#F18A8B"/>
<path d="M229.58 93.5541C229.481 96.5761 231.873 99.1053 234.922 99.2023C237.971 99.3004 240.389 98.8977 240.488 95.8757L240.807 88.2161L229.767 87.8613L229.58 93.5529V93.5541Z" fill="#FEB7A3"/>
<path d="M229.593 93.189C231.381 93.3635 237.469 93.6579 240.745 90.1441L240.808 88.2161L229.768 87.8613L229.594 93.189H229.593Z" fill="#F18A8B"/>
<path d="M238.466 57.5334C225.925 55.5472 222.101 62.0533 222.101 62.0533C222.101 62.0533 214.348 89.1994 231.95 90.2934C249.551 91.3864 248.601 71.5861 248.601 71.5861C248.601 71.5861 251.008 59.5207 238.466 57.5334Z" fill="#FEB7A3"/>
<path d="M245.13 53.4588C245.058 53.4155 244.984 53.3801 244.912 53.339C241.898 51.7772 238.315 51.3437 235.014 52.1435C229.908 50.7824 224.056 53.0504 220.989 57.4323C218.992 60.2844 218.134 64.1119 218.59 67.6656C218.834 69.5731 219.455 71.4018 220.477 72.9647C220.739 69.9746 220.755 69.0962 221.034 67.7158C223.167 63.7662 227.538 60.7601 231.751 59.39C234.59 64.3811 237.059 67.6154 242.443 70.3511C244.018 72.9111 245.728 76.5972 246.646 79.3363C247.963 78.8412 249.283 78.3449 250.859 77.6262C253.071 72.0863 253.644 66.0593 251.555 60.7077C250.359 57.6423 248.039 55.0263 245.13 53.4577V53.4588Z" fill="black"/>
<path d="M246.611 79.4122L246.591 79.3552C245.66 76.575 243.938 72.8935 242.402 70.3962C237.114 67.7062 234.649 64.5985 231.724 59.4602C227.103 60.9753 223.032 64.1433 221.088 67.737C220.882 68.7626 220.819 69.5349 220.693 71.0705C220.651 71.5975 220.6 72.217 220.533 72.9711L220.519 73.1365L220.426 72.9962C219.439 71.4869 218.783 69.6456 218.532 67.6731C218.068 64.0566 218.968 60.2155 220.941 57.3999C224.037 52.9758 229.953 50.7409 235.014 52.0836C238.312 51.2885 241.928 51.7265 244.938 53.2872C244.968 53.3043 244.997 53.3191 245.026 53.334C245.07 53.3568 245.114 53.3808 245.158 53.407C248.063 54.9745 250.415 57.6269 251.608 60.6855C253.546 65.6481 253.298 71.6717 250.912 77.6462L250.904 77.6679L250.883 77.677C249.32 78.39 247.991 78.8897 246.705 79.3746L246.611 79.4099V79.4122ZM231.779 59.3222L231.802 59.3633C234.73 64.5107 237.184 67.616 242.469 70.3015L242.484 70.3084L242.492 70.3221C244.024 72.8102 245.742 76.4769 246.682 79.2616C247.955 78.7825 249.271 78.2862 250.814 77.5846C253.182 71.6443 253.426 65.6584 251.501 60.7288C250.317 57.6942 247.985 55.0623 245.103 53.5085H245.101C245.058 53.4811 245.015 53.4595 244.973 53.4366C244.943 53.4207 244.914 53.4058 244.884 53.3887C241.896 51.8395 238.303 51.406 235.029 52.1989L235.016 52.2023L235.002 52.1989C229.983 50.8607 224.111 53.0761 221.039 57.4649C219.082 60.2588 218.189 64.0692 218.649 67.6582C218.891 69.552 219.508 71.3226 220.436 72.7908C220.494 72.1132 220.54 71.5473 220.581 71.0602C220.706 69.5155 220.769 68.7409 220.979 67.705L220.985 67.689C222.947 64.0555 227.067 60.8543 231.735 59.3359L231.78 59.3211L231.779 59.3222Z" fill="black"/>
<path d="M235.014 52.1468C229.908 50.7858 224.056 53.0538 220.989 57.4357C218.992 60.2844 218.134 64.1119 218.59 67.6656C218.929 64.2647 220.455 60.9677 222.886 58.5332C225.877 55.5408 230.191 53.8969 234.433 54.1285C237.88 52.78 241.646 52.5883 245.131 53.4599C245.059 53.4154 244.985 53.3812 244.913 53.3401C241.899 51.7784 238.316 51.3448 235.015 52.1446L235.014 52.1468Z" fill="black"/>
<path d="M218.597 68.1778L218.533 67.6747C218.069 64.0571 218.969 60.2171 220.942 57.4038C224.038 52.9797 229.954 50.7448 235.015 52.0875C238.313 51.2924 241.929 51.7305 244.939 53.2911C244.97 53.3082 244.999 53.3231 245.028 53.3379C245.073 53.3618 245.117 53.3847 245.161 53.412L245.488 53.6094L245.118 53.517C241.593 52.6351 237.807 52.8713 234.455 54.1832L234.443 54.1878H234.431C230.205 53.9551 225.905 55.5956 222.929 58.5743C220.548 60.9586 218.989 64.275 218.65 67.6724L218.6 68.1778H218.597ZM231.982 51.8137C227.79 51.8137 223.509 53.938 221.037 57.4677C219.172 60.1281 218.274 63.7149 218.593 67.1545C219.031 63.91 220.564 60.7772 222.845 58.4922C225.842 55.4929 230.168 53.8421 234.423 54.0703C237.656 52.8085 241.289 52.5382 244.708 53.3014C241.756 51.8251 238.239 51.4236 235.028 52.2016L235.014 52.205L235 52.2016C234.019 51.9392 233.003 51.8137 231.982 51.8137Z" fill="black"/>
<path d="M254.352 75.5051C252.956 73.3364 249.649 72.4956 247.487 74.006C247.051 74.3106 246.454 74.832 246.288 75.3671C246.287 75.3705 245.197 78.8968 246.58 81.3598C248.224 82.1618 250.217 82.7699 252.033 82.1869C253.697 81.653 254.755 80.1312 254.952 78.445C255.038 77.7035 254.965 76.9403 254.712 76.2352C254.62 75.9774 254.5 75.7355 254.352 75.5051Z" fill="#FEB7A3"/>
<path d="M247.994 78.3296C248.937 77.8824 250.848 77.8493 250.848 77.8493L251.613 76C251.613 76 248.589 76.0137 247.994 78.3296Z" fill="#F18A8B"/>
<path d="M236.251 139.027C232.962 140.99 229.77 143.175 226.48 145.138C226.636 146.232 227.209 147.264 228.062 147.976C229.701 149.347 232.053 149.413 234.193 149.29C236.334 149.167 238.604 148.946 240.512 149.916C242.316 148.083 243.591 145.08 242.524 142.748C241.456 140.418 238.466 137.706 236.254 139.027H236.251Z" fill="#FEB7A3"/>
<path d="M180.782 81.5137C180.193 82.1982 179.561 82.8656 178.887 83.5113C178.212 84.157 177.516 84.7593 176.806 85.3195L188.631 97.4591C189.357 98.2052 190.836 97.9576 191.936 96.9069C193.034 95.8562 193.335 94.3994 192.608 93.6532L180.782 81.5137Z" fill="#1B7183"/>
<g opacity="0.54">
<path d="M178.653 83.2624C190.859 71.5829 191.143 52.2458 179.286 40.0718C167.429 27.8979 147.921 27.497 135.714 39.1766C123.508 50.8561 123.224 70.1932 135.081 82.3672C146.938 94.5411 166.446 94.942 178.653 83.2624Z" fill="#AFEAF2"/>
</g>
<g style="mix-blend-mode:soft-light" opacity="0.78">
<path d="M126.582 57.1516C126.573 57.2144 126.567 57.2771 126.558 57.341L158.869 91.8682C166.48 91.4051 173.492 88.1297 178.702 82.9538L136.84 38.2207C131.432 42.9209 127.638 49.5149 126.582 57.1516Z" fill="white"/>
<path d="M158.846 91.9282L158.828 91.9088L126.498 57.361L126.512 57.2526C126.516 57.2173 126.52 57.1808 126.526 57.1454C127.543 49.7916 131.193 43.0561 136.803 38.1791L136.846 38.1426L136.884 38.1836L178.784 82.9578L178.745 82.9966C173.405 88.3015 166.348 91.473 158.875 91.927H158.847L158.846 91.9282ZM126.619 57.3222L158.893 91.8106C166.31 91.3532 173.314 88.209 178.622 82.9544L136.835 38.3023C131.27 43.1577 127.65 49.8532 126.638 57.1614C126.634 57.1967 126.629 57.2321 126.625 57.2663L126.618 57.3222H126.619Z" fill="black"/>
</g>
<g style="mix-blend-mode:soft-light" opacity="0.78">
<path d="M142.876 34.1157L183.231 77.2379C185.378 73.7378 186.855 69.7506 187.452 65.428C187.584 64.4788 187.668 63.5342 187.71 62.5953L157.829 30.6646C152.494 30.5266 147.378 31.7747 142.875 34.1145L142.876 34.1157Z" fill="white"/>
<path d="M183.241 77.3312L183.189 77.2753L142.783 34.0983L142.85 34.063C147.461 31.6672 152.642 30.4694 157.833 30.6063H157.857L157.873 30.6245L187.77 62.5723V62.5963C187.726 63.5557 187.639 64.5106 187.511 65.4335C186.926 69.6637 185.503 73.6452 183.282 77.2651L183.241 77.3301V77.3312ZM142.971 34.1303L183.222 77.1418C185.412 73.5517 186.817 69.6089 187.396 65.4187C187.523 64.506 187.609 63.5637 187.653 62.6157L157.805 30.7203C152.668 30.5914 147.54 31.7699 142.971 34.1303Z" fill="black"/>
</g>
<path d="M132.915 36.3144C119.116 49.5196 118.796 71.3801 132.201 85.1431C145.607 98.905 167.661 99.3579 181.46 86.1528C195.26 72.9476 195.578 51.087 182.174 37.3241C168.768 23.5622 146.714 23.1093 132.915 36.3144ZM178.657 83.2756C166.451 94.9554 146.944 94.5561 135.086 82.3823C123.228 70.2085 123.511 50.8714 135.717 39.1916C147.923 27.5118 167.43 27.9111 179.288 40.0849C191.146 52.2587 190.863 71.5958 178.657 83.2756Z" fill="#19A4B4"/>
<path d="M134.388 37.8285C121.426 50.2316 121.126 70.7666 133.718 83.6933C146.31 96.6201 167.025 97.0456 179.987 84.6413C192.949 72.2382 193.249 51.7033 180.657 38.7766C168.065 25.8498 147.35 25.4254 134.388 37.8285ZM178.657 83.2769C166.45 94.9567 146.943 94.5575 135.085 82.3837C123.228 70.2099 123.511 50.8728 135.716 39.193C147.923 27.5131 167.43 27.9124 179.288 40.0862C191.145 52.26 190.862 71.5971 178.657 83.2769Z" fill="#42E82C"/>
<path d="M197.054 93.1296C195.147 91.1982 192.024 91.164 190.075 93.052L188.125 94.9424C186.177 96.8316 186.142 99.9278 188.047 101.859L244.705 159.472C246.611 161.404 249.735 161.438 251.684 159.55L253.634 157.66C255.582 155.77 255.617 152.674 253.712 150.743L197.054 93.1296Z" fill="url(#paint26_linear_1_4557)"/>
<path d="M221.436 105.822C222.073 106.079 222.829 106.028 223.426 105.688C224.023 105.348 224.188 104.669 224.286 103.994C222.354 102.795 220.42 101.597 218.486 100.401C215.33 98.4442 211.709 97.5372 208.04 96.8755C206.749 96.6428 205.418 97.0067 204.431 97.8635C201.89 100.072 199.507 102.47 197.632 105.237C197.426 105.544 197.225 105.853 197.03 106.168C194.719 109.919 193.043 114.457 193.617 118.815C194.07 122.254 196.33 125.454 199.526 126.868C202.721 128.281 206.752 127.754 209.336 125.416C209.755 125.037 210.133 124.617 210.477 124.163C211.878 122.317 212.694 119.936 213.167 117.7C214.907 117.464 216.151 117.517 217.904 117.409C219.001 117.341 220.049 116.736 219.695 115.39C217.904 114.728 216.111 114.048 214.32 113.387C216.223 113.552 218.128 113.716 220.032 113.882C220.796 113.947 221.6 114.006 222.295 113.685C222.989 113.363 223.637 112.381 223.309 111.694C222.161 110.999 221.015 110.304 219.867 109.608C220.486 109.436 221.142 109.487 221.782 109.516C222.424 109.543 223.091 109.536 223.67 109.262C224.249 108.985 224.595 108.3 224.483 107.673C223.432 107.059 222.487 106.436 221.436 105.821V105.822Z" fill="#FEB7A3"/>
<g filter="url(#filter0_d_1_4557)">
<path d="M216.055 119.087C215.81 118.963 215.544 118.865 215.267 118.8L213.949 118.493L195.224 114.137L193.509 113.738C192.141 113.42 190.93 113.9 190.588 114.902L177.776 153.833C177.554 154.51 177.462 155.279 177.485 156.112C177.621 160.906 181.357 165.474 186.281 168.128C189.573 169.873 193.379 170.761 196.986 170.303L200.057 169.911C206.012 166.747 207.517 155.77 207.517 155.77C207.517 155.771 210.473 145.413 210.473 145.413V145.41C213.43 135.586 216.404 125.615 217.502 121.662C217.756 120.746 217.104 119.678 216.056 119.087H216.055Z" fill="white"/>
</g>
<path d="M253.617 139.713C253.29 139.537 252.959 139.37 252.625 139.207C249.602 137.746 246.327 136.858 243.011 136.211C241.723 135.96 240.387 136.308 239.388 137.151C236.549 139.549 233.876 142.134 232.137 145.396C231.07 147.393 230.004 149.391 228.939 151.389C229.366 151.925 229.853 152.43 230.542 152.428C231.231 152.424 231.91 152.092 232.331 151.554C231.734 152.608 231.232 153.616 230.634 154.67C230.855 155.267 231.499 155.689 232.14 155.639C232.78 155.589 233.362 155.263 233.904 154.919C234.444 154.576 234.983 154.205 235.606 154.046C234.966 155.218 234.325 156.39 233.685 157.561C233.75 158.319 234.806 158.847 235.57 158.78C236.334 158.712 237 158.262 237.627 157.825C239.19 156.734 240.755 155.646 242.318 154.555C241.103 156.018 239.897 157.497 238.683 158.961C239.058 160.303 240.271 160.303 241.254 159.817C242.824 159.038 243.875 158.374 245.498 157.713C247.039 159.412 248.951 161.066 251.096 161.965C251.625 162.186 252.165 162.361 252.718 162.481C256.137 163.218 259.89 161.668 261.939 158.857C263.987 156.045 264.322 152.153 262.973 148.953C261.263 144.898 257.516 141.806 253.617 139.711V139.713Z" fill="#FEB7A3"/>
<path d="M236 84.0093C235.971 84.6961 235.441 85.6247 234.306 86.2895C232.763 87.1907 229.741 87.2181 228.39 86.4654C227.662 86.0588 227.191 85.3994 227.045 84.817C226.923 84.317 227.045 83.8719 227.453 83.6961C228.338 83.317 230.76 83.9653 232.396 83.4928C234.16 82.9818 235.424 82.751 235.843 83.3829C235.953 83.5478 236.006 83.762 235.994 84.0093H236Z" fill="#CA7860"/>
<path d="M239.985 77.8351C240.1 78.3814 239.525 78.8932 238.706 78.9867C237.888 79.0753 237.13 78.7111 237.015 78.1649C236.9 77.6186 237.475 77.1068 238.294 77.0133C239.112 76.9247 239.87 77.2889 239.985 77.8351Z" fill="#CA7860"/>
<path d="M224.985 79.2527C225.1 80.0721 224.525 80.8398 223.706 80.9801C222.888 81.113 222.13 80.5667 222.015 79.7473C221.9 78.9279 222.475 78.1602 223.294 78.0199C224.112 77.887 224.87 78.4333 224.985 79.2527Z" fill="#CA7860"/>
<path d="M230.845 81.9931C230.845 81.9931 230.783 82.0086 230.752 81.9931C230.565 81.9464 228.934 81.4721 229.002 80.3836C229.058 79.4661 230.154 75.3528 230.198 75.174C230.235 75.0418 230.347 74.9718 230.453 75.0107C230.559 75.0573 230.615 75.1973 230.584 75.3295C230.273 76.5036 229.45 79.7071 229.407 80.4147C229.376 80.9278 230.36 81.3555 230.839 81.4877C230.951 81.5188 231.02 81.651 230.995 81.7909C230.976 81.8842 230.92 81.9542 230.852 81.9853L230.845 81.9931Z" fill="#A54F3C"/>
<path d="M225.005 75.0531C225.06 76.1571 225.551 77.0276 226.104 76.9993C226.656 76.971 227.05 76.051 226.995 74.9469C226.94 73.8429 226.449 72.9724 225.896 73.0007C225.344 73.029 224.95 73.949 225.005 75.0531Z" fill="#2A2B35"/>
<path d="M234.005 75.0531C234.06 76.1571 234.551 77.0276 235.104 76.9993C235.656 76.971 236.05 76.051 235.995 74.9469C235.94 73.8429 235.449 72.9724 234.896 73.0007C234.344 73.029 233.95 73.949 234.005 75.0531Z" fill="#2A2B35"/>
<path d="M227.705 69.8909C227.646 69.9054 227.58 69.9127 227.521 69.8909C225.019 69.3884 222.65 70.9103 222.628 70.9322C222.444 71.0559 222.194 71.005 222.069 70.8229C221.943 70.6409 221.995 70.3933 222.179 70.2695C222.289 70.1967 224.85 68.551 227.675 69.119C227.896 69.1627 228.036 69.3739 227.992 69.585C227.962 69.738 227.845 69.8545 227.705 69.8909Z" fill="#A54F3C"/>
<path d="M239.701 70.9834C239.597 71.016 239.485 70.9997 239.389 70.9427C236.439 69.0687 234.634 70.2664 234.619 70.2745C234.426 70.4049 234.18 70.3397 234.062 70.136C233.943 69.9242 234.002 69.6553 234.188 69.5249C234.277 69.4598 236.432 68.0339 239.797 70.1768C239.991 70.299 240.058 70.576 239.946 70.7878C239.887 70.8938 239.797 70.9671 239.701 70.9915V70.9834Z" fill="#A54F3C"/>
</g>
<defs>
<filter id="filter0_d_1_4557" x="177.481" y="113.641" width="40.0752" height="59.7812" filterUnits="userSpaceOnUse" color-interpolation-filters="sRGB">
<feFlood flood-opacity="0" result="BackgroundImageFix"/>
<feColorMatrix in="SourceAlpha" type="matrix" values="0 0 0 0 0 0 0 0 0 0 0 0 0 0 0 0 0 0 127 0" result="hardAlpha"/>
<feOffset dy="3"/>
<feComposite in2="hardAlpha" operator="out"/>
<feColorMatrix type="matrix" values="0 0 0 0 0 0 0 0 0 0 0 0 0 0 0 0 0 0 0.25 0"/>
<feBlend mode="normal" in2="BackgroundImageFix" result="effect1_dropShadow_1_4557"/>
<feBlend mode="normal" in="SourceGraphic" in2="effect1_dropShadow_1_4557" result="shape"/>
</filter>
<linearGradient id="paint0_linear_1_4557" x1="314.312" y1="60.4473" x2="314.312" y2="71.114" gradientUnits="userSpaceOnUse">
<stop stop-color="#18CACD"/>
<stop offset="1" stop-color="#64E9EC"/>
</linearGradient>
<linearGradient id="paint1_linear_1_4557" x1="314.312" y1="95.9707" x2="314.312" y2="106.637" gradientUnits="userSpaceOnUse">
<stop stop-color="#18CACD"/>
<stop offset="1" stop-color="#64E9EC"/>
</linearGradient>
<linearGradient id="paint2_linear_1_4557" x1="314.312" y1="78.209" x2="314.312" y2="88.8757" gradientUnits="userSpaceOnUse">
<stop stop-color="#18CACD"/>
<stop offset="1" stop-color="#64E9EC"/>
</linearGradient>
<linearGradient id="paint3_linear_1_4557" x1="295.843" y1="28.2559" x2="295.843" y2="42.5444" gradientUnits="userSpaceOnUse">
<stop stop-color="#18CACD"/>
<stop offset="1" stop-color="#64E9EC"/>
</linearGradient>
<linearGradient id="paint4_linear_1_4557" x1="272.691" y1="62.0781" x2="272.691" y2="65.3894" gradientUnits="userSpaceOnUse">
<stop stop-color="#18CACD"/>
<stop offset="1" stop-color="#64E9EC"/>
</linearGradient>
<linearGradient id="paint5_linear_1_4557" x1="272.819" y1="79.8379" x2="272.819" y2="83.1481" gradientUnits="userSpaceOnUse">
<stop stop-color="#18CACD"/>
<stop offset="1" stop-color="#64E9EC"/>
</linearGradient>
<linearGradient id="paint6_linear_1_4557" x1="272.863" y1="97.5762" x2="272.863" y2="100.938" gradientUnits="userSpaceOnUse">
<stop stop-color="#18CACD"/>
<stop offset="1" stop-color="#64E9EC"/>
</linearGradient>
<linearGradient id="paint7_linear_1_4557" x1="290.987" y1="81.0664" x2="290.987" y2="81.9238" gradientUnits="userSpaceOnUse">
<stop stop-color="#18CACD"/>
<stop offset="1" stop-color="#64E9EC"/>
</linearGradient>
<linearGradient id="paint8_linear_1_4557" x1="276.683" y1="85.1602" x2="276.683" y2="86.0175" gradientUnits="userSpaceOnUse">
<stop stop-color="#18CACD"/>
<stop offset="1" stop-color="#64E9EC"/>
</linearGradient>
<linearGradient id="paint9_linear_1_4557" x1="295.441" y1="85.1602" x2="295.441" y2="86.0175" gradientUnits="userSpaceOnUse">
<stop stop-color="#18CACD"/>
<stop offset="1" stop-color="#64E9EC"/>
</linearGradient>
<linearGradient id="paint10_linear_1_4557" x1="131.635" y1="29.1816" x2="131.635" y2="194.028" gradientUnits="userSpaceOnUse">
<stop stop-color="#18CACD"/>
<stop offset="1" stop-color="#64E9EC"/>
</linearGradient>
<linearGradient id="paint11_linear_1_4557" x1="329.859" y1="201.854" x2="329.859" y2="231.045" gradientUnits="userSpaceOnUse">
<stop stop-color="#75F462"/>
<stop offset="1" stop-color="#2EB519"/>
</linearGradient>
<linearGradient id="paint12_linear_1_4557" x1="322.506" y1="175.43" x2="322.506" y2="229.219" gradientUnits="userSpaceOnUse">
<stop stop-color="#17A50B"/>
<stop offset="1" stop-color="#0EB700"/>
</linearGradient>
<linearGradient id="paint13_linear_1_4557" x1="322.723" y1="182.508" x2="322.723" y2="229.052" gradientUnits="userSpaceOnUse">
<stop stop-color="#75F462"/>
<stop offset="1" stop-color="#2EB519"/>
</linearGradient>
<linearGradient id="paint14_linear_1_4557" x1="285.954" y1="143.646" x2="285.954" y2="226.596" gradientUnits="userSpaceOnUse">
<stop stop-color="#17A50B"/>
<stop offset="1" stop-color="#0EB700"/>
</linearGradient>
<linearGradient id="paint15_linear_1_4557" x1="312.784" y1="150.312" x2="312.784" y2="228.017" gradientUnits="userSpaceOnUse">
<stop stop-color="#75F462"/>
<stop offset="1" stop-color="#2EB519"/>
</linearGradient>
<linearGradient id="paint16_linear_1_4557" x1="269.802" y1="167.691" x2="269.802" y2="225.078" gradientUnits="userSpaceOnUse">
<stop stop-color="#17A50B"/>
<stop offset="1" stop-color="#0EB700"/>
</linearGradient>
<linearGradient id="paint17_linear_1_4557" x1="285.161" y1="150.25" x2="285.161" y2="226.313" gradientUnits="userSpaceOnUse">
<stop stop-color="#75F462"/>
<stop offset="1" stop-color="#2EB519"/>
</linearGradient>
<linearGradient id="paint18_linear_1_4557" x1="312.443" y1="159.457" x2="312.443" y2="227.586" gradientUnits="userSpaceOnUse">
<stop stop-color="#17A50B"/>
<stop offset="1" stop-color="#0EB700"/>
</linearGradient>
<linearGradient id="paint19_linear_1_4557" x1="329.771" y1="205.539" x2="329.771" y2="230.325" gradientUnits="userSpaceOnUse">
<stop stop-color="#75F462"/>
<stop offset="1" stop-color="#2EB519"/>
</linearGradient>
<linearGradient id="paint20_linear_1_4557" x1="229.662" y1="2.88867" x2="229.662" y2="64.8063" gradientUnits="userSpaceOnUse">
<stop stop-color="#18CACD"/>
<stop offset="1" stop-color="#64E9EC"/>
</linearGradient>
<linearGradient id="paint21_linear_1_4557" x1="216.686" y1="12.0801" x2="216.686" y2="15.1942" gradientUnits="userSpaceOnUse">
<stop stop-color="#18CACD"/>
<stop offset="1" stop-color="#64E9EC"/>
</linearGradient>
<linearGradient id="paint22_linear_1_4557" x1="222.498" y1="12.0078" x2="222.498" y2="15.1209" gradientUnits="userSpaceOnUse">
<stop stop-color="#18CACD"/>
<stop offset="1" stop-color="#64E9EC"/>
</linearGradient>
<linearGradient id="paint23_linear_1_4557" x1="221.041" y1="175.133" x2="221.041" y2="236.019" gradientUnits="userSpaceOnUse">
<stop stop-color="#198DA1"/>
<stop offset="1" stop-color="#4DCCE1"/>
</linearGradient>
<linearGradient id="paint24_linear_1_4557" x1="251.974" y1="176.709" x2="251.974" y2="236.021" gradientUnits="userSpaceOnUse">
<stop stop-color="#198DA1"/>
<stop offset="1" stop-color="#4DCCE1"/>
</linearGradient>
<linearGradient id="paint25_linear_1_4557" x1="262.679" y1="166.539" x2="262.679" y2="171.847" gradientUnits="userSpaceOnUse">
<stop stop-color="#17A50B"/>
<stop offset="1" stop-color="#0EB700"/>
</linearGradient>
<linearGradient id="paint26_linear_1_4557" x1="220.879" y1="91.6582" x2="220.879" y2="160.944" gradientUnits="userSpaceOnUse">
<stop stop-color="#26CF13"/>
<stop offset="1" stop-color="#97FF8C"/>
</linearGradient>
<clipPath id="clip0_1_4557">
<rect width="371" height="236" fill="white"/>
</clipPath>
</defs>
</svg>
