<svg width="371" height="238" viewBox="0 0 371 238" fill="none" xmlns="http://www.w3.org/2000/svg">
<g clip-path="url(#clip0_1_3945)">
<path fill-rule="evenodd" clip-rule="evenodd" d="M100.923 5.44727H162.206C166.659 5.44727 170.302 9.09662 170.302 13.5563V70.7396C170.302 71.1113 170.089 71.4342 169.742 71.5743C169.396 71.7144 169.025 71.6413 168.757 71.3793L154.968 57.5678H100.923C96.4707 57.5678 92.8271 53.9185 92.8271 49.4588V13.5563C92.8271 9.09662 96.4707 5.44727 100.923 5.44727Z" fill="#AEEFF3"/>
<path fill-rule="evenodd" clip-rule="evenodd" d="M44.3309 220.905C44.3309 220.905 14.246 184.972 49.343 153.852C49.343 153.852 17.8226 118.674 37.8833 78.757C57.9439 38.8395 96.6236 42.2269 127.432 50.342C158.235 58.4631 198.356 54.3995 229.159 22.6032C259.961 -9.19306 295.782 -2.43049 309.395 12.4533C323.008 27.337 326.585 57.7808 311.542 88.2246C296.5 118.668 305.095 138.286 317.99 153.17C330.885 168.053 332.315 209.482 301.512 220.899H44.3309V220.905ZM53.388 233.632C53.388 233.632 21.235 214.258 29.033 180.799C29.033 180.799 29.2641 179.94 28.516 179.806C27.7678 179.666 11.7947 205.406 34.1181 228.965L53.388 233.632Z" fill="#EEFDFD"/>
<path fill-rule="evenodd" clip-rule="evenodd" d="M223.708 142.837C260.788 139.334 253.878 177.722 229.967 201.921C225.581 206.357 218.592 212.425 209.997 219.602H135.552C164.353 179.111 198.24 145.244 223.714 142.837H223.708Z" fill="url(#paint0_linear_1_3945)"/>
<path fill-rule="evenodd" clip-rule="evenodd" d="M163.623 219.596C200.113 183.206 233.197 159.117 233.397 158.964C234.066 158.471 235.003 158.617 235.496 159.287C235.982 159.957 235.843 160.896 235.173 161.389C234.973 161.535 203.294 184.601 167.844 219.596H163.623Z" fill="#26CF13"/>
<path fill-rule="evenodd" clip-rule="evenodd" d="M198.106 55.3794C213.325 50.5786 213.873 67.2779 206.02 79.5663C198.581 91.215 165.911 127.38 158.514 145.98L154.506 143.841C156.671 116.09 178.618 61.5267 198.106 55.3794Z" fill="#AAFA9C"/>
<path fill-rule="evenodd" clip-rule="evenodd" d="M155.978 144.627C165.302 104.039 203.477 61.4106 203.605 61.2704C203.842 61.0024 204.25 60.9841 204.511 61.2156C204.773 61.4532 204.797 61.8614 204.566 62.1234C204.438 62.2696 166.215 104.941 157.133 145.248L155.972 144.627H155.978Z" fill="#26CF13"/>
<path fill-rule="evenodd" clip-rule="evenodd" d="M206.562 80.5782C221.647 78.6591 219.335 94.4141 209.895 104.601C202.073 113.045 173.01 135.788 159.08 152.188L152.688 149.776C162.018 123.359 188.752 82.8446 206.556 80.5721L206.562 80.5782Z" fill="#26CF13"/>
<path fill-rule="evenodd" clip-rule="evenodd" d="M155.03 150.66C172.542 116.78 210.595 87.1407 210.728 87.031C210.996 86.8239 211.379 86.8665 211.586 87.1346C211.793 87.4027 211.75 87.7865 211.483 87.9936C211.349 88.1033 173.539 117.548 156.161 151.087L155.023 150.66H155.03Z" fill="#AAFA9C"/>
<path fill-rule="evenodd" clip-rule="evenodd" d="M13.0295 219.596H355.392C357.637 219.596 359.474 221.436 359.474 223.684C359.474 225.932 357.637 227.772 355.392 227.772H341.615C340.368 227.772 339.346 228.795 339.346 230.044C339.346 231.293 340.368 232.317 341.615 232.317H346.658C348.215 232.317 349.492 233.596 349.492 235.156C349.492 236.715 348.215 237.995 346.658 237.995H22.2204C20.6632 237.995 19.3859 236.715 19.3859 235.156C19.3859 233.596 20.6632 232.317 22.2204 232.317H26.1924C27.4393 232.317 28.4612 231.293 28.4612 230.044C28.4612 228.795 27.4393 227.772 26.1924 227.772H13.0356C10.7911 227.772 8.9541 225.932 8.9541 223.684C8.9541 221.436 10.7911 219.596 13.0356 219.596H13.0295ZM15.1584 238.001C16.6548 238.001 17.8835 236.776 17.8835 235.271V235.046C17.8835 233.547 16.6608 232.323 15.1584 232.323C13.6621 232.323 12.4334 233.547 12.4334 235.046V235.271C12.4334 236.77 13.656 238.001 15.1584 238.001Z" fill="#198DA1"/>
<path fill-rule="evenodd" clip-rule="evenodd" d="M325.489 114.806C326.657 113.643 328.263 112.918 330.039 112.918C331.815 112.918 333.427 113.643 334.589 114.806C335.757 115.976 336.474 117.584 336.474 119.363C336.474 121.142 335.757 122.757 334.589 123.92C333.427 125.084 331.815 125.809 330.039 125.809C328.263 125.809 326.651 125.084 325.489 123.92C324.327 122.751 323.604 121.142 323.604 119.363C323.604 117.584 324.321 115.97 325.489 114.806ZM326.882 108.415C325.988 108.671 325.142 109.037 324.358 109.494C323.555 109.963 322.813 110.523 322.144 111.163C322.016 111.291 321.821 111.309 321.669 111.218L318.677 109.488L318.658 109.475C318.488 109.384 318.293 109.366 318.111 109.414C317.928 109.463 317.764 109.585 317.661 109.762L317.649 109.78L315.544 113.429C315.441 113.606 315.422 113.807 315.471 113.996C315.52 114.179 315.641 114.343 315.818 114.447L315.836 114.459L318.804 116.177C318.962 116.268 319.029 116.445 318.993 116.616C318.883 117.06 318.798 117.511 318.744 117.98C318.689 118.431 318.658 118.9 318.658 119.369C318.658 119.839 318.689 120.302 318.744 120.758C318.798 121.221 318.883 121.678 318.993 122.123C319.035 122.306 318.944 122.495 318.786 122.574L315.824 124.292C315.647 124.396 315.526 124.56 315.477 124.743C315.428 124.926 315.447 125.133 315.55 125.303L317.667 128.977C317.77 129.154 317.935 129.27 318.117 129.324C318.299 129.373 318.5 129.355 318.677 129.251L318.701 129.239L321.669 127.521C321.821 127.43 322.016 127.46 322.138 127.576C322.801 128.216 323.543 128.782 324.352 129.245C325.142 129.702 325.994 130.068 326.888 130.324C327.065 130.372 327.174 130.531 327.174 130.701V134.156C327.174 134.357 327.259 134.546 327.393 134.68C327.527 134.814 327.709 134.899 327.916 134.899H332.15C332.35 134.899 332.539 134.814 332.673 134.68C332.807 134.546 332.892 134.357 332.892 134.156V130.701C332.892 130.512 333.02 130.36 333.196 130.317C334.09 130.062 334.936 129.696 335.72 129.239C336.523 128.776 337.265 128.209 337.934 127.57C338.068 127.442 338.275 127.424 338.427 127.527L341.395 129.245C341.572 129.349 341.772 129.367 341.955 129.318C342.137 129.27 342.302 129.148 342.405 128.971L342.417 128.953L344.522 125.297C344.625 125.121 344.644 124.92 344.595 124.737C344.546 124.554 344.425 124.383 344.254 124.286L341.268 122.556C341.109 122.464 341.043 122.288 341.079 122.117C341.189 121.678 341.274 121.221 341.328 120.752C341.383 120.302 341.414 119.839 341.414 119.363C341.414 118.888 341.383 118.425 341.328 117.974C341.274 117.511 341.189 117.054 341.079 116.616C341.036 116.433 341.128 116.244 341.286 116.165L344.254 114.447C344.431 114.343 344.546 114.179 344.595 113.996C344.644 113.813 344.625 113.612 344.522 113.435L344.51 113.411L342.405 109.762C342.302 109.585 342.137 109.469 341.955 109.42C341.772 109.372 341.572 109.39 341.395 109.494L338.403 111.224C338.245 111.315 338.044 111.285 337.922 111.157C337.259 110.517 336.517 109.957 335.72 109.494C334.929 109.037 334.078 108.671 333.184 108.415C333.007 108.367 332.898 108.208 332.898 108.038V104.583C332.898 104.382 332.813 104.193 332.679 104.059C332.545 103.925 332.357 103.84 332.156 103.84H327.922C327.722 103.84 327.533 103.925 327.399 104.059C327.265 104.193 327.18 104.376 327.18 104.583V108.038C327.18 108.226 327.052 108.379 326.876 108.421L326.882 108.415Z" fill="#AEEFF3"/>
<path fill-rule="evenodd" clip-rule="evenodd" d="M343.068 63.7507C343.95 62.8673 345.003 62.1545 346.176 61.6671C347.308 61.198 348.543 60.9421 349.838 60.9421C351.134 60.9421 352.369 61.198 353.5 61.6671C354.674 62.1545 355.732 62.8673 356.608 63.7507C357.49 64.6341 358.202 65.6881 358.689 66.8639C359.157 67.9971 359.412 69.2339 359.412 70.5315C359.412 71.8292 359.157 73.066 358.689 74.1992C358.202 75.375 357.49 76.4351 356.608 77.3124C355.726 78.1958 354.674 78.9086 353.5 79.396C352.369 79.8651 351.134 80.1271 349.838 80.1271C348.543 80.1271 347.308 79.8712 346.176 79.4021C345.003 78.9147 343.944 78.2019 343.068 77.3185C342.186 76.4351 341.475 75.3811 340.988 74.2053C340.52 73.0721 340.264 71.8353 340.264 70.5376C340.264 69.24 340.52 68.0032 340.988 66.87C341.475 65.6942 342.186 64.6341 343.068 63.7568V63.7507ZM346.517 62.4896C345.459 62.9282 344.498 63.574 343.701 64.3782C342.898 65.1824 342.253 66.1389 341.815 67.2051C341.389 68.2286 341.158 69.3557 341.158 70.5376C341.158 71.7196 341.389 72.8467 341.815 73.8702C342.253 74.9303 342.898 75.8868 343.701 76.691C344.504 77.4952 345.459 78.141 346.517 78.5796C347.539 79.0061 348.664 79.2376 349.844 79.2376C351.024 79.2376 352.144 79.0061 353.165 78.5796C354.23 78.141 355.185 77.4952 355.988 76.691C356.791 75.8868 357.435 74.9303 357.879 73.8702C358.305 72.8467 358.536 71.7196 358.536 70.5376C358.536 69.3557 358.305 68.2347 357.879 67.2051C357.442 66.145 356.797 65.1885 355.988 64.3782C355.185 63.574 354.23 62.9282 353.172 62.4896C352.15 62.0631 351.024 61.8316 349.85 61.8316C348.676 61.8316 347.545 62.0631 346.523 62.4896H346.517ZM345.459 55.4285C344.863 55.599 344.273 55.8123 343.695 56.056C343.111 56.3058 342.545 56.586 341.998 56.9028C341.444 57.2257 340.915 57.5791 340.404 57.9629C339.893 58.3528 339.406 58.7671 338.944 59.2118C338.78 59.3702 338.579 59.4616 338.372 59.486C338.159 59.5104 337.941 59.4677 337.746 59.3581C336.341 58.5417 334.863 57.7375 333.482 56.8906C333.415 56.8541 333.348 56.8358 333.275 56.8297C333.196 56.8236 333.117 56.8297 333.038 56.848C332.959 56.8663 332.886 56.9028 332.825 56.9516C332.764 57.0003 332.709 57.0551 332.667 57.1282C331.639 58.6818 330.611 60.6862 329.662 62.3373C329.619 62.4104 329.595 62.4835 329.589 62.5566C329.577 62.6358 329.589 62.7211 329.607 62.8003C329.626 62.8795 329.662 62.9526 329.711 63.0135C329.759 63.0744 329.82 63.1293 329.887 63.1719C331.152 64.0127 332.782 64.8473 334.121 65.6211C334.315 65.7307 334.461 65.9013 334.54 66.0963C334.571 66.1633 334.589 66.2364 334.601 66.3034L334.686 66.3339L334.589 66.7299C334.516 67.0406 334.443 67.3513 334.388 67.662C334.334 67.9666 334.285 68.2774 334.248 68.6063C334.212 68.9292 334.181 69.246 334.163 69.5568C334.145 69.8614 334.133 70.1843 334.133 70.5194C334.133 70.8544 334.145 71.1773 334.163 71.482C334.181 71.7988 334.212 72.1156 334.248 72.4385C334.291 72.7675 334.34 73.0843 334.388 73.3828C334.443 73.6935 334.516 74.0042 334.589 74.3149C334.644 74.5464 334.619 74.778 334.528 74.979C334.437 75.1801 334.279 75.3445 334.072 75.4481L330.319 77.617L329.875 77.8729C329.802 77.9155 329.741 77.9643 329.699 78.0313C329.65 78.0922 329.613 78.1714 329.595 78.2445C329.571 78.3237 329.565 78.409 329.577 78.4882C329.589 78.5613 329.613 78.6405 329.65 78.7076L332.43 83.5267L332.655 83.9166C332.697 83.9897 332.752 84.0445 332.813 84.0932C332.874 84.142 332.947 84.1785 333.026 84.1968C333.105 84.2151 333.19 84.2212 333.269 84.2151C333.342 84.2029 333.421 84.1785 333.488 84.142C334.832 83.2951 336.347 82.4909 337.734 81.6867C337.934 81.571 338.147 81.5344 338.354 81.5588C338.567 81.5832 338.768 81.6807 338.926 81.833C339.382 82.2777 339.875 82.692 340.386 83.0819C340.897 83.4657 341.432 83.8191 341.979 84.142C342.527 84.4588 343.099 84.7451 343.689 84.9949C344.267 85.2386 344.869 85.4519 345.483 85.6346C345.702 85.6955 345.878 85.8296 346.006 85.9941C346.134 86.1647 346.207 86.3779 346.207 86.6033V91.5077C346.207 91.593 346.225 91.6661 346.256 91.7392C346.286 91.8123 346.329 91.8793 346.389 91.9342C346.444 91.989 346.511 92.0377 346.584 92.0682C346.657 92.0987 346.73 92.1109 346.815 92.1109H352.819C352.904 92.1109 352.977 92.0926 353.05 92.0682C353.123 92.0377 353.19 91.989 353.251 91.9342C353.305 91.8733 353.354 91.8062 353.384 91.7331C353.415 91.6661 353.427 91.5869 353.427 91.5016V86.5972C353.427 86.3657 353.506 86.1464 353.646 85.9758C353.786 85.7991 353.981 85.6712 354.199 85.6163C354.796 85.4458 355.386 85.2325 355.963 84.9888C356.547 84.739 357.113 84.4527 357.661 84.142C358.214 83.8252 358.749 83.4657 359.254 83.0819C359.765 82.692 360.252 82.2777 360.714 81.833C360.884 81.6685 361.097 81.5771 361.316 81.5588C361.541 81.5405 361.766 81.5954 361.961 81.7172L366.152 84.142C366.219 84.1846 366.298 84.209 366.371 84.2151C366.45 84.2273 366.535 84.2151 366.614 84.1968C366.693 84.1785 366.766 84.142 366.827 84.0932C366.888 84.0445 366.943 83.9897 366.979 83.9166C367.977 82.1802 368.986 80.4439 369.984 78.7076C370.027 78.6345 370.051 78.5613 370.057 78.4882C370.069 78.409 370.057 78.3298 370.039 78.2445C370.02 78.1653 369.984 78.0922 369.935 78.0252C369.887 77.9643 369.832 77.9095 369.759 77.8729L365.519 75.4237C365.325 75.308 365.179 75.1435 365.1 74.9485C365.075 74.8937 365.057 74.845 365.045 74.784L364.935 74.7597L365.045 74.3088C365.118 73.9981 365.191 73.6874 365.246 73.3767C365.3 73.0721 365.349 72.7614 365.392 72.4324C365.428 72.1095 365.458 71.7927 365.477 71.4759C365.495 71.1712 365.507 70.8483 365.507 70.5133C365.507 70.1782 365.501 69.8553 365.477 69.5507C365.458 69.2339 365.428 68.9171 365.392 68.5942C365.349 68.2591 365.3 67.9423 365.246 67.6437C365.191 67.333 365.118 67.0223 365.045 66.7116C364.99 66.4801 365.014 66.2486 365.106 66.0475C365.197 65.8465 365.355 65.682 365.556 65.5784L369.753 63.1475C369.82 63.111 369.881 63.0562 369.929 62.9952C369.978 62.9343 370.014 62.8612 370.033 62.7759C370.057 62.6967 370.063 62.6114 370.051 62.5322C370.039 62.4591 370.014 62.3799 369.978 62.3129C368.95 60.7837 367.928 58.7488 366.973 57.1039C366.931 57.0308 366.876 56.9759 366.821 56.9272C366.76 56.8785 366.681 56.8419 366.608 56.8236C366.529 56.7992 366.444 56.7932 366.365 56.8053C366.292 56.8175 366.213 56.8419 366.146 56.8785L361.906 59.3337C361.705 59.4494 361.48 59.4921 361.268 59.4616C361.055 59.4312 360.854 59.3337 360.696 59.1814C360.233 58.7366 359.753 58.3224 359.242 57.9385C358.737 57.5608 358.208 57.2074 357.648 56.8845C357.101 56.5677 356.529 56.2814 355.945 56.0316C355.367 55.7879 354.765 55.5747 354.151 55.398C353.932 55.3371 353.749 55.203 353.628 55.0385C353.5 54.868 353.427 54.6547 353.427 54.4293V49.5249C353.427 49.4457 353.409 49.3665 353.378 49.2934C353.348 49.2203 353.299 49.1533 353.245 49.0984C353.19 49.0436 353.123 48.9949 353.05 48.9644C352.977 48.934 352.904 48.9218 352.819 48.9218H346.815C346.73 48.9218 346.657 48.94 346.584 48.9644C346.511 48.9949 346.444 49.0436 346.383 49.0984C346.274 49.2081 346.207 49.3604 346.207 49.5249V54.4293C346.207 54.6669 346.128 54.8801 345.994 55.0507C345.854 55.2274 345.659 55.3554 345.434 55.4041L345.459 55.4285ZM343.348 55.2457C342.734 55.5077 342.131 55.8062 341.554 56.1413C340.964 56.4824 340.404 56.8541 339.869 57.2623C339.333 57.6705 338.816 58.1091 338.33 58.5782C338.312 58.5965 338.287 58.6087 338.263 58.6087C338.239 58.6087 338.214 58.6087 338.19 58.5965C336.767 57.774 335.337 56.9516 333.914 56.123C333.744 56.0316 333.561 55.9768 333.379 55.9524C333.19 55.928 332.995 55.9463 332.819 55.9951C332.63 56.0438 332.454 56.1352 332.296 56.2509C332.144 56.3667 332.016 56.5129 331.913 56.6896C330.879 58.365 329.899 60.1805 328.908 61.8986C328.81 62.0753 328.75 62.2641 328.725 62.453C328.701 62.648 328.713 62.849 328.762 63.0379C328.81 63.2267 328.902 63.4034 329.017 63.5618C329.133 63.7141 329.279 63.8482 329.455 63.9456C330.818 64.7864 332.296 65.5906 333.695 66.3948C333.719 66.407 333.731 66.4253 333.743 66.4496C333.756 66.474 333.756 66.4984 333.743 66.5227L333.646 66.9187C333.604 67.1137 333.561 67.3087 333.525 67.5097C333.464 67.8509 333.409 68.186 333.372 68.5089C333.336 68.8318 333.306 69.1668 333.281 69.5141C333.257 69.8614 333.251 70.2026 333.251 70.5315C333.251 70.8605 333.263 71.2017 333.281 71.549C333.299 71.8962 333.33 72.2313 333.372 72.5542C333.415 72.8832 333.464 73.2183 333.525 73.5534C333.585 73.8885 333.658 74.2175 333.737 74.5403C333.743 74.5647 333.737 74.5952 333.731 74.6196C333.719 74.6439 333.701 74.6683 333.677 74.6744C332.119 75.509 330.538 76.4899 328.999 77.3794L329.054 77.4464L329.005 77.5074C328.883 77.6658 328.798 77.8424 328.75 78.0313C328.701 78.2202 328.683 78.4151 328.713 78.6162C328.737 78.805 328.798 78.9939 328.902 79.1706L332.132 84.7695L332.192 84.733C332.223 84.7634 332.259 84.7878 332.29 84.8182C332.448 84.9401 332.624 85.0254 332.813 85.0741C332.995 85.1229 333.196 85.135 333.391 85.1107C333.579 85.0863 333.762 85.0254 333.932 84.934C335.343 84.1846 336.797 83.2769 338.19 82.4727C338.208 82.4605 338.239 82.4605 338.263 82.4605C338.287 82.4605 338.312 82.4727 338.33 82.4909C338.816 82.9601 339.327 83.3987 339.869 83.8069C340.404 84.209 340.97 84.5867 341.554 84.9279C342.131 85.263 342.734 85.5676 343.354 85.8296C343.975 86.0916 344.607 86.317 345.252 86.5058C345.276 86.5119 345.301 86.5302 345.313 86.5485C345.331 86.5729 345.337 86.5972 345.337 86.6216V91.526C345.337 91.727 345.38 91.922 345.453 92.0987C345.532 92.2814 345.641 92.4459 345.781 92.5861C345.921 92.7262 346.085 92.8359 346.268 92.909C346.444 92.9821 346.639 93.0247 346.839 93.0247H352.843C353.044 93.0247 353.238 92.9821 353.415 92.909C353.597 92.8359 353.762 92.7201 353.901 92.5861C354.035 92.452 354.151 92.2814 354.224 92.0987C354.297 91.922 354.339 91.727 354.339 91.526V86.6216C354.339 86.6216 354.345 86.5668 354.364 86.5485C354.376 86.5302 354.4 86.5119 354.431 86.5058H354.449C355.1 86.3109 355.732 86.0855 356.335 85.8296C356.949 85.5676 357.551 85.2691 358.129 84.934C358.713 84.5928 359.279 84.2212 359.814 83.813C360.349 83.4048 360.866 82.9662 361.353 82.497C361.371 82.4788 361.401 82.4666 361.42 82.4666C361.444 82.4666 361.474 82.4666 361.499 82.4849L365.738 84.934C365.915 85.0376 366.097 85.0985 366.292 85.1229C366.486 85.1472 366.687 85.1351 366.876 85.0863C367.064 85.0376 367.241 84.9462 367.399 84.8304C367.545 84.7147 367.679 84.5745 367.776 84.404C368.889 82.6128 369.941 80.6449 371.006 78.805L370.951 78.7685C370.963 78.7197 370.969 78.6771 370.975 78.6284C371 78.4334 370.988 78.2323 370.939 78.0496C370.89 77.8607 370.799 77.684 370.684 77.5256C370.568 77.3733 370.422 77.2393 370.246 77.1418L366.006 74.6927C366.006 74.6927 365.969 74.6622 365.957 74.6378C365.945 74.6135 365.945 74.583 365.951 74.5586L366.061 74.1078C366.097 73.9311 366.134 73.7544 366.164 73.5717C366.225 73.2305 366.28 72.8954 366.316 72.5664C366.353 72.2435 366.389 71.9023 366.407 71.5612C366.426 71.2139 366.438 70.8788 366.438 70.5437C366.438 70.2086 366.426 69.8736 366.407 69.5263C366.389 69.179 366.359 68.8439 366.316 68.515C366.274 68.1921 366.225 67.857 366.164 67.5158C366.103 67.1807 366.03 66.8517 365.951 66.5349C365.945 66.5106 365.951 66.4801 365.957 66.4557C365.969 66.4314 365.988 66.4131 366.012 66.4009L370.246 63.9517C370.422 63.8482 370.568 63.7202 370.684 63.5679C370.805 63.4095 370.89 63.2328 370.939 63.044C370.988 62.8551 371 62.6601 370.975 62.4591C370.951 62.2763 370.896 62.0875 370.799 61.9169C369.789 60.0465 368.634 58.1579 367.563 56.3058L367.502 56.3423C367.472 56.3119 367.435 56.2875 367.399 56.257C367.241 56.1352 367.064 56.0499 366.876 56.0011C366.687 55.9524 366.493 55.9341 366.292 55.9646C366.103 55.989 365.915 56.0499 365.744 56.1474L365.428 56.3301L361.499 58.6087C361.474 58.6209 361.45 58.627 361.426 58.6209C361.401 58.6209 361.377 58.6087 361.359 58.5904L361.347 58.5782C360.866 58.1152 360.349 57.6766 359.814 57.2684C359.279 56.8602 358.713 56.4885 358.135 56.1535C357.557 55.8184 356.955 55.5138 356.335 55.2518C355.714 54.9898 355.081 54.7644 354.437 54.5755C354.412 54.5694 354.388 54.5512 354.376 54.5329C354.358 54.5085 354.352 54.4841 354.352 54.4598V49.5554C354.352 49.3543 354.309 49.1594 354.236 48.9827C354.157 48.7999 354.047 48.6354 353.908 48.4953C353.768 48.3552 353.603 48.2455 353.427 48.1724C353.251 48.0993 353.056 48.0566 352.855 48.0566H346.852C346.651 48.0566 346.456 48.0993 346.28 48.1724C346.097 48.2455 345.933 48.3613 345.793 48.4953C345.526 48.7634 345.355 49.1411 345.355 49.5493V54.4537C345.355 54.4537 345.349 54.5085 345.331 54.5268C345.313 54.5451 345.294 54.5633 345.264 54.5694H345.246C344.595 54.7644 343.962 54.9898 343.36 55.2457H343.348Z" fill="#AEEFF3"/>
<path fill-rule="evenodd" clip-rule="evenodd" d="M105.024 2.32031H166.307C170.759 2.32031 174.403 5.96967 174.403 10.4293V67.6127C174.403 67.9843 174.19 68.3072 173.843 68.4473C173.496 68.5875 173.125 68.5143 172.858 68.2524L159.068 54.4409H105.024C100.571 54.4409 96.9277 50.7915 96.9277 46.3319V10.4293C96.9277 5.96967 100.571 2.32031 105.024 2.32031Z" fill="url(#paint1_linear_1_3945)"/>
<path fill-rule="evenodd" clip-rule="evenodd" d="M111.477 44.1933H143.271C144.719 44.1933 145.905 43.0052 145.905 41.5552V17.3806C145.905 15.9306 144.719 14.7425 143.271 14.7425H141.982V13.518C141.982 13.1159 141.653 12.793 141.258 12.793H131.654C131.252 12.793 130.93 13.122 130.93 13.518V14.7425H111.483C110.036 14.7425 108.85 15.9306 108.85 17.3806V41.5552C108.85 43.0052 110.036 44.1933 111.483 44.1933H111.477Z" fill="#EE9B60"/>
<path d="M133.661 19.3613H113.576C112.39 19.3613 111.429 20.3242 111.429 21.5119V42.0434C111.429 43.2311 112.39 44.194 113.576 44.194H133.661C134.847 44.194 135.808 43.2311 135.808 42.0434V21.5119C135.808 20.3242 134.847 19.3613 133.661 19.3613Z" fill="white"/>
<path fill-rule="evenodd" clip-rule="evenodd" d="M114.646 44.1937H144.001C145.449 44.1937 147.164 43.0057 147.809 41.5557L157.061 20.7501C157.705 19.3001 157.048 18.1121 155.601 18.1121H154.056L154.634 16.8083C154.871 16.2783 154.634 15.8457 154.098 15.8457H143.387C142.858 15.8457 142.231 16.2783 142 16.8083L141.422 18.1121H126.246C124.798 18.1121 123.083 19.3001 122.438 20.7501L113.186 41.5557C112.542 43.0057 113.199 44.1937 114.646 44.1937Z" fill="#FFB571"/>
<path fill-rule="evenodd" clip-rule="evenodd" d="M142.158 8.96094H165.272C165.57 8.96094 165.808 9.20463 165.808 9.49707C165.808 9.78951 165.564 10.0332 165.272 10.0332H142.158C141.866 10.0332 141.623 9.78951 141.623 9.49707C141.623 9.20463 141.866 8.96094 142.158 8.96094Z" fill="#EFEEF8"/>
<path fill-rule="evenodd" clip-rule="evenodd" d="M142.158 12.3301H165.272C165.57 12.3301 165.808 12.5738 165.808 12.8662C165.808 13.1586 165.564 13.4023 165.272 13.4023H142.158C141.866 13.4023 141.623 13.1586 141.623 12.8662C141.623 12.5738 141.866 12.3301 142.158 12.3301Z" fill="#EFEEF8"/>
<path fill-rule="evenodd" clip-rule="evenodd" d="M160.911 16.041H165.273C165.571 16.041 165.808 16.2847 165.808 16.5771C165.808 16.8696 165.564 17.1133 165.273 17.1133H160.911C160.619 17.1133 160.376 16.8696 160.376 16.5771C160.376 16.2786 160.619 16.041 160.911 16.041Z" fill="#EFEEF8"/>
<path fill-rule="evenodd" clip-rule="evenodd" d="M160.911 19.8477H165.273C165.571 19.8477 165.808 20.0914 165.808 20.3838C165.808 20.6823 165.564 20.9199 165.273 20.9199H160.911C160.619 20.9199 160.376 20.6762 160.376 20.3838C160.376 20.0914 160.619 19.8477 160.911 19.8477Z" fill="#EFEEF8"/>
<path fill-rule="evenodd" clip-rule="evenodd" d="M160.911 23.6562H165.273C165.571 23.6562 165.808 23.8999 165.808 24.1924C165.808 24.4848 165.564 24.7285 165.273 24.7285H160.911C160.619 24.7285 160.376 24.4848 160.376 24.1924C160.376 23.8999 160.619 23.6562 160.911 23.6562Z" fill="#EFEEF8"/>
<path fill-rule="evenodd" clip-rule="evenodd" d="M160.911 27.4688H165.273C165.571 27.4688 165.808 27.7124 165.808 28.0049C165.808 28.2973 165.564 28.541 165.273 28.541H160.911C160.619 28.541 160.376 28.2973 160.376 28.0049C160.376 27.7124 160.619 27.4688 160.911 27.4688Z" fill="#EFEEF8"/>
<path fill-rule="evenodd" clip-rule="evenodd" d="M160.911 31.2773H165.273C165.571 31.2773 165.808 31.521 165.808 31.8135C165.808 32.112 165.564 32.3496 165.273 32.3496H160.911C160.619 32.3496 160.376 32.1059 160.376 31.8135C160.376 31.521 160.619 31.2773 160.911 31.2773Z" fill="#EFEEF8"/>
<path fill-rule="evenodd" clip-rule="evenodd" d="M160.911 35.0859H165.273C165.571 35.0859 165.808 35.3296 165.808 35.6221C165.808 35.9206 165.564 36.1582 165.273 36.1582H160.911C160.619 36.1582 160.376 35.9145 160.376 35.6221C160.376 35.3296 160.619 35.0859 160.911 35.0859Z" fill="#EFEEF8"/>
<path d="M154.202 38.8984H165.273C165.571 38.8984 165.808 39.1421 165.808 39.4346C165.808 39.7331 165.565 39.9707 165.273 39.9707H154.202C153.904 39.9707 153.667 39.7331 153.667 39.4346C153.667 39.136 153.904 38.8984 154.202 38.8984Z" fill="#EFEEF8"/>
<path fill-rule="evenodd" clip-rule="evenodd" d="M155.303 35.0859H158.569C158.867 35.0859 159.105 35.3296 159.105 35.6221C159.105 35.9206 158.861 36.1582 158.569 36.1582H155.303C155.011 36.1582 154.768 35.9145 154.768 35.6221C154.768 35.3296 155.011 35.0859 155.303 35.0859Z" fill="#EFEEF8"/>
<path fill-rule="evenodd" clip-rule="evenodd" d="M156.763 31.2773H158.411C158.703 31.2773 158.946 31.521 158.946 31.8135C158.946 32.112 158.703 32.3496 158.411 32.3496H156.763C156.471 32.3496 156.228 32.1059 156.228 31.8135C156.228 31.521 156.471 31.2773 156.763 31.2773Z" fill="#EFEEF8"/>
<path fill-rule="evenodd" clip-rule="evenodd" d="M157.912 27.4688H159.117C159.415 27.4688 159.652 27.7124 159.652 28.0049C159.652 28.2973 159.409 28.541 159.117 28.541H157.912C157.614 28.541 157.377 28.2973 157.377 28.0049C157.377 27.7124 157.62 27.4688 157.912 27.4688Z" fill="#EFEEF8"/>
<path fill-rule="evenodd" clip-rule="evenodd" d="M125.346 28.3528C128.243 25.4509 132.041 24 135.848 24C139.656 24 143.445 25.4509 146.351 28.3528C149.248 31.2547 150.697 35.0591 150.697 38.8722C150.697 42.6765 149.248 46.4809 146.351 49.3916C143.454 52.2935 139.647 53.7445 135.848 53.7445C132.05 53.7445 128.252 52.2935 125.346 49.3916C122.449 46.4897 121 42.6765 121 38.8722C121 35.0679 122.449 31.2547 125.346 28.3528ZM135.848 26.1322C132.589 26.1322 129.338 27.3796 126.848 29.8657C124.365 32.3518 123.12 35.6164 123.12 38.8811C123.12 42.1457 124.365 45.4015 126.848 47.8876C129.33 50.3737 132.589 51.6211 135.848 51.6211C139.108 51.6211 142.358 50.3737 144.841 47.8876C147.323 45.4015 148.568 42.1369 148.568 38.8811C148.568 35.6253 147.323 32.3607 144.841 29.8657C142.358 27.3796 139.099 26.1322 135.848 26.1322Z" fill="#68FF3E"/>
<path fill-rule="evenodd" clip-rule="evenodd" d="M144.841 49.3901C144.426 48.9743 144.426 48.3019 144.841 47.8861C145.256 47.4703 145.927 47.4703 146.342 47.8861L149.858 51.4073C150.273 51.8231 150.273 52.4955 149.858 52.9113C149.443 53.3271 148.771 53.3271 148.356 52.9113L144.841 49.3901Z" fill="#68FF3E"/>
<path fill-rule="evenodd" clip-rule="evenodd" d="M148.507 54.5606C147.676 53.7289 147.676 52.3753 148.507 51.5437C149.337 50.712 150.679 50.712 151.51 51.5437L162.834 62.8858C163.664 63.7175 163.664 65.0623 162.834 65.8939C162.004 66.7255 160.661 66.7255 159.831 65.8939L148.507 54.5517V54.5606Z" fill="url(#paint2_linear_1_3945)"/>
<path fill-rule="evenodd" clip-rule="evenodd" d="M143.189 31.5208C142.915 31.2465 142.915 30.8042 143.189 30.5299C143.463 30.2557 143.905 30.2557 144.187 30.5299C145.309 31.6535 146.166 32.9629 146.74 34.3519C147.332 35.794 147.632 37.3335 147.632 38.8729C147.632 39.9699 147.482 41.0758 147.173 42.1375C147.067 42.5091 146.678 42.7303 146.307 42.6241C145.936 42.5179 145.715 42.1287 145.821 41.7571C146.095 40.8193 146.228 39.8461 146.228 38.8729C146.228 37.5192 145.963 36.1568 145.442 34.8828C144.938 33.6618 144.187 32.5206 143.189 31.5208ZM144.585 44.4909C144.797 44.1635 145.23 44.0662 145.556 44.2785C145.883 44.4909 145.98 44.9244 145.768 45.2517C145.548 45.6056 145.3 45.9418 145.026 46.278C144.753 46.6142 144.47 46.9239 144.178 47.2247C143.905 47.4989 143.463 47.4989 143.18 47.2247C142.906 46.9504 142.906 46.5081 143.18 46.2338C143.454 45.9595 143.701 45.6853 143.931 45.4021C144.17 45.1102 144.382 44.8094 144.585 44.4997V44.4909ZM128.508 46.2249C128.782 46.4992 128.782 46.9416 128.508 47.2158C128.235 47.4901 127.793 47.4901 127.519 47.2158C126.397 46.0922 125.541 44.7828 124.966 43.3938C124.366 41.9517 124.065 40.4123 124.065 38.8729C124.065 38.1562 124.136 37.4308 124.269 36.7141C124.401 36.0064 124.595 35.3074 124.86 34.6262C125.002 34.2635 125.399 34.0865 125.761 34.2192C126.124 34.3608 126.3 34.7589 126.168 35.1216C125.938 35.7144 125.77 36.3337 125.647 36.9619C125.532 37.5812 125.47 38.227 125.47 38.8729C125.47 40.2354 125.735 41.589 126.256 42.863C126.76 44.0839 127.51 45.2252 128.508 46.2249ZM127.422 32.8037C127.192 33.1222 126.76 33.1929 126.442 32.9629C126.132 32.7417 126.053 32.2994 126.283 31.9809C126.468 31.7243 126.662 31.4677 126.866 31.2289L126.901 31.1935C127.113 30.9457 127.316 30.7246 127.51 30.5299C127.784 30.2557 128.226 30.2557 128.5 30.5299C128.773 30.8042 128.773 31.2465 128.5 31.5208C128.288 31.7243 128.111 31.9189 127.961 32.1047L127.926 32.1401C127.74 32.3613 127.572 32.5825 127.413 32.7948L127.422 32.8037Z" fill="white"/>
<path d="M115.126 68.6855H112.547C112.07 68.6855 111.684 69.0729 111.684 69.5507V72.1339C111.684 72.6116 112.07 72.999 112.547 72.999H115.126C115.603 72.999 115.99 72.6116 115.99 72.1339V69.5507C115.99 69.0729 115.603 68.6855 115.126 68.6855Z" fill="#19A4B4"/>
<path d="M121.379 68.6855H123.964C124.439 68.6855 124.828 69.0694 124.828 69.5507V72.1399C124.828 72.6152 124.445 73.0051 123.964 73.0051H121.379C120.905 73.0051 120.516 72.6212 120.516 72.1399V69.5507C120.516 69.0755 120.899 68.6855 121.379 68.6855Z" fill="white"/>
<path d="M132.79 68.6855H130.211C129.734 68.6855 129.348 69.0729 129.348 69.5507V72.1339C129.348 72.6116 129.734 72.999 130.211 72.999H132.79C133.267 72.999 133.654 72.6116 133.654 72.1339V69.5507C133.654 69.0729 133.267 68.6855 132.79 68.6855Z" fill="#19A4B4"/>
<path d="M139.044 68.6858H141.629C142.103 68.6858 142.486 69.0696 142.486 69.5448V72.1341C142.486 72.6093 142.103 72.9992 141.623 72.9992H139.038C138.563 72.9992 138.174 72.6154 138.174 72.1341V69.5448C138.174 69.0696 138.557 68.6797 139.038 68.6797L139.044 68.6858Z" fill="#19A4B4"/>
<path fill-rule="evenodd" clip-rule="evenodd" d="M44.1423 30.6078C43.8138 30.6078 43.5522 30.23 43.5522 29.7609C43.5522 29.2918 43.8199 28.9141 44.1423 28.9141H71.8184C72.1469 28.9141 72.4084 29.2918 72.4084 29.7609C72.4084 30.23 72.1408 30.6078 71.8184 30.6078H44.1423ZM40.3953 28.9141C40.7238 28.9141 40.9854 29.2918 40.9854 29.7609C40.9854 30.23 40.7238 30.6078 40.3953 30.6078H38.09C37.7616 30.6078 37.5 30.23 37.5 29.7609C37.5 29.2918 37.7616 28.9141 38.09 28.9141H40.3953Z" fill="#19A4B4"/>
<path fill-rule="evenodd" clip-rule="evenodd" d="M77.2255 62.4161C77.2255 62.2211 77.3836 62.0566 77.5844 62.0566C77.7851 62.0566 77.9432 62.215 77.9432 62.4161V64.0245C77.9432 64.2194 77.7851 64.3839 77.5844 64.3839C77.3836 64.3839 77.2255 64.2255 77.2255 64.0245V62.4161ZM74.7924 63.7199C74.6525 63.5797 74.6525 63.3543 74.7924 63.2142C74.9323 63.0741 75.1574 63.0741 75.2973 63.2142L76.4347 64.3535C76.5746 64.4936 76.5746 64.719 76.4347 64.8591C76.2948 64.9993 76.0698 64.9993 75.9299 64.8591L74.7924 63.7199ZM73.9956 66.3701C73.801 66.3701 73.6367 66.2117 73.6367 66.0106C73.6367 65.8096 73.7949 65.6512 73.9956 65.6512H75.6014C75.7961 65.6512 75.9603 65.8096 75.9603 66.0106C75.9603 66.2117 75.8021 66.3701 75.6014 66.3701H73.9956ZM75.2973 68.807C75.1574 68.9472 74.9323 68.9472 74.7924 68.807C74.6525 68.6669 74.6525 68.4415 74.7924 68.3014L75.9299 67.1621C76.0698 67.022 76.2948 67.022 76.4347 67.1621C76.5746 67.3022 76.5746 67.5276 76.4347 67.6677L75.2973 68.807ZM77.9372 69.6051C77.9372 69.8001 77.779 69.9646 77.5783 69.9646C77.3776 69.9646 77.2194 69.8062 77.2194 69.6051V67.9967C77.2194 67.8018 77.3776 67.6373 77.5783 67.6373C77.779 67.6373 77.9372 67.7957 77.9372 67.9967V69.6051ZM80.3702 68.3014C80.5101 68.4415 80.5101 68.6669 80.3702 68.807C80.2303 68.9472 80.0053 68.9472 79.8654 68.807L78.7279 67.6677C78.588 67.5276 78.588 67.3022 78.7279 67.1621C78.8678 67.022 79.0929 67.022 79.2328 67.1621L80.3702 68.3014ZM81.1671 65.6512C81.3617 65.6512 81.5259 65.8096 81.5259 66.0106C81.5259 66.2117 81.3678 66.3701 81.1671 66.3701H79.5612C79.3666 66.3701 79.2024 66.2117 79.2024 66.0106C79.2024 65.8096 79.3605 65.6512 79.5612 65.6512H81.1671ZM79.8654 63.2142C80.0053 63.0741 80.2303 63.0741 80.3702 63.2142C80.5101 63.3543 80.5101 63.5797 80.3702 63.7199L79.2328 64.8591C79.0929 64.9993 78.8678 64.9993 78.7279 64.8591C78.588 64.719 78.588 64.4936 78.7279 64.3535L79.8654 63.2142Z" fill="#19A4B4"/>
<path fill-rule="evenodd" clip-rule="evenodd" d="M287.418 19.4962C287.418 19.3012 287.576 19.1367 287.777 19.1367C287.977 19.1367 288.136 19.2951 288.136 19.4962V21.1046C288.136 21.2995 287.977 21.464 287.777 21.464C287.576 21.464 287.418 21.3056 287.418 21.1046V19.4962ZM284.985 20.7999C284.845 20.6598 284.845 20.4344 284.985 20.2943C285.125 20.1542 285.35 20.1542 285.49 20.2943L286.627 21.4336C286.767 21.5737 286.767 21.7991 286.627 21.9392C286.487 22.0794 286.262 22.0794 286.122 21.9392L284.985 20.7999ZM284.188 23.4441C283.987 23.4441 283.829 23.2856 283.829 23.0846C283.829 22.8836 283.987 22.7251 284.188 22.7251H285.794C285.988 22.7251 286.153 22.8836 286.153 23.0846C286.153 23.2856 285.995 23.4441 285.794 23.4441H284.188ZM285.49 25.881C285.35 26.0211 285.125 26.0211 284.985 25.881C284.845 25.7409 284.845 25.5155 284.985 25.3753L286.122 24.2361C286.262 24.0959 286.487 24.0959 286.627 24.2361C286.767 24.3762 286.767 24.6016 286.627 24.7417L285.49 25.881ZM288.13 26.6791C288.13 26.8741 287.971 27.0386 287.771 27.0386C287.57 27.0386 287.412 26.8802 287.412 26.6791V25.0707C287.412 24.8758 287.57 24.7113 287.771 24.7113C287.971 24.7113 288.13 24.8697 288.13 25.0707V26.6791ZM290.563 25.3753C290.703 25.5155 290.703 25.7409 290.563 25.881C290.423 26.0211 290.198 26.0211 290.058 25.881L288.92 24.7417C288.78 24.6016 288.78 24.3762 288.92 24.2361C289.06 24.0959 289.285 24.0959 289.425 24.2361L290.563 25.3753ZM291.366 22.7312C291.56 22.7312 291.724 22.8896 291.724 23.0907C291.724 23.2917 291.566 23.4501 291.366 23.4501H289.76C289.565 23.4501 289.401 23.2917 289.401 23.0907C289.401 22.8896 289.559 22.7312 289.76 22.7312H291.366ZM290.058 20.2943C290.198 20.1542 290.423 20.1542 290.563 20.2943C290.703 20.4344 290.703 20.6598 290.563 20.7999L289.425 21.9392C289.285 22.0794 289.06 22.0794 288.92 21.9392C288.78 21.7991 288.78 21.5737 288.92 21.4336L290.058 20.2943Z" fill="#19A4B4"/>
<path fill-rule="evenodd" clip-rule="evenodd" d="M314.724 182.809C314.724 182.614 314.882 182.449 315.082 182.449C315.283 182.449 315.441 182.608 315.441 182.809V184.417C315.441 184.612 315.283 184.777 315.082 184.777C314.882 184.777 314.724 184.618 314.724 184.417V182.809ZM312.29 184.112C312.151 183.972 312.151 183.747 312.29 183.607C312.43 183.467 312.655 183.467 312.795 183.607L313.933 184.746C314.073 184.886 314.073 185.112 313.933 185.252C313.793 185.392 313.568 185.392 313.428 185.252L312.29 184.112ZM311.494 186.763C311.299 186.763 311.135 186.604 311.135 186.403C311.135 186.202 311.293 186.044 311.494 186.044H313.099C313.294 186.044 313.458 186.202 313.458 186.403C313.458 186.604 313.3 186.763 313.099 186.763H311.494ZM312.795 189.2C312.655 189.34 312.43 189.34 312.29 189.2C312.151 189.059 312.151 188.834 312.29 188.694L313.428 187.555C313.568 187.415 313.793 187.415 313.933 187.555C314.073 187.695 314.073 187.92 313.933 188.06L312.795 189.2ZM315.441 189.998C315.441 190.199 315.283 190.357 315.082 190.357C314.882 190.357 314.724 190.199 314.724 189.998V188.389C314.724 188.194 314.882 188.03 315.082 188.03C315.283 188.03 315.441 188.188 315.441 188.389V189.998ZM317.868 188.694C318.008 188.834 318.008 189.059 317.868 189.2C317.728 189.34 317.503 189.34 317.363 189.2L316.226 188.06C316.086 187.92 316.086 187.695 316.226 187.555C316.366 187.415 316.591 187.415 316.731 187.555L317.868 188.694ZM318.671 186.044C318.866 186.044 319.03 186.202 319.03 186.403C319.03 186.604 318.872 186.763 318.671 186.763H317.065C316.865 186.763 316.706 186.604 316.706 186.403C316.706 186.202 316.865 186.044 317.065 186.044H318.671ZM317.363 183.607C317.503 183.467 317.728 183.467 317.868 183.607C318.008 183.747 318.008 183.972 317.868 184.112L316.731 185.252C316.591 185.392 316.366 185.392 316.226 185.252C316.086 185.112 316.086 184.886 316.226 184.746L317.363 183.607Z" fill="#19A4B4"/>
<path fill-rule="evenodd" clip-rule="evenodd" d="M8.10853 126.027C8.10853 125.826 8.26668 125.668 8.4674 125.668C8.66813 125.668 8.82628 125.826 8.82628 126.027V127.636C8.82628 127.831 8.66813 127.995 8.4674 127.995C8.26668 127.995 8.10853 127.837 8.10853 127.636V126.027ZM5.67546 127.337C5.53556 127.197 5.53556 126.972 5.67546 126.832C5.81536 126.691 6.04042 126.691 6.18032 126.832L7.31778 127.971C7.45768 128.111 7.45768 128.336 7.31778 128.477C7.17788 128.617 6.95282 128.617 6.81292 128.477L5.67546 127.337ZM4.87255 129.981C4.6779 129.981 4.51367 129.823 4.51367 129.622C4.51367 129.421 4.67182 129.262 4.87255 129.262H6.47837C6.67302 129.262 6.83725 129.421 6.83725 129.622C6.83725 129.823 6.6791 129.981 6.47837 129.981H4.87255ZM6.18032 132.418C6.04042 132.558 5.81536 132.558 5.67546 132.418C5.53556 132.278 5.53556 132.053 5.67546 131.913L6.81292 130.773C6.95282 130.633 7.17788 130.633 7.31778 130.773C7.45768 130.914 7.45768 131.139 7.31778 131.279L6.18032 132.418ZM8.8202 133.216C8.8202 133.411 8.66205 133.576 8.46132 133.576C8.26059 133.576 8.10244 133.418 8.10244 133.216V131.608C8.10244 131.413 8.26059 131.249 8.46132 131.249C8.66205 131.249 8.8202 131.407 8.8202 131.608V133.216ZM11.2533 131.913C11.3932 132.053 11.3932 132.278 11.2533 132.418C11.1134 132.558 10.8883 132.558 10.7484 132.418L9.61095 131.279C9.47104 131.139 9.47104 130.914 9.61095 130.773C9.75085 130.633 9.9759 130.633 10.1158 130.773L11.2533 131.913ZM12.0501 129.269C12.2447 129.269 12.409 129.427 12.409 129.628C12.409 129.829 12.2508 129.987 12.0501 129.987H10.4443C10.2496 129.987 10.0854 129.829 10.0854 129.628C10.0854 129.427 10.2435 129.269 10.4443 129.269H12.0501ZM10.7484 126.832C10.8883 126.691 11.1134 126.691 11.2533 126.832C11.3932 126.972 11.3932 127.197 11.2533 127.337L10.1158 128.477C9.9759 128.617 9.75085 128.617 9.61095 128.477C9.47104 128.336 9.47104 128.111 9.61095 127.971L10.7484 126.832Z" fill="#19A4B4"/>
<path fill-rule="evenodd" clip-rule="evenodd" d="M360.288 159.725C360.288 159.53 360.446 159.365 360.647 159.365C360.848 159.365 361.006 159.524 361.006 159.725V161.333C361.006 161.528 360.848 161.693 360.647 161.693C360.446 161.693 360.288 161.534 360.288 161.333V159.725ZM357.855 161.028C357.715 160.888 357.715 160.663 357.855 160.523C357.995 160.383 358.22 160.383 358.36 160.523L359.497 161.662C359.637 161.802 359.637 162.028 359.497 162.168C359.358 162.308 359.133 162.308 358.993 162.168L357.855 161.028ZM357.052 163.679C356.858 163.679 356.693 163.52 356.693 163.319C356.693 163.118 356.852 162.96 357.052 162.96H358.658C358.853 162.96 359.017 163.118 359.017 163.319C359.017 163.52 358.859 163.679 358.658 163.679H357.052ZM358.36 166.116C358.22 166.256 357.995 166.256 357.855 166.116C357.715 165.976 357.715 165.75 357.855 165.61L358.993 164.471C359.133 164.331 359.358 164.331 359.497 164.471C359.637 164.611 359.637 164.836 359.497 164.976L358.36 166.116ZM361 166.914C361 167.109 360.842 167.273 360.641 167.273C360.44 167.273 360.282 167.115 360.282 166.914V165.305C360.282 165.11 360.44 164.946 360.641 164.946C360.842 164.946 361 165.104 361 165.305V166.914ZM363.433 165.61C363.573 165.75 363.573 165.976 363.433 166.116C363.293 166.256 363.068 166.256 362.928 166.116L361.791 164.976C361.651 164.836 361.651 164.611 361.791 164.471C361.931 164.331 362.156 164.331 362.296 164.471L363.433 165.61ZM364.23 162.96C364.424 162.96 364.589 163.118 364.589 163.319C364.589 163.52 364.431 163.679 364.23 163.679H362.624C362.429 163.679 362.265 163.52 362.265 163.319C362.265 163.118 362.423 162.96 362.624 162.96H364.23ZM362.928 160.523C363.068 160.383 363.293 160.383 363.433 160.523C363.573 160.663 363.573 160.888 363.433 161.028L362.296 162.168C362.156 162.308 361.931 162.308 361.791 162.168C361.651 162.028 361.651 161.802 361.791 161.662L362.928 160.523Z" fill="#19A4B4"/>
<path d="M336.706 20.2385H339.291C339.765 20.2385 340.149 20.6223 340.149 21.0975V23.6868C340.149 24.162 339.765 24.5519 339.285 24.5519H336.7C336.225 24.5519 335.836 24.1681 335.836 23.6868V21.0975C335.836 20.6223 336.219 20.2324 336.7 20.2324L336.706 20.2385Z" fill="#19A4B4"/>
<path d="M345.538 20.2385H348.123C348.597 20.2385 348.981 20.6223 348.981 21.0975V23.6868C348.981 24.162 348.597 24.5519 348.117 24.5519H345.532C345.057 24.5519 344.668 24.1681 344.668 23.6868V21.0975C344.668 20.6223 345.051 20.2324 345.532 20.2324L345.538 20.2385Z" fill="white"/>
<path d="M354.37 20.2383H356.955C357.429 20.2383 357.818 20.6221 357.818 21.1034V23.6927C357.818 24.1679 357.435 24.5578 356.955 24.5578H354.37C353.895 24.5578 353.506 24.174 353.506 23.6927V21.1034C353.506 20.6282 353.889 20.2383 354.37 20.2383Z" fill="#19A4B4"/>
<path d="M365.787 20.2383H363.207C362.73 20.2383 362.344 20.6256 362.344 21.1034V23.6866C362.344 24.1644 362.73 24.5517 363.207 24.5517H365.787C366.264 24.5517 366.65 24.1644 366.65 23.6866V21.1034C366.65 20.6256 366.264 20.2383 365.787 20.2383Z" fill="#19A4B4"/>
<path fill-rule="evenodd" clip-rule="evenodd" d="M10.0363 46.357C11.1981 45.1872 12.81 44.4683 14.5861 44.4683C16.3623 44.4683 17.9742 45.1872 19.136 46.357C20.2977 47.5206 21.0216 49.1351 21.0216 50.9141C21.0216 52.6931 20.3038 54.3076 19.136 55.4712C17.9681 56.6349 16.3623 57.3599 14.5861 57.3599C12.81 57.3599 11.1981 56.6349 10.0363 55.4712C8.86841 54.3015 8.15066 52.6931 8.15066 50.9141C8.15066 49.1351 8.86841 47.5206 10.0363 46.357ZM11.4231 39.9721C10.529 40.228 9.68349 40.5935 8.89883 41.0505C8.09591 41.5196 7.34775 42.0801 6.68474 42.7198C6.557 42.8477 6.36236 42.866 6.21029 42.7746L3.21762 41.0444L3.19937 41.0322C3.02905 40.9408 2.83441 40.9225 2.65193 40.9713C2.46945 41.02 2.30522 41.1419 2.20181 41.3185L2.18965 41.3368L0.0850447 44.9862C-0.0183606 45.1628 -0.0366086 45.3639 0.0120527 45.5528C0.060714 45.7355 0.182367 45.9 0.352682 46.0036L0.37093 46.0158L3.33927 47.7338C3.49742 47.8252 3.56433 48.0019 3.52783 48.1725C3.41835 48.6172 3.33319 49.0681 3.27844 49.5372C3.2237 49.988 3.19329 50.4572 3.19329 50.9263C3.19329 51.3954 3.2237 51.8584 3.27844 52.3153C3.33319 52.7784 3.41835 53.2353 3.52783 53.6739C3.57041 53.8567 3.47917 54.0456 3.32102 54.1248L0.352682 55.8428C0.176285 55.9464 0.060714 56.1109 0.0120527 56.2937C-0.0366086 56.4765 -0.0183606 56.6836 0.0850447 56.8603L2.20181 60.534C2.30522 60.7107 2.46945 60.8264 2.65193 60.8813C2.83441 60.93 3.04122 60.9117 3.21153 60.8082L3.23587 60.796L6.20421 59.0779C6.36235 58.9865 6.55092 59.017 6.67257 59.1327C7.33558 59.7724 8.07767 60.339 8.88666 60.8021C9.67741 61.259 10.529 61.6245 11.4231 61.8804C11.5995 61.9292 11.709 62.0876 11.709 62.2582V65.7126C11.709 65.9136 11.7942 66.1025 11.928 66.2365C12.0618 66.3705 12.2504 66.4558 12.4511 66.4558H16.6846C16.8854 66.4558 17.0739 66.3705 17.2077 66.2365C17.3416 66.1025 17.4267 65.9197 17.4267 65.7126V62.2582C17.4267 62.0693 17.5545 61.917 17.7309 61.8743C18.625 61.6184 19.4705 61.2529 20.2552 60.796C21.0581 60.3269 21.8062 59.7664 22.4693 59.1267C22.6031 58.9987 22.8099 58.9804 22.962 59.084L25.9303 60.8021C26.1067 60.9056 26.3074 60.9239 26.4899 60.8752C26.6724 60.8264 26.8366 60.7046 26.94 60.5279L26.9522 60.5096L29.0568 56.8603C29.1602 56.6836 29.1784 56.4826 29.1298 56.2998C29.0811 56.117 28.9595 55.9525 28.7891 55.8489L25.8026 54.1187C25.6444 54.0273 25.5775 53.8506 25.614 53.68C25.7235 53.2353 25.8086 52.7845 25.8634 52.3153C25.9181 51.8584 25.9485 51.3954 25.9485 50.9263C25.9485 50.4572 25.9181 49.988 25.8634 49.5372C25.8086 49.0742 25.7235 48.6172 25.614 48.1725C25.5714 47.9897 25.6627 47.8009 25.8208 47.7217L28.7891 46.0036C28.9655 45.9 29.0811 45.7355 29.1298 45.5528C29.1784 45.37 29.1602 45.1689 29.0568 44.9923L29.0446 44.9679L26.94 41.3185C26.8366 41.1419 26.6724 41.0261 26.4899 40.9713C26.3074 40.9225 26.1006 40.9408 25.9303 41.0444L22.9376 42.7746C22.7795 42.866 22.5787 42.8355 22.4571 42.7076C21.7941 42.0679 21.052 41.5074 20.2552 41.0444C19.4644 40.5875 18.6128 40.2219 17.7187 39.966C17.5423 39.9173 17.4328 39.7589 17.4328 39.5883V36.1339C17.4328 35.9329 17.3476 35.744 17.2138 35.61C17.08 35.4759 16.8975 35.3906 16.6907 35.3906H12.4572C12.2565 35.3906 12.0679 35.4759 11.9341 35.61C11.8003 35.744 11.7151 35.9268 11.7151 36.1339V39.5883C11.7151 39.7772 11.5874 39.9356 11.411 39.9721H11.4231Z" fill="#AEEFF3"/>
<g clip-path="url(#clip1_1_3945)">
<path d="M216.288 118.789C216.288 116.839 218.054 113.918 218.054 113.918L222.487 84.1291L221.089 79.0253L233.975 72.0195L236.547 82.4038C236.723 83.118 236.771 83.8563 236.683 84.5946C235.676 93.0528 229.11 105.475 227.928 108.075C226.977 110.17 226.57 111.839 225.938 114.174C226.33 115.442 225.875 118.339 225.675 119.086C225.283 120.53 225.459 122.986 225.395 124.286C225.315 126.003 222.288 128.074 222.288 128.074C220.538 127.841 219.995 125.578 219.995 125.578C219.995 125.578 220.498 128.82 218.885 127.568C217.99 126.87 217.894 124.334 217.982 122.215C216.855 124.551 215.194 124.478 214.707 124.069C214.187 123.628 216.288 120.739 216.28 118.781L216.288 118.789Z" fill="#EF9981"/>
<path d="M281.898 59.1863C281.898 59.1863 284.798 63.5118 275.882 70.5897C266.967 77.6677 238.936 85.171 238.936 85.171C238.936 85.171 268.214 55.4868 281.898 59.1863Z" fill="#2D3843"/>
<path d="M271.009 59.4844C271.009 59.4844 282.737 67.2605 291.54 89.4173C296.101 104.279 297.811 111.863 296.101 194.086C296.101 194.086 292.299 198.067 279.861 199.166L271.009 129.325L264.531 201.317C264.531 201.317 256.159 195.707 249.153 199.768C249.153 199.768 247.459 185.259 246.525 180.259C245.59 175.26 238.848 82.2751 238.848 82.2751L271.017 59.4844H271.009Z" fill="url(#paint3_linear_1_3945)"/>
<g style="mix-blend-mode:multiply" opacity="0.75">
<path d="M239.119 84.6024C239.143 84.7548 239.167 84.9234 239.175 85.0999C241.516 84.3536 254.881 76.8984 267.806 71.2168C273.79 68.5846 278.902 67.8544 278.902 67.8544C274.317 61.956 270.994 59.4844 270.994 59.4844L240.509 81.0714C239.807 82.6684 239.343 83.9202 239.104 84.6024H239.119Z" fill="#D1CBCF"/>
</g>
<path d="M281.994 57.036C281.994 57.036 256.494 28.1302 239.567 26.5332C222.639 24.9443 215.09 43.6584 215.09 43.6584C215.09 43.6584 211.567 49.5969 214.946 61.2731C218.325 72.9574 222.551 80.6693 222.551 80.6693L231.698 74.9235L241.372 87.7714C241.372 87.7714 269.683 59.3712 282.002 57.0279L281.994 57.036Z" fill="white"/>
<path d="M252.659 67.1562C252.659 67.1562 245.27 70.2057 232.912 71.8428V80.9029L216.503 103.557L211.686 111.053C211.686 111.053 210.6 111.911 210.52 114.487C210.44 117.063 209.505 121.517 210.52 121.982C211.535 122.448 212.621 121.83 212.773 120.345C212.925 118.861 213.172 117.85 213.172 117.85C213.172 117.85 215.8 118.708 218.061 118.002C218.061 118.002 220.314 118.002 220.705 117.224C221.097 116.445 222.183 112.85 222.183 110.114C222.183 107.377 245.973 95.42 251.885 87.5395C255.615 83.7919 252.659 67.1562 252.659 67.1562Z" fill="#FEB7A3"/>
<path d="M232.912 72.2761V71.8428C245.278 70.2057 252.66 67.1562 252.66 67.1562C252.66 67.1562 252.907 68.5606 253.171 70.631C243.904 73.0947 235.684 72.565 232.912 72.2761Z" fill="#9A6A50"/>
<path d="M210.137 30.0803L216.583 21.3652L228.542 28.3549H228.383C228.383 28.3549 226.058 30.1204 224.556 33.0575C223.957 34.4218 222.95 38.1935 224.9 46.0659C224.9 46.0659 226.929 51.2982 223.038 53.176C220.706 55.3668 217.79 38.4984 217.79 38.4984L210.137 30.0803Z" fill="#FEB7A3"/>
<path d="M253.052 52.1727L252.66 49.1152" stroke="black" stroke-width="0.5" stroke-linecap="round" stroke-linejoin="round"/>
<path d="M252.66 67.155L254.841 66.2963L253.371 54.7324" stroke="black" stroke-width="0.5" stroke-linecap="round" stroke-linejoin="round"/>
<path d="M232.912 71.8425C232.912 71.8425 228.095 53.8025 226.929 50.0469" stroke="black" stroke-width="0.5" stroke-linecap="round" stroke-linejoin="round"/>
<path d="M230.58 73.8718C230.58 73.8718 228.303 71.2959 226.45 70.5094C224.596 69.731 221.097 69.731 220.626 63.8728C220.155 58.0146 219.34 54.7324 219.34 54.7324" stroke="black" stroke-width="0.5" stroke-linecap="round" stroke-linejoin="round"/>
<path d="M199.736 13.4048C205.28 9.07942 209.794 12.0486 209.794 12.0486C216.224 16.992 213.317 24.2305 213.317 24.2305C213.317 24.2305 213.468 33.9165 208.188 36.6771C205.424 38.1216 202.252 35.2567 199.8 31.4689C198.977 31.6856 198.011 31.8541 197.923 31.4689C197.827 31.0356 197.979 29.5269 198.098 28.4837C196.764 25.8114 195.87 23.115 195.742 21.3656C195.382 16.3179 199.736 13.3968 199.736 13.3968V13.4048Z" fill="#FEB7A3"/>
<path d="M198.282 10.644C204.713 7.67479 210.824 9.13532 213.085 11.7354C215.337 14.3355 217.982 16.7349 222.855 15.9003C227.728 15.0657 233.743 16.3658 236.124 20.4344C237.178 22.232 237.402 24.174 237.106 25.8753C231.985 26.1883 228.542 28.355 228.542 28.355C226.449 29.5266 224.372 33.4107 224.372 33.4107C224.372 33.4107 221.241 35.449 217.926 36.3237C212.685 37.704 208.475 31.1637 212.414 24.9685L211.918 22.6252C211.918 22.6252 206.997 25.2253 203.626 21.606H193.569C193.569 21.606 191.859 13.6132 198.282 10.644Z" fill="black"/>
<path d="M209.609 21.4289C209.258 22.9857 210.224 24.5345 211.774 24.8876C213.324 25.2407 214.866 24.2697 215.217 22.7129C215.569 21.156 214.602 19.6072 213.052 19.2541C211.503 18.901 209.961 19.872 209.609 21.4289Z" fill="#FEB7A3"/>
<g style="mix-blend-mode:multiply" opacity="0.75">
<path d="M271.009 129.316L270.594 144.94L259.346 102.77L271.009 129.316Z" fill="#D1CBCF"/>
</g>
<path d="M271.009 129.317L259.346 102.77L250.639 99.6484" stroke="black" stroke-width="0.5" stroke-linecap="round" stroke-linejoin="round"/>
<path d="M232.912 80.9026C232.912 80.9026 236.387 79.755 239.287 80.9026" stroke="black" stroke-width="0.5" stroke-linecap="round" stroke-linejoin="round"/>
<path d="M213.173 117.849L214.715 114.486" stroke="black" stroke-width="0.5" stroke-linecap="round" stroke-linejoin="round"/>
<path d="M215.337 118.282L217.246 114.799" stroke="black" stroke-width="0.5" stroke-linecap="round" stroke-linejoin="round"/>
<path d="M218.062 118.002L219.731 115.113" stroke="black" stroke-width="0.5" stroke-linecap="round" stroke-linejoin="round"/>
<path d="M204.17 30.7871C204.17 30.7871 203.986 32.1915 202.852 32.4001" stroke="black" stroke-width="0.5" stroke-linecap="round" stroke-linejoin="round"/>
<path d="M199.544 27.9935C199.616 28.4509 199.92 28.78 200.215 28.7318C200.511 28.6837 200.694 28.2744 200.615 27.825C200.543 27.3676 200.239 27.0386 199.944 27.0867C199.648 27.1349 199.464 27.5441 199.544 27.9935Z" fill="black"/>
<path d="M200.447 24.0928C200.447 24.0928 199.473 23.3465 198.37 23.8601" stroke="black" stroke-width="0.5" stroke-linecap="round" stroke-linejoin="round"/>
<path d="M267.47 188.757L264.85 218.681C264.85 218.681 265.226 221.643 262.509 221.643H239.223C239.223 221.643 236.379 220.744 237.402 215.151C237.857 212.647 245.358 210.641 247.219 208.458C249.089 206.267 245.174 186.59 245.174 186.59L267.47 188.757Z" fill="#333333"/>
<path d="M297.763 192.191L298.355 216.202C298.355 216.202 299.944 225.366 296.206 225.254C290.446 225.086 275.364 225.118 275.364 225.118C275.364 225.118 272.52 225.214 273.542 219.621C273.998 217.117 279.901 216.282 281.331 213.786C281.994 212.623 277.017 192.304 277.017 192.304L297.755 192.199L297.763 192.191Z" fill="#333333"/>
<path d="M264.842 218.682H237.273" stroke="black" stroke-width="0.5" stroke-linecap="round" stroke-linejoin="round"/>
<path d="M298.13 222.277H273.334" stroke="black" stroke-width="0.5" stroke-linecap="round" stroke-linejoin="round"/>
<path d="M173.373 137.855C172.646 138.096 172.334 138.545 172.215 138.962C172.031 139.604 172.271 140.311 172.798 140.712C173.149 140.977 173.668 141.153 174.387 140.913C175.682 140.479 177.024 138.328 177.024 138.328C177.024 138.328 174.667 137.414 173.373 137.847V137.855Z" fill="white"/>
<path d="M160.799 142.96C160.184 143.369 160.008 143.858 160 144.276C159.984 144.918 160.384 145.511 160.975 145.752C161.367 145.913 161.894 145.945 162.501 145.544C163.595 144.821 164.306 142.494 164.306 142.494C164.306 142.494 161.902 142.229 160.807 142.96H160.799Z" fill="white"/>
<path d="M172.207 155.045C171.552 155.775 171.496 156.465 171.616 157.011C171.808 157.838 172.519 158.472 173.365 158.584C173.924 158.656 174.604 158.52 175.251 157.798C176.417 156.498 176.545 153.271 176.545 153.271C176.545 153.271 173.365 153.745 172.199 155.045H172.207Z" fill="white"/>
</g>
<path fill-rule="evenodd" clip-rule="evenodd" d="M159.651 82.5391H72.0548C67.6936 82.5391 64.123 85.5304 64.123 89.1859V219.6H167.589V89.1859C167.589 85.5304 164.019 82.5391 159.651 82.5391Z" fill="url(#paint4_linear_1_3945)"/>
<path fill-rule="evenodd" clip-rule="evenodd" d="M174.031 82.5391H100.649C96.9937 82.5391 94.001 85.043 94.001 88.1075V219.6H180.679V88.1075C180.679 85.043 177.686 82.5391 174.031 82.5391Z" fill="url(#paint5_linear_1_3945)"/>
<path fill-rule="evenodd" clip-rule="evenodd" d="M174.031 85.9688H100.649C99.8464 85.9688 99.1895 86.5171 99.1895 87.1872V219.594H175.49V87.1872C175.49 86.5171 174.833 85.9688 174.031 85.9688Z" fill="white"/>
<path fill-rule="evenodd" clip-rule="evenodd" d="M127.341 85.969H147.347C148.283 85.969 149.044 86.6087 149.044 87.3885C149.044 88.1744 148.283 88.808 147.347 88.808H127.341C126.404 88.808 125.644 88.1683 125.644 87.3885C125.644 86.6026 126.41 85.9629 127.341 85.9629V85.969Z" fill="#221758"/>
<path fill-rule="evenodd" clip-rule="evenodd" d="M100.649 85.9688H174.031C174.833 85.9688 175.49 86.5171 175.49 87.1872V87.3883H99.1895V87.1872C99.1895 86.5171 99.8464 85.9688 100.649 85.9688Z" fill="#221758"/>
<path fill-rule="evenodd" clip-rule="evenodd" d="M127.341 187.201H147.347C148.283 187.201 149.044 187.841 149.044 188.621C149.044 189.407 148.283 190.04 147.347 190.04H127.341C126.404 190.04 125.644 189.401 125.644 188.621C125.644 187.835 126.41 187.201 127.341 187.201Z" fill="#221758"/>
<path fill-rule="evenodd" clip-rule="evenodd" d="M100.649 187.201H174.031C174.833 187.201 175.49 187.749 175.49 188.42V188.621H99.1895V188.42C99.1895 187.749 99.8464 187.201 100.649 187.201Z" fill="#221758"/>
<path d="M116.58 107.348H99.1895V134.721H116.58V107.348Z" fill="#EE9B60"/>
<path d="M116.58 111.398H99.1895V134.72H116.58V111.398Z" fill="#F59F3A"/>
<path d="M116.58 113.867H99.1895V134.722H116.58V113.867Z" fill="white"/>
<path d="M116.58 113.867H99.1895V134.722H116.58V113.867Z" fill="#FFF2D1"/>
<path fill-rule="evenodd" clip-rule="evenodd" d="M116.586 112.111H103.715C101.811 112.111 99.8705 113.561 99.1953 115.407V134.726H116.586V112.111Z" fill="#FFB571"/>
<path d="M116.586 107.348H104.688V131.547H116.586V107.348Z" fill="#F18D3D"/>
<path d="M116.586 111.398H104.688V131.546H116.586V111.398Z" fill="#EE7E40"/>
<path d="M116.586 113.867H104.688V131.547H116.586V113.867Z" fill="#F2BCC2"/>
<path d="M116.586 113.867H104.688V131.547H116.586V113.867Z" fill="#F2B2A5"/>
<path d="M116.586 112.111H104.688V131.546H116.586V112.111Z" fill="#F39A4C"/>
<path fill-rule="evenodd" clip-rule="evenodd" d="M139.499 107.348H112.918C110.874 107.348 109.195 109.023 109.195 111.076V134.721H139.499V107.348Z" fill="#EE9B60"/>
<path fill-rule="evenodd" clip-rule="evenodd" d="M139.5 111.398H114.98C112.937 111.398 111.258 113.074 111.258 115.127V134.72H139.494V111.398H139.5Z" fill="#F59F3A"/>
<path fill-rule="evenodd" clip-rule="evenodd" d="M112.851 134.722V116.901C112.851 115.232 114.213 113.867 115.88 113.867H139.499V134.722H112.845H112.851Z" fill="white"/>
<path fill-rule="evenodd" clip-rule="evenodd" d="M114.7 134.722L119.433 115.835C119.615 115.116 119.992 114.44 120.491 113.867H139.505V134.722H114.7Z" fill="#FFF2D1"/>
<path fill-rule="evenodd" clip-rule="evenodd" d="M139.499 112.111H126.628C124.584 112.111 122.485 113.787 121.975 115.84L117.242 134.726H139.499V112.111Z" fill="#FFB571"/>
<path d="M139.505 107.348H127.607V131.547H139.505V107.348Z" fill="#F18D3D"/>
<path d="M139.505 111.398H127.607V131.546H139.505V111.398Z" fill="#EE7E40"/>
<path d="M139.505 113.867H127.607V131.547H139.505V113.867Z" fill="#F2BCC2"/>
<path d="M139.505 113.867H127.607V131.547H139.505V113.867Z" fill="#F2B2A5"/>
<path d="M139.505 112.111H127.607V131.546H139.505V112.111Z" fill="#F39A4C"/>
<path fill-rule="evenodd" clip-rule="evenodd" d="M162.419 107.348H135.838C133.794 107.348 132.115 109.023 132.115 111.076V134.721H162.419V107.348Z" fill="#EE9B60"/>
<path fill-rule="evenodd" clip-rule="evenodd" d="M162.42 111.398H137.9C135.857 111.398 134.178 113.074 134.178 115.127V134.72H162.413V111.398H162.42Z" fill="#F59F3A"/>
<path fill-rule="evenodd" clip-rule="evenodd" d="M135.765 134.722V116.901C135.765 115.232 137.127 113.867 138.794 113.867H162.413V134.722H135.759H135.765Z" fill="white"/>
<path fill-rule="evenodd" clip-rule="evenodd" d="M137.614 134.722L142.347 115.835C142.529 115.116 142.906 114.44 143.405 113.867H162.419V134.722H137.614Z" fill="#FFF2D1"/>
<path fill-rule="evenodd" clip-rule="evenodd" d="M162.42 112.111H149.549C147.505 112.111 145.406 113.787 144.895 115.84L140.163 134.726H162.42V112.111Z" fill="#FFB571"/>
<path d="M162.419 107.348H150.521V131.547H162.419V107.348Z" fill="#F18D3D"/>
<path d="M162.419 111.398H150.521V131.546H162.419V111.398Z" fill="#EE7E40"/>
<path d="M162.419 113.867H150.521V131.547H162.419V113.867Z" fill="#F2BCC2"/>
<path d="M162.419 113.867H150.521V131.547H162.419V113.867Z" fill="#F2B2A5"/>
<path d="M162.419 112.111H150.521V131.546H162.419V112.111Z" fill="#F39A4C"/>
<path fill-rule="evenodd" clip-rule="evenodd" d="M158.07 148.959H202.991C205.034 148.959 206.713 147.284 206.713 145.231V111.07C206.713 109.017 205.04 107.342 202.991 107.342H201.166V105.606C201.166 105.039 200.703 104.582 200.144 104.582H186.573C186.014 104.582 185.552 105.045 185.552 105.606V107.342H158.076C156.032 107.342 154.354 109.017 154.354 111.07V145.231C154.354 147.278 156.026 148.959 158.076 148.959H158.07Z" fill="#EE9B60"/>
<path fill-rule="evenodd" clip-rule="evenodd" d="M158.07 148.958H202.991C205.035 148.958 206.713 147.283 206.713 145.23V111.788C206.215 111.539 205.655 111.399 205.059 111.399H203.234V109.662C203.234 109.096 202.772 108.639 202.212 108.639H188.642C188.076 108.639 187.62 109.102 187.62 109.662V111.399H160.144C158.101 111.399 156.422 113.074 156.422 115.127V148.568C156.921 148.818 157.48 148.958 158.076 148.958H158.07Z" fill="#F59F3A"/>
<path d="M161.032 113.867H189.42C191.093 113.867 192.449 115.226 192.449 116.901V145.919C192.449 147.595 191.093 148.953 189.42 148.953H161.032C159.359 148.953 158.003 147.595 158.003 145.919V116.901C158.003 115.226 159.359 113.867 161.032 113.867Z" fill="white"/>
<path fill-rule="evenodd" clip-rule="evenodd" d="M189.42 148.959H161.032C159.365 148.959 158.003 147.595 158.003 145.925V142.105L164.584 115.841C164.767 115.122 165.144 114.446 165.643 113.873H189.42C191.087 113.873 192.449 115.238 192.449 116.907V145.925C192.449 147.595 191.087 148.959 189.42 148.959Z" fill="#FFF2D1"/>
<path fill-rule="evenodd" clip-rule="evenodd" d="M162.547 148.96H204.025C206.069 148.96 208.167 147.285 208.678 145.231L216.044 115.836C216.555 113.788 215.302 112.107 213.258 112.107H211.081L211.543 110.261C211.732 109.512 211.275 108.902 210.527 108.902H195.388C194.639 108.902 193.879 109.512 193.69 110.261L193.228 112.107H171.787C169.743 112.107 167.645 113.782 167.134 115.836L159.767 145.231C159.257 147.278 160.51 148.96 162.553 148.96H162.547Z" fill="#FFB571"/>
<path fill-rule="evenodd" clip-rule="evenodd" d="M206.713 117.462L200.825 140.954C200.308 143.001 198.215 144.683 196.171 144.683H159.901L159.761 145.237C159.25 147.284 160.503 148.966 162.547 148.966H204.024C206.068 148.966 208.166 147.29 208.677 145.237L216.044 115.841C216.554 113.794 215.301 112.113 213.258 112.113H211.08L211.542 110.267C211.731 109.517 211.275 108.908 210.527 108.908H207.741C208.258 109.584 208.452 110.529 208.191 111.564L206.713 117.468V117.462Z" fill="#EE9B60"/>
<path d="M226.628 121.135H150.333V153.455H226.628V121.135Z" fill="white"/>
<path fill-rule="evenodd" clip-rule="evenodd" d="M127.34 153.461H147.346C148.282 153.461 149.043 154.101 149.043 154.881C149.043 155.667 148.276 156.3 147.346 156.3H127.34C126.403 156.3 125.643 155.661 125.643 154.881C125.643 154.095 126.409 153.455 127.34 153.455V153.461Z" fill="#221758"/>
<path fill-rule="evenodd" clip-rule="evenodd" d="M100.649 153.461H174.031C174.833 153.461 175.49 154.009 175.49 154.679V154.88H99.1895V154.679C99.1895 154.009 99.8464 153.461 100.649 153.461Z" fill="#221758"/>
<path fill-rule="evenodd" clip-rule="evenodd" d="M151.793 119.715H225.174C225.977 119.715 226.628 120.263 226.628 120.933V121.134H200.18C200.18 121.914 199.414 122.554 198.483 122.554H178.478C177.547 122.554 176.78 121.914 176.78 121.134H150.333V120.933C150.333 120.263 150.99 119.715 151.787 119.715H151.793Z" fill="#221758"/>
<path fill-rule="evenodd" clip-rule="evenodd" d="M150.332 153.461V121.141H99.1895V154.685C99.1895 154.015 99.8464 153.467 100.649 153.467H127.31C127.31 153.467 127.328 153.467 127.34 153.467H147.346C147.346 153.467 147.364 153.467 147.376 153.467H150.332V153.461Z" fill="url(#paint6_linear_1_3945)"/>
<path fill-rule="evenodd" clip-rule="evenodd" d="M66.0156 117.967C57.2809 108.274 50.7785 120.587 51.6909 132.949C52.5547 144.67 61.8186 184.886 60.1032 201.811H63.6555C72.3355 180.116 77.2077 130.378 66.0217 117.967H66.0156Z" fill="url(#paint7_linear_1_3945)"/>
<path fill-rule="evenodd" clip-rule="evenodd" d="M62.3413 201.81C70.7901 167.613 60.0968 120.342 60.0603 120.178C59.9934 119.886 59.7258 119.703 59.4521 119.776C59.1844 119.849 59.0202 120.141 59.081 120.434C59.1175 120.598 69.8291 167.918 61.3133 201.81H62.3413Z" fill="#42E82C"/>
<path fill-rule="evenodd" clip-rule="evenodd" d="M44.4587 139.333C35.2556 134.015 32.932 145.615 36.5208 155.216C39.4952 163.167 52.6338 186.696 57.6033 201.811H62.2809C62.6762 180.92 55.3223 145.609 44.4587 139.333Z" fill="url(#paint8_linear_1_3945)"/>
<path fill-rule="evenodd" clip-rule="evenodd" d="M60.5719 201.811C57.5244 173.561 40.2923 142.849 40.2314 142.739C40.1098 142.526 39.8543 142.453 39.6536 142.587C39.4529 142.715 39.392 143.001 39.5137 143.215C39.5745 143.324 56.7033 173.835 59.7446 201.811H60.5779H60.5719Z" fill="#26CF13"/>
<path fill-rule="evenodd" clip-rule="evenodd" d="M83.3695 152.743C92.2928 148.497 93.7039 159.481 89.7441 168.151C87.0617 174.018 77.3963 189.036 70.8879 201.811H63.4609C66.0035 182.486 74.1482 157.136 83.3756 152.743H83.3695Z" fill="url(#paint9_linear_1_3945)"/>
<path fill-rule="evenodd" clip-rule="evenodd" d="M66.1067 201.812C72.4387 178.398 87.031 156.332 87.0858 156.24C87.2135 156.045 87.4568 156.003 87.6332 156.143C87.8096 156.277 87.8522 156.545 87.7245 156.74C87.6636 156.831 73.2295 178.667 66.9096 201.812H66.1006H66.1067Z" fill="#17A50B"/>
<path fill-rule="evenodd" clip-rule="evenodd" d="M52.0259 194.08H78.1692C78.9538 194.08 79.5925 194.775 79.5925 195.628V202.664C79.5925 203.517 78.9538 204.212 78.1692 204.212H52.0259C51.2412 204.212 50.6025 203.517 50.6025 202.664V195.628C50.6025 194.775 51.2412 194.08 52.0259 194.08Z" fill="#19A4B4"/>
<path fill-rule="evenodd" clip-rule="evenodd" d="M56.5093 199.807H73.6807L78.1697 204.218L74.5018 219.595H65.098H55.6881L52.0264 204.218L56.5093 199.807Z" fill="#19A4B4"/>
<path fill-rule="evenodd" clip-rule="evenodd" d="M78.1697 204.219L77.4154 207.381H52.7806L52.0264 204.219H78.1697Z" fill="#1B7183"/>
</g>
<defs>
<linearGradient id="paint0_linear_1_3945" x1="192.631" y1="142.613" x2="192.631" y2="219.602" gradientUnits="userSpaceOnUse">
<stop stop-color="#AAFA9C"/>
<stop offset="1" stop-color="#56E23E"/>
</linearGradient>
<linearGradient id="paint1_linear_1_3945" x1="135.665" y1="2.32031" x2="135.665" y2="68.5173" gradientUnits="userSpaceOnUse">
<stop stop-color="#36CBDA"/>
<stop offset="1" stop-color="#00B5C7"/>
</linearGradient>
<linearGradient id="paint2_linear_1_3945" x1="155.67" y1="50.9199" x2="155.67" y2="66.5176" gradientUnits="userSpaceOnUse">
<stop stop-color="#34F000"/>
<stop offset="1" stop-color="#29BD00"/>
</linearGradient>
<linearGradient id="paint3_linear_1_3945" x1="267.8" y1="59.4844" x2="267.8" y2="201.317" gradientUnits="userSpaceOnUse">
<stop stop-color="#36CBDA"/>
<stop offset="1" stop-color="#19A4B4"/>
</linearGradient>
<linearGradient id="paint4_linear_1_3945" x1="115.856" y1="82.5391" x2="115.856" y2="219.6" gradientUnits="userSpaceOnUse">
<stop stop-color="#1ABDC0"/>
<stop offset="1" stop-color="#00DBDF"/>
</linearGradient>
<linearGradient id="paint5_linear_1_3945" x1="137.34" y1="82.5391" x2="137.34" y2="219.6" gradientUnits="userSpaceOnUse">
<stop stop-color="#9AF9FF"/>
<stop offset="1" stop-color="#A2F5FF"/>
</linearGradient>
<linearGradient id="paint6_linear_1_3945" x1="124.761" y1="121.141" x2="124.761" y2="154.685" gradientUnits="userSpaceOnUse">
<stop stop-color="#AEEFF3"/>
<stop offset="1" stop-color="#61DFE7"/>
</linearGradient>
<linearGradient id="paint7_linear_1_3945" x1="62.0663" y1="114.48" x2="62.0663" y2="201.811" gradientUnits="userSpaceOnUse">
<stop stop-color="#AAFA9C"/>
<stop offset="1" stop-color="#45F126"/>
</linearGradient>
<linearGradient id="paint8_linear_1_3945" x1="48.6046" y1="137.994" x2="48.6046" y2="201.811" gradientUnits="userSpaceOnUse">
<stop stop-color="#75F462"/>
<stop offset="1" stop-color="#AEFFA2"/>
</linearGradient>
<linearGradient id="paint9_linear_1_3945" x1="77.6489" y1="151.801" x2="77.6489" y2="201.811" gradientUnits="userSpaceOnUse">
<stop stop-color="#26CF13"/>
<stop offset="1" stop-color="#79FF69"/>
</linearGradient>
<clipPath id="clip0_1_3945">
<rect width="371" height="238" fill="white"/>
</clipPath>
<clipPath id="clip1_1_3945">
<rect width="156" height="219" fill="white" transform="translate(160 9)"/>
</clipPath>
</defs>
</svg>
